<svg xmlns="http://www.w3.org/2000/svg" width="1080" height="520" viewBox="0 0 1080 520" font-family="Segoe UI, Helvetica, Arial, sans-serif">
<rect width="1080" height="520" fill="#fbfaf7"/>
<text x="70" y="28" font-size="17" font-weight="600" fill="#2b2b2b">Persona 1 (JP) - matching decompilation</text>
<text x="70" y="46" font-size="12" fill="#6b6b6b">88,928 of 1,026,168 bytes matched (8.666%) in 491 of 2132 functions</text>
<line x1="70" y1="468.0" x2="790" y2="468.0" stroke="#e3e0d8" stroke-width="1"/>
<text x="62" y="471.0" font-size="10" fill="#8a857c" text-anchor="end">0</text>
<text x="798" y="471.0" font-size="10" fill="#8a857c">0.0%</text>
<line x1="70" y1="386.0" x2="790" y2="386.0" stroke="#e3e0d8" stroke-width="1"/>
<text x="62" y="389.0" font-size="10" fill="#8a857c" text-anchor="end">20,000</text>
<text x="798" y="389.0" font-size="10" fill="#8a857c">1.9%</text>
<line x1="70" y1="304.0" x2="790" y2="304.0" stroke="#e3e0d8" stroke-width="1"/>
<text x="62" y="307.0" font-size="10" fill="#8a857c" text-anchor="end">40,000</text>
<text x="798" y="307.0" font-size="10" fill="#8a857c">3.9%</text>
<line x1="70" y1="222.0" x2="790" y2="222.0" stroke="#e3e0d8" stroke-width="1"/>
<text x="62" y="225.0" font-size="10" fill="#8a857c" text-anchor="end">60,000</text>
<text x="798" y="225.0" font-size="10" fill="#8a857c">5.8%</text>
<line x1="70" y1="140.0" x2="790" y2="140.0" stroke="#e3e0d8" stroke-width="1"/>
<text x="62" y="143.0" font-size="10" fill="#8a857c" text-anchor="end">80,000</text>
<text x="798" y="143.0" font-size="10" fill="#8a857c">7.8%</text>
<line x1="70" y1="58.0" x2="790" y2="58.0" stroke="#e3e0d8" stroke-width="1"/>
<text x="62" y="61.0" font-size="10" fill="#8a857c" text-anchor="end">100,000</text>
<text x="798" y="61.0" font-size="10" fill="#8a857c">9.7%</text>
<polygon points="70.0,467.1 77.3,467.1 84.5,467.1 91.8,467.2 99.1,467.1 106.4,463.9 113.6,460.3 120.9,460.3 128.2,455.7 135.5,455.5 142.7,455.5 150.0,456.4 157.3,455.5 164.5,455.5 171.8,455.5 179.1,455.5 186.4,455.5 193.6,455.5 200.9,455.5 208.2,452.8 215.5,452.8 222.7,452.8 230.0,452.8 237.3,452.8 244.5,452.8 251.8,452.8 259.1,452.8 266.4,452.8 273.6,452.8 280.9,452.8 288.2,452.8 295.5,452.8 302.7,452.8 310.0,452.8 317.3,452.8 324.5,452.8 331.8,452.8 339.1,452.8 346.4,452.8 353.6,452.8 360.9,452.8 368.2,452.8 375.5,453.3 382.7,453.2 390.0,453.2 397.3,452.8 404.5,452.8 411.8,452.8 419.1,452.8 426.4,452.8 433.6,452.8 440.9,452.8 448.2,452.8 455.5,452.8 462.7,452.8 470.0,452.8 477.3,452.8 484.5,452.8 491.8,452.8 499.1,452.8 506.4,452.8 513.6,452.8 520.9,452.8 528.2,452.8 535.5,452.8 542.7,452.8 550.0,452.8 557.3,452.8 564.5,453.5 571.8,452.8 579.1,452.8 586.4,452.8 593.6,452.8 600.9,452.8 608.2,452.8 615.5,452.8 622.7,452.8 630.0,452.8 637.3,452.8 644.5,452.8 651.8,452.8 659.1,452.8 666.4,452.8 673.6,452.8 680.9,452.8 688.2,452.8 695.5,452.8 702.7,452.8 710.0,452.8 717.3,452.8 724.5,452.8 731.8,452.8 739.1,452.8 746.4,452.8 753.6,452.8 760.9,452.8 768.2,452.8 775.5,452.8 782.7,452.8 790.0,452.8 790.0,468.0 782.7,468.0 775.5,468.0 768.2,468.0 760.9,468.0 753.6,468.0 746.4,468.0 739.1,468.0 731.8,468.0 724.5,468.0 717.3,468.0 710.0,468.0 702.7,468.0 695.5,468.0 688.2,468.0 680.9,468.0 673.6,468.0 666.4,468.0 659.1,468.0 651.8,468.0 644.5,468.0 637.3,468.0 630.0,468.0 622.7,468.0 615.5,468.0 608.2,468.0 600.9,468.0 593.6,468.0 586.4,468.0 579.1,468.0 571.8,468.0 564.5,468.0 557.3,468.0 550.0,468.0 542.7,468.0 535.5,468.0 528.2,468.0 520.9,468.0 513.6,468.0 506.4,468.0 499.1,468.0 491.8,468.0 484.5,468.0 477.3,468.0 470.0,468.0 462.7,468.0 455.5,468.0 448.2,468.0 440.9,468.0 433.6,468.0 426.4,468.0 419.1,468.0 411.8,468.0 404.5,468.0 397.3,468.0 390.0,468.0 382.7,468.0 375.5,468.0 368.2,468.0 360.9,468.0 353.6,468.0 346.4,468.0 339.1,468.0 331.8,468.0 324.5,468.0 317.3,468.0 310.0,468.0 302.7,468.0 295.5,468.0 288.2,468.0 280.9,468.0 273.6,468.0 266.4,468.0 259.1,468.0 251.8,468.0 244.5,468.0 237.3,468.0 230.0,468.0 222.7,468.0 215.5,468.0 208.2,468.0 200.9,468.0 193.6,468.0 186.4,468.0 179.1,468.0 171.8,468.0 164.5,468.0 157.3,468.0 150.0,468.0 142.7,468.0 135.5,468.0 128.2,468.0 120.9,468.0 113.6,468.0 106.4,468.0 99.1,468.0 91.8,468.0 84.5,468.0 77.3,468.0 70.0,468.0" fill="#4e79a7" fill-opacity="0.92" stroke="#4e79a7" stroke-width="0.6"/>
<polygon points="70.0,467.1 77.3,467.1 84.5,467.1 91.8,466.4 99.1,466.4 106.4,463.1 113.6,459.6 120.9,459.6 128.2,454.9 135.5,454.8 142.7,454.8 150.0,455.7 157.3,454.8 164.5,454.8 171.8,454.8 179.1,454.8 186.4,454.8 193.6,454.8 200.9,454.8 208.2,452.1 215.5,452.1 222.7,452.1 230.0,452.1 237.3,452.1 244.5,452.1 251.8,452.1 259.1,452.1 266.4,452.1 273.6,452.1 280.9,452.1 288.2,452.1 295.5,452.1 302.7,452.1 310.0,452.1 317.3,452.1 324.5,452.1 331.8,452.1 339.1,452.1 346.4,452.1 353.6,452.1 360.9,452.1 368.2,452.1 375.5,452.6 382.7,452.5 390.0,452.5 397.3,452.1 404.5,452.1 411.8,452.1 419.1,452.1 426.4,452.1 433.6,452.1 440.9,452.1 448.2,452.1 455.5,452.1 462.7,452.1 470.0,452.1 477.3,452.1 484.5,452.1 491.8,452.1 499.1,452.1 506.4,452.1 513.6,452.1 520.9,452.1 528.2,452.1 535.5,452.1 542.7,452.1 550.0,452.1 557.3,452.1 564.5,452.8 571.8,452.1 579.1,452.1 586.4,452.1 593.6,452.1 600.9,452.1 608.2,452.1 615.5,452.1 622.7,452.1 630.0,452.1 637.3,452.1 644.5,452.1 651.8,452.1 659.1,452.1 666.4,452.1 673.6,452.1 680.9,452.1 688.2,452.1 695.5,452.1 702.7,452.1 710.0,452.1 717.3,452.1 724.5,452.1 731.8,452.1 739.1,452.1 746.4,452.1 753.6,452.1 760.9,452.1 768.2,452.1 775.5,452.1 782.7,452.1 790.0,452.1 790.0,452.8 782.7,452.8 775.5,452.8 768.2,452.8 760.9,452.8 753.6,452.8 746.4,452.8 739.1,452.8 731.8,452.8 724.5,452.8 717.3,452.8 710.0,452.8 702.7,452.8 695.5,452.8 688.2,452.8 680.9,452.8 673.6,452.8 666.4,452.8 659.1,452.8 651.8,452.8 644.5,452.8 637.3,452.8 630.0,452.8 622.7,452.8 615.5,452.8 608.2,452.8 600.9,452.8 593.6,452.8 586.4,452.8 579.1,452.8 571.8,452.8 564.5,453.5 557.3,452.8 550.0,452.8 542.7,452.8 535.5,452.8 528.2,452.8 520.9,452.8 513.6,452.8 506.4,452.8 499.1,452.8 491.8,452.8 484.5,452.8 477.3,452.8 470.0,452.8 462.7,452.8 455.5,452.8 448.2,452.8 440.9,452.8 433.6,452.8 426.4,452.8 419.1,452.8 411.8,452.8 404.5,452.8 397.3,452.8 390.0,453.2 382.7,453.2 375.5,453.3 368.2,452.8 360.9,452.8 353.6,452.8 346.4,452.8 339.1,452.8 331.8,452.8 324.5,452.8 317.3,452.8 310.0,452.8 302.7,452.8 295.5,452.8 288.2,452.8 280.9,452.8 273.6,452.8 266.4,452.8 259.1,452.8 251.8,452.8 244.5,452.8 237.3,452.8 230.0,452.8 222.7,452.8 215.5,452.8 208.2,452.8 200.9,455.5 193.6,455.5 186.4,455.5 179.1,455.5 171.8,455.5 164.5,455.5 157.3,455.5 150.0,456.4 142.7,455.5 135.5,455.5 128.2,455.7 120.9,460.3 113.6,460.3 106.4,463.9 99.1,467.1 91.8,467.2 84.5,467.1 77.3,467.1 70.0,467.1" fill="#f28e2b" fill-opacity="0.92" stroke="#f28e2b" stroke-width="0.6"/>
<polygon points="70.0,467.1 77.3,467.1 84.5,467.1 91.8,466.4 99.1,465.7 106.4,462.4 113.6,458.8 120.9,458.8 128.2,454.2 135.5,454.0 142.7,454.0 150.0,455.1 157.3,454.0 164.5,454.0 171.8,454.0 179.1,454.0 186.4,454.0 193.6,454.0 200.9,454.0 208.2,451.4 215.5,451.4 222.7,451.4 230.0,451.4 237.3,451.4 244.5,451.4 251.8,451.4 259.1,451.4 266.4,451.4 273.6,451.4 280.9,451.4 288.2,451.4 295.5,451.4 302.7,451.4 310.0,451.4 317.3,451.4 324.5,451.4 331.8,451.4 339.1,451.4 346.4,451.4 353.6,451.4 360.9,451.4 368.2,451.4 375.5,451.9 382.7,451.8 390.0,451.8 397.3,451.4 404.5,451.4 411.8,451.4 419.1,451.4 426.4,451.4 433.6,451.4 440.9,451.4 448.2,451.4 455.5,451.4 462.7,451.4 470.0,451.4 477.3,451.4 484.5,451.4 491.8,451.4 499.1,451.4 506.4,451.4 513.6,451.4 520.9,451.4 528.2,451.4 535.5,451.4 542.7,451.4 550.0,451.4 557.3,451.4 564.5,452.1 571.8,451.4 579.1,451.4 586.4,451.4 593.6,451.4 600.9,451.4 608.2,451.4 615.5,451.4 622.7,451.4 630.0,451.4 637.3,451.4 644.5,451.4 651.8,451.4 659.1,451.4 666.4,451.4 673.6,451.4 680.9,451.4 688.2,451.4 695.5,451.4 702.7,451.4 710.0,451.4 717.3,451.4 724.5,451.4 731.8,451.4 739.1,451.4 746.4,451.4 753.6,451.4 760.9,451.4 768.2,451.4 775.5,451.4 782.7,451.4 790.0,451.4 790.0,452.1 782.7,452.1 775.5,452.1 768.2,452.1 760.9,452.1 753.6,452.1 746.4,452.1 739.1,452.1 731.8,452.1 724.5,452.1 717.3,452.1 710.0,452.1 702.7,452.1 695.5,452.1 688.2,452.1 680.9,452.1 673.6,452.1 666.4,452.1 659.1,452.1 651.8,452.1 644.5,452.1 637.3,452.1 630.0,452.1 622.7,452.1 615.5,452.1 608.2,452.1 600.9,452.1 593.6,452.1 586.4,452.1 579.1,452.1 571.8,452.1 564.5,452.8 557.3,452.1 550.0,452.1 542.7,452.1 535.5,452.1 528.2,452.1 520.9,452.1 513.6,452.1 506.4,452.1 499.1,452.1 491.8,452.1 484.5,452.1 477.3,452.1 470.0,452.1 462.7,452.1 455.5,452.1 448.2,452.1 440.9,452.1 433.6,452.1 426.4,452.1 419.1,452.1 411.8,452.1 404.5,452.1 397.3,452.1 390.0,452.5 382.7,452.5 375.5,452.6 368.2,452.1 360.9,452.1 353.6,452.1 346.4,452.1 339.1,452.1 331.8,452.1 324.5,452.1 317.3,452.1 310.0,452.1 302.7,452.1 295.5,452.1 288.2,452.1 280.9,452.1 273.6,452.1 266.4,452.1 259.1,452.1 251.8,452.1 244.5,452.1 237.3,452.1 230.0,452.1 222.7,452.1 215.5,452.1 208.2,452.1 200.9,454.8 193.6,454.8 186.4,454.8 179.1,454.8 171.8,454.8 164.5,454.8 157.3,454.8 150.0,455.7 142.7,454.8 135.5,454.8 128.2,454.9 120.9,459.6 113.6,459.6 106.4,463.1 99.1,466.4 91.8,466.4 84.5,467.1 77.3,467.1 70.0,467.1" fill="#e15759" fill-opacity="0.92" stroke="#e15759" stroke-width="0.6"/>
<polygon points="70.0,467.1 77.3,467.1 84.5,467.1 91.8,466.4 99.1,465.1 106.4,461.8 113.6,458.3 120.9,458.3 128.2,453.6 135.5,453.5 142.7,453.5 150.0,454.5 157.3,453.5 164.5,453.5 171.8,453.5 179.1,453.5 186.4,453.5 193.6,453.5 200.9,453.5 208.2,450.8 215.5,450.8 222.7,450.8 230.0,450.8 237.3,450.8 244.5,450.8 251.8,450.8 259.1,450.8 266.4,450.8 273.6,450.8 280.9,450.8 288.2,450.8 295.5,450.8 302.7,450.8 310.0,450.8 317.3,450.8 324.5,450.8 331.8,450.8 339.1,450.8 346.4,450.8 353.6,450.8 360.9,450.8 368.2,450.8 375.5,451.3 382.7,451.3 390.0,451.2 397.3,450.8 404.5,450.8 411.8,450.8 419.1,450.8 426.4,450.8 433.6,450.8 440.9,450.8 448.2,450.8 455.5,450.8 462.7,450.8 470.0,450.8 477.3,450.8 484.5,450.8 491.8,450.8 499.1,450.8 506.4,450.8 513.6,450.8 520.9,450.8 528.2,450.8 535.5,450.8 542.7,450.8 550.0,450.8 557.3,450.8 564.5,451.5 571.8,450.8 579.1,450.8 586.4,450.8 593.6,450.8 600.9,450.8 608.2,450.8 615.5,450.8 622.7,450.8 630.0,450.8 637.3,450.8 644.5,450.8 651.8,450.8 659.1,450.8 666.4,450.8 673.6,450.8 680.9,450.8 688.2,450.8 695.5,450.8 702.7,450.8 710.0,450.8 717.3,450.8 724.5,450.8 731.8,450.8 739.1,450.8 746.4,450.8 753.6,450.8 760.9,450.8 768.2,450.8 775.5,450.8 782.7,450.8 790.0,450.8 790.0,451.4 782.7,451.4 775.5,451.4 768.2,451.4 760.9,451.4 753.6,451.4 746.4,451.4 739.1,451.4 731.8,451.4 724.5,451.4 717.3,451.4 710.0,451.4 702.7,451.4 695.5,451.4 688.2,451.4 680.9,451.4 673.6,451.4 666.4,451.4 659.1,451.4 651.8,451.4 644.5,451.4 637.3,451.4 630.0,451.4 622.7,451.4 615.5,451.4 608.2,451.4 600.9,451.4 593.6,451.4 586.4,451.4 579.1,451.4 571.8,451.4 564.5,452.1 557.3,451.4 550.0,451.4 542.7,451.4 535.5,451.4 528.2,451.4 520.9,451.4 513.6,451.4 506.4,451.4 499.1,451.4 491.8,451.4 484.5,451.4 477.3,451.4 470.0,451.4 462.7,451.4 455.5,451.4 448.2,451.4 440.9,451.4 433.6,451.4 426.4,451.4 419.1,451.4 411.8,451.4 404.5,451.4 397.3,451.4 390.0,451.8 382.7,451.8 375.5,451.9 368.2,451.4 360.9,451.4 353.6,451.4 346.4,451.4 339.1,451.4 331.8,451.4 324.5,451.4 317.3,451.4 310.0,451.4 302.7,451.4 295.5,451.4 288.2,451.4 280.9,451.4 273.6,451.4 266.4,451.4 259.1,451.4 251.8,451.4 244.5,451.4 237.3,451.4 230.0,451.4 222.7,451.4 215.5,451.4 208.2,451.4 200.9,454.0 193.6,454.0 186.4,454.0 179.1,454.0 171.8,454.0 164.5,454.0 157.3,454.0 150.0,455.1 142.7,454.0 135.5,454.0 128.2,454.2 120.9,458.8 113.6,458.8 106.4,462.4 99.1,465.7 91.8,466.4 84.5,467.1 77.3,467.1 70.0,467.1" fill="#76b7b2" fill-opacity="0.92" stroke="#76b7b2" stroke-width="0.6"/>
<polygon points="70.0,467.1 77.3,467.1 84.5,467.1 91.8,465.9 99.1,464.5 106.4,461.3 113.6,457.7 120.9,457.7 128.2,453.1 135.5,452.9 142.7,452.9 150.0,454.0 157.3,452.9 164.5,452.9 171.8,452.9 179.1,452.9 186.4,452.9 193.6,452.9 200.9,452.9 208.2,450.2 215.5,450.2 222.7,450.2 230.0,450.2 237.3,450.2 244.5,450.2 251.8,450.2 259.1,450.2 266.4,450.2 273.6,450.2 280.9,450.2 288.2,450.2 295.5,450.2 302.7,450.2 310.0,450.2 317.3,450.2 324.5,450.2 331.8,450.2 339.1,450.2 346.4,450.2 353.6,450.2 360.9,450.2 368.2,450.2 375.5,450.8 382.7,450.7 390.0,450.7 397.3,450.2 404.5,450.2 411.8,450.2 419.1,450.2 426.4,450.2 433.6,450.2 440.9,450.2 448.2,450.2 455.5,450.2 462.7,450.2 470.0,450.2 477.3,450.2 484.5,450.2 491.8,450.2 499.1,450.2 506.4,450.2 513.6,450.2 520.9,450.2 528.2,450.2 535.5,450.2 542.7,450.2 550.0,450.2 557.3,450.2 564.5,450.9 571.8,450.2 579.1,450.2 586.4,450.2 593.6,450.2 600.9,450.2 608.2,450.2 615.5,450.2 622.7,450.2 630.0,450.2 637.3,450.2 644.5,450.2 651.8,450.2 659.1,450.2 666.4,450.2 673.6,450.2 680.9,450.2 688.2,450.2 695.5,450.2 702.7,450.2 710.0,450.2 717.3,450.2 724.5,450.2 731.8,450.2 739.1,450.2 746.4,450.2 753.6,450.2 760.9,450.2 768.2,450.2 775.5,450.2 782.7,450.2 790.0,450.2 790.0,450.8 782.7,450.8 775.5,450.8 768.2,450.8 760.9,450.8 753.6,450.8 746.4,450.8 739.1,450.8 731.8,450.8 724.5,450.8 717.3,450.8 710.0,450.8 702.7,450.8 695.5,450.8 688.2,450.8 680.9,450.8 673.6,450.8 666.4,450.8 659.1,450.8 651.8,450.8 644.5,450.8 637.3,450.8 630.0,450.8 622.7,450.8 615.5,450.8 608.2,450.8 600.9,450.8 593.6,450.8 586.4,450.8 579.1,450.8 571.8,450.8 564.5,451.5 557.3,450.8 550.0,450.8 542.7,450.8 535.5,450.8 528.2,450.8 520.9,450.8 513.6,450.8 506.4,450.8 499.1,450.8 491.8,450.8 484.5,450.8 477.3,450.8 470.0,450.8 462.7,450.8 455.5,450.8 448.2,450.8 440.9,450.8 433.6,450.8 426.4,450.8 419.1,450.8 411.8,450.8 404.5,450.8 397.3,450.8 390.0,451.2 382.7,451.3 375.5,451.3 368.2,450.8 360.9,450.8 353.6,450.8 346.4,450.8 339.1,450.8 331.8,450.8 324.5,450.8 317.3,450.8 310.0,450.8 302.7,450.8 295.5,450.8 288.2,450.8 280.9,450.8 273.6,450.8 266.4,450.8 259.1,450.8 251.8,450.8 244.5,450.8 237.3,450.8 230.0,450.8 222.7,450.8 215.5,450.8 208.2,450.8 200.9,453.5 193.6,453.5 186.4,453.5 179.1,453.5 171.8,453.5 164.5,453.5 157.3,453.5 150.0,454.5 142.7,453.5 135.5,453.5 128.2,453.6 120.9,458.3 113.6,458.3 106.4,461.8 99.1,465.1 91.8,466.4 84.5,467.1 77.3,467.1 70.0,467.1" fill="#59a14f" fill-opacity="0.92" stroke="#59a14f" stroke-width="0.6"/>
<polygon points="70.0,466.4 77.3,466.4 84.5,466.4 91.8,465.2 99.1,463.8 106.4,460.6 113.6,457.0 120.9,457.0 128.2,452.4 135.5,452.2 142.7,451.6 150.0,453.3 157.3,451.6 164.5,451.6 171.8,449.1 179.1,448.7 186.4,447.9 193.6,447.0 200.9,447.0 208.2,444.3 215.5,444.3 222.7,441.5 230.0,439.5 237.3,437.4 244.5,436.3 251.8,435.9 259.1,435.5 266.4,435.1 273.6,433.5 280.9,433.0 288.2,431.3 295.5,431.1 302.7,431.1 310.0,431.1 317.3,430.7 324.5,428.8 331.8,425.3 339.1,425.3 346.4,424.8 353.6,423.7 360.9,423.7 368.2,422.1 375.5,395.9 382.7,392.8 390.0,391.4 397.3,388.0 404.5,386.9 411.8,385.5 419.1,384.4 426.4,384.4 433.6,384.4 440.9,384.4 448.2,384.4 455.5,384.4 462.7,377.8 470.0,377.5 477.3,377.1 484.5,377.1 491.8,377.1 499.1,377.1 506.4,377.1 513.6,375.1 520.9,374.1 528.2,373.4 535.5,373.4 542.7,371.9 550.0,371.9 557.3,371.9 564.5,372.6 571.8,371.9 579.1,370.7 586.4,370.7 593.6,372.1 600.9,370.7 608.2,370.4 615.5,370.1 622.7,370.1 630.0,370.1 637.3,370.1 644.5,369.3 651.8,369.0 659.1,369.0 666.4,369.0 673.6,369.0 680.9,369.0 688.2,368.5 695.5,368.5 702.7,368.5 710.0,368.5 717.3,368.5 724.5,368.5 731.8,368.5 739.1,368.5 746.4,368.5 753.6,368.5 760.9,368.5 768.2,368.5 775.5,368.5 782.7,368.5 790.0,368.5 790.0,450.2 782.7,450.2 775.5,450.2 768.2,450.2 760.9,450.2 753.6,450.2 746.4,450.2 739.1,450.2 731.8,450.2 724.5,450.2 717.3,450.2 710.0,450.2 702.7,450.2 695.5,450.2 688.2,450.2 680.9,450.2 673.6,450.2 666.4,450.2 659.1,450.2 651.8,450.2 644.5,450.2 637.3,450.2 630.0,450.2 622.7,450.2 615.5,450.2 608.2,450.2 600.9,450.2 593.6,450.2 586.4,450.2 579.1,450.2 571.8,450.2 564.5,450.9 557.3,450.2 550.0,450.2 542.7,450.2 535.5,450.2 528.2,450.2 520.9,450.2 513.6,450.2 506.4,450.2 499.1,450.2 491.8,450.2 484.5,450.2 477.3,450.2 470.0,450.2 462.7,450.2 455.5,450.2 448.2,450.2 440.9,450.2 433.6,450.2 426.4,450.2 419.1,450.2 411.8,450.2 404.5,450.2 397.3,450.2 390.0,450.7 382.7,450.7 375.5,450.8 368.2,450.2 360.9,450.2 353.6,450.2 346.4,450.2 339.1,450.2 331.8,450.2 324.5,450.2 317.3,450.2 310.0,450.2 302.7,450.2 295.5,450.2 288.2,450.2 280.9,450.2 273.6,450.2 266.4,450.2 259.1,450.2 251.8,450.2 244.5,450.2 237.3,450.2 230.0,450.2 222.7,450.2 215.5,450.2 208.2,450.2 200.9,452.9 193.6,452.9 186.4,452.9 179.1,452.9 171.8,452.9 164.5,452.9 157.3,452.9 150.0,454.0 142.7,452.9 135.5,452.9 128.2,453.1 120.9,457.7 113.6,457.7 106.4,461.3 99.1,464.5 91.8,465.9 84.5,467.1 77.3,467.1 70.0,467.1" fill="#edc948" fill-opacity="0.92" stroke="#edc948" stroke-width="0.6"/>
<polygon points="70.0,465.7 77.3,465.7 84.5,465.8 91.8,464.5 99.1,463.1 106.4,459.9 113.6,456.3 120.9,456.3 128.2,451.7 135.5,451.5 142.7,450.9 150.0,452.7 157.3,450.9 164.5,450.9 171.8,448.4 179.1,448.1 186.4,447.2 193.6,446.3 200.9,446.3 208.2,443.6 215.5,443.6 222.7,440.8 230.0,438.8 237.3,436.7 244.5,435.6 251.8,435.2 259.1,434.8 266.4,434.4 273.6,432.8 280.9,432.3 288.2,430.7 295.5,430.4 302.7,430.4 310.0,430.4 317.3,430.0 324.5,428.1 331.8,424.6 339.1,424.6 346.4,424.1 353.6,423.0 360.9,423.0 368.2,421.4 375.5,395.2 382.7,392.1 390.0,390.7 397.3,387.3 404.5,386.2 411.8,384.8 419.1,383.8 426.4,383.8 433.6,383.8 440.9,383.8 448.2,383.8 455.5,383.8 462.7,377.1 470.0,376.8 477.3,376.4 484.5,376.4 491.8,376.4 499.1,376.4 506.4,376.4 513.6,374.5 520.9,373.4 528.2,372.7 535.5,372.7 542.7,371.2 550.0,371.2 557.3,371.2 564.5,371.9 571.8,371.2 579.1,367.1 586.4,366.0 593.6,367.4 600.9,366.0 608.2,365.7 615.5,365.5 622.7,365.5 630.0,365.5 637.3,365.5 644.5,364.6 651.8,364.4 659.1,364.4 666.4,364.4 673.6,364.4 680.9,362.5 688.2,361.9 695.5,361.1 702.7,356.0 710.0,354.2 717.3,353.8 724.5,353.3 731.8,350.8 739.1,350.1 746.4,348.4 753.6,348.0 760.9,347.3 768.2,347.3 775.5,347.1 782.7,345.9 790.0,344.3 790.0,368.5 782.7,368.5 775.5,368.5 768.2,368.5 760.9,368.5 753.6,368.5 746.4,368.5 739.1,368.5 731.8,368.5 724.5,368.5 717.3,368.5 710.0,368.5 702.7,368.5 695.5,368.5 688.2,368.5 680.9,369.0 673.6,369.0 666.4,369.0 659.1,369.0 651.8,369.0 644.5,369.3 637.3,370.1 630.0,370.1 622.7,370.1 615.5,370.1 608.2,370.4 600.9,370.7 593.6,372.1 586.4,370.7 579.1,370.7 571.8,371.9 564.5,372.6 557.3,371.9 550.0,371.9 542.7,371.9 535.5,373.4 528.2,373.4 520.9,374.1 513.6,375.1 506.4,377.1 499.1,377.1 491.8,377.1 484.5,377.1 477.3,377.1 470.0,377.5 462.7,377.8 455.5,384.4 448.2,384.4 440.9,384.4 433.6,384.4 426.4,384.4 419.1,384.4 411.8,385.5 404.5,386.9 397.3,388.0 390.0,391.4 382.7,392.8 375.5,395.9 368.2,422.1 360.9,423.7 353.6,423.7 346.4,424.8 339.1,425.3 331.8,425.3 324.5,428.8 317.3,430.7 310.0,431.1 302.7,431.1 295.5,431.1 288.2,431.3 280.9,433.0 273.6,433.5 266.4,435.1 259.1,435.5 251.8,435.9 244.5,436.3 237.3,437.4 230.0,439.5 222.7,441.5 215.5,444.3 208.2,444.3 200.9,447.0 193.6,447.0 186.4,447.9 179.1,448.7 171.8,449.1 164.5,451.6 157.3,451.6 150.0,453.3 142.7,451.6 135.5,452.2 128.2,452.4 120.9,457.0 113.6,457.0 106.4,460.6 99.1,463.8 91.8,465.2 84.5,466.4 77.3,466.4 70.0,466.4" fill="#b07aa1" fill-opacity="0.92" stroke="#b07aa1" stroke-width="0.6"/>
<polygon points="70.0,465.0 77.3,465.0 84.5,465.0 91.8,463.8 99.1,462.4 106.4,459.1 113.6,455.6 120.9,455.6 128.2,451.0 135.5,450.8 142.7,450.0 150.0,452.0 157.3,450.0 164.5,450.0 171.8,445.1 179.1,444.4 186.4,442.7 193.6,440.8 200.9,440.8 208.2,438.2 215.5,438.2 222.7,432.5 230.0,428.5 237.3,424.3 244.5,422.2 251.8,421.4 259.1,420.5 266.4,419.7 273.6,416.5 280.9,415.6 288.2,412.2 295.5,411.8 302.7,411.8 310.0,411.8 317.3,410.9 324.5,407.2 331.8,400.2 339.1,400.2 346.4,399.2 353.6,396.9 360.9,396.9 368.2,393.8 375.5,340.0 382.7,333.9 390.0,331.1 397.3,324.8 404.5,322.5 411.8,319.8 419.1,317.7 426.4,317.7 433.6,317.7 440.9,317.7 448.2,317.7 455.5,317.7 462.7,304.4 470.0,303.9 477.3,303.2 484.5,303.2 491.8,303.2 499.1,300.1 506.4,300.1 513.6,296.1 520.9,294.0 528.2,292.6 535.5,292.6 542.7,289.6 550.0,287.6 557.3,287.6 564.5,288.3 571.8,287.6 579.1,282.3 586.4,281.2 593.6,282.2 600.9,279.4 608.2,278.8 615.5,278.3 622.7,278.3 630.0,278.3 637.3,278.3 644.5,276.6 651.8,276.2 659.1,276.2 666.4,276.2 673.6,276.2 680.9,274.2 688.2,272.0 695.5,271.2 702.7,266.1 710.0,264.3 717.3,263.9 724.5,263.4 731.8,260.9 739.1,260.2 746.4,258.5 753.6,258.1 760.9,257.4 768.2,257.4 775.5,257.2 782.7,256.0 790.0,254.5 790.0,344.3 782.7,345.9 775.5,347.1 768.2,347.3 760.9,347.3 753.6,348.0 746.4,348.4 739.1,350.1 731.8,350.8 724.5,353.3 717.3,353.8 710.0,354.2 702.7,356.0 695.5,361.1 688.2,361.9 680.9,362.5 673.6,364.4 666.4,364.4 659.1,364.4 651.8,364.4 644.5,364.6 637.3,365.5 630.0,365.5 622.7,365.5 615.5,365.5 608.2,365.7 600.9,366.0 593.6,367.4 586.4,366.0 579.1,367.1 571.8,371.2 564.5,371.9 557.3,371.2 550.0,371.2 542.7,371.2 535.5,372.7 528.2,372.7 520.9,373.4 513.6,374.5 506.4,376.4 499.1,376.4 491.8,376.4 484.5,376.4 477.3,376.4 470.0,376.8 462.7,377.1 455.5,383.8 448.2,383.8 440.9,383.8 433.6,383.8 426.4,383.8 419.1,383.8 411.8,384.8 404.5,386.2 397.3,387.3 390.0,390.7 382.7,392.1 375.5,395.2 368.2,421.4 360.9,423.0 353.6,423.0 346.4,424.1 339.1,424.6 331.8,424.6 324.5,428.1 317.3,430.0 310.0,430.4 302.7,430.4 295.5,430.4 288.2,430.7 280.9,432.3 273.6,432.8 266.4,434.4 259.1,434.8 251.8,435.2 244.5,435.6 237.3,436.7 230.0,438.8 222.7,440.8 215.5,443.6 208.2,443.6 200.9,446.3 193.6,446.3 186.4,447.2 179.1,448.1 171.8,448.4 164.5,450.9 157.3,450.9 150.0,452.7 142.7,450.9 135.5,451.5 128.2,451.7 120.9,456.3 113.6,456.3 106.4,459.9 99.1,463.1 91.8,464.5 84.5,465.8 77.3,465.7 70.0,465.7" fill="#ff9da7" fill-opacity="0.92" stroke="#ff9da7" stroke-width="0.6"/>
<polygon points="70.0,464.3 77.3,464.3 84.5,464.3 91.8,463.1 99.1,461.7 106.4,458.4 113.6,454.8 120.9,454.8 128.2,450.2 135.5,450.1 142.7,449.2 150.0,451.3 157.3,449.2 164.5,449.2 171.8,441.9 179.1,440.8 186.4,438.3 193.6,435.5 200.9,435.5 208.2,432.9 215.5,432.9 222.7,423.1 230.0,415.9 237.3,411.6 244.5,408.5 251.8,407.3 259.1,405.9 266.4,404.7 273.6,399.9 280.9,398.5 288.2,393.5 295.5,392.9 302.7,391.6 310.0,389.9 317.3,388.5 324.5,383.0 331.8,372.5 339.1,371.7 346.4,370.3 353.6,366.8 360.9,366.3 368.2,361.7 375.5,263.8 382.7,252.5 390.0,248.3 397.3,238.5 404.5,235.0 411.8,230.9 419.1,227.7 426.4,226.4 433.6,225.3 440.9,223.6 448.2,222.4 455.5,219.8 462.7,199.9 470.0,199.1 477.3,198.0 484.5,197.5 491.8,197.5 499.1,191.3 506.4,184.4 513.6,178.4 520.9,175.2 528.2,173.2 535.5,168.6 542.7,163.5 550.0,159.4 557.3,158.5 564.5,160.4 571.8,158.0 579.1,148.6 586.4,144.1 593.6,144.8 600.9,140.6 608.2,139.7 615.5,138.9 622.7,138.9 630.0,138.5 637.3,138.1 644.5,134.6 651.8,133.7 659.1,133.2 666.4,133.2 673.6,133.2 680.9,131.3 688.2,126.4 695.5,125.6 702.7,120.5 710.0,118.7 717.3,118.3 724.5,117.8 731.8,115.3 739.1,114.6 746.4,112.9 753.6,112.5 760.9,111.8 768.2,111.8 775.5,111.6 782.7,110.4 790.0,108.9 790.0,254.5 782.7,256.0 775.5,257.2 768.2,257.4 760.9,257.4 753.6,258.1 746.4,258.5 739.1,260.2 731.8,260.9 724.5,263.4 717.3,263.9 710.0,264.3 702.7,266.1 695.5,271.2 688.2,272.0 680.9,274.2 673.6,276.2 666.4,276.2 659.1,276.2 651.8,276.2 644.5,276.6 637.3,278.3 630.0,278.3 622.7,278.3 615.5,278.3 608.2,278.8 600.9,279.4 593.6,282.2 586.4,281.2 579.1,282.3 571.8,287.6 564.5,288.3 557.3,287.6 550.0,287.6 542.7,289.6 535.5,292.6 528.2,292.6 520.9,294.0 513.6,296.1 506.4,300.1 499.1,300.1 491.8,303.2 484.5,303.2 477.3,303.2 470.0,303.9 462.7,304.4 455.5,317.7 448.2,317.7 440.9,317.7 433.6,317.7 426.4,317.7 419.1,317.7 411.8,319.8 404.5,322.5 397.3,324.8 390.0,331.1 382.7,333.9 375.5,340.0 368.2,393.8 360.9,396.9 353.6,396.9 346.4,399.2 339.1,400.2 331.8,400.2 324.5,407.2 317.3,410.9 310.0,411.8 302.7,411.8 295.5,411.8 288.2,412.2 280.9,415.6 273.6,416.5 266.4,419.7 259.1,420.5 251.8,421.4 244.5,422.2 237.3,424.3 230.0,428.5 222.7,432.5 215.5,438.2 208.2,438.2 200.9,440.8 193.6,440.8 186.4,442.7 179.1,444.4 171.8,445.1 164.5,450.0 157.3,450.0 150.0,452.0 142.7,450.0 135.5,450.8 128.2,451.0 120.9,455.6 113.6,455.6 106.4,459.1 99.1,462.4 91.8,463.8 84.5,465.0 77.3,465.0 70.0,465.0" fill="#9c755f" fill-opacity="0.92" stroke="#9c755f" stroke-width="0.6"/>
<polygon points="70.0,464.3 77.3,464.3 84.5,463.5 91.8,462.4 99.1,460.9 106.4,457.6 113.6,454.1 120.9,454.1 128.2,449.5 135.5,449.3 142.7,448.5 150.0,450.6 157.3,448.5 164.5,448.5 171.8,441.1 179.1,440.1 186.4,437.6 193.6,434.8 200.9,434.8 208.2,432.1 215.5,432.1 222.7,422.4 230.0,415.2 237.3,410.9 244.5,407.7 251.8,406.6 259.1,405.1 266.4,403.9 273.6,399.1 280.9,397.8 288.2,392.8 295.5,392.1 302.7,390.8 310.0,389.2 317.3,387.8 324.5,382.3 331.8,371.7 339.1,371.0 346.4,369.6 353.6,366.0 360.9,365.6 368.2,361.0 375.5,263.1 382.7,251.8 390.0,247.6 397.3,237.7 404.5,234.2 411.8,230.1 419.1,227.0 426.4,225.6 433.6,224.6 440.9,222.8 448.2,221.7 455.5,219.1 462.7,199.2 470.0,198.4 477.3,197.3 484.5,196.7 491.8,196.7 499.1,190.5 506.4,183.6 513.6,177.7 520.9,174.5 528.2,172.4 535.5,167.9 542.7,162.7 550.0,158.6 557.3,157.8 564.5,159.7 571.8,157.3 579.1,147.9 586.4,143.4 593.6,144.0 600.9,139.9 608.2,139.0 615.5,138.2 622.7,138.2 630.0,137.7 637.3,137.4 644.5,133.8 651.8,132.9 659.1,132.5 666.4,132.5 673.6,132.5 680.9,130.6 688.2,125.6 695.5,124.9 702.7,119.8 710.0,117.9 717.3,117.5 724.5,117.1 731.8,114.5 739.1,113.9 746.4,112.1 753.6,111.7 760.9,111.1 768.2,111.1 775.5,110.9 782.7,109.7 790.0,108.1 790.0,108.9 782.7,110.4 775.5,111.6 768.2,111.8 760.9,111.8 753.6,112.5 746.4,112.9 739.1,114.6 731.8,115.3 724.5,117.8 717.3,118.3 710.0,118.7 702.7,120.5 695.5,125.6 688.2,126.4 680.9,131.3 673.6,133.2 666.4,133.2 659.1,133.2 651.8,133.7 644.5,134.6 637.3,138.1 630.0,138.5 622.7,138.9 615.5,138.9 608.2,139.7 600.9,140.6 593.6,144.8 586.4,144.1 579.1,148.6 571.8,158.0 564.5,160.4 557.3,158.5 550.0,159.4 542.7,163.5 535.5,168.6 528.2,173.2 520.9,175.2 513.6,178.4 506.4,184.4 499.1,191.3 491.8,197.5 484.5,197.5 477.3,198.0 470.0,199.1 462.7,199.9 455.5,219.8 448.2,222.4 440.9,223.6 433.6,225.3 426.4,226.4 419.1,227.7 411.8,230.9 404.5,235.0 397.3,238.5 390.0,248.3 382.7,252.5 375.5,263.8 368.2,361.7 360.9,366.3 353.6,366.8 346.4,370.3 339.1,371.7 331.8,372.5 324.5,383.0 317.3,388.5 310.0,389.9 302.7,391.6 295.5,392.9 288.2,393.5 280.9,398.5 273.6,399.9 266.4,404.7 259.1,405.9 251.8,407.3 244.5,408.5 237.3,411.6 230.0,415.9 222.7,423.1 215.5,432.9 208.2,432.9 200.9,435.5 193.6,435.5 186.4,438.3 179.1,440.8 171.8,441.9 164.5,449.2 157.3,449.2 150.0,451.3 142.7,449.2 135.5,450.1 128.2,450.2 120.9,454.8 113.6,454.8 106.4,458.4 99.1,461.7 91.8,463.1 84.5,464.3 77.3,464.3 70.0,464.3" fill="#8cd17d" fill-opacity="0.92" stroke="#8cd17d" stroke-width="0.6"/>
<polygon points="70.0,464.3 77.3,464.3 84.5,463.5 91.8,461.7 99.1,460.2 106.4,457.0 113.6,453.4 120.9,453.4 128.2,448.8 135.5,448.6 142.7,447.8 150.0,450.0 157.3,447.8 164.5,447.8 171.8,440.5 179.1,439.4 186.4,436.9 193.6,434.1 200.9,434.1 208.2,431.4 215.5,431.4 222.7,421.7 230.0,414.5 237.3,410.2 244.5,407.1 251.8,405.9 259.1,404.5 266.4,403.2 273.6,398.5 280.9,397.1 288.2,392.1 295.5,391.4 302.7,390.2 310.0,388.5 317.3,387.1 324.5,381.6 331.8,371.1 339.1,370.3 346.4,368.9 353.6,365.3 360.9,364.9 368.2,360.3 375.5,260.5 382.7,247.2 390.0,243.0 397.3,233.0 404.5,229.5 411.8,225.4 419.1,222.3 426.4,220.9 433.6,219.9 440.9,218.1 448.2,217.0 455.5,214.4 462.7,194.5 470.0,193.7 477.3,192.6 484.5,192.0 491.8,192.0 499.1,185.8 506.4,178.9 513.6,173.0 520.9,169.8 528.2,167.7 535.5,163.2 542.7,158.0 550.0,153.9 557.3,153.1 564.5,155.0 571.8,152.6 579.1,143.1 586.4,138.7 593.6,139.3 600.9,135.1 608.2,134.3 615.5,133.5 622.7,133.5 630.0,133.0 637.3,132.7 644.5,129.1 651.8,128.2 659.1,127.8 666.4,127.8 673.6,127.8 680.9,125.9 688.2,120.9 695.5,120.2 702.7,115.1 710.0,113.2 717.3,112.8 724.5,112.4 731.8,109.8 739.1,109.2 746.4,107.4 753.6,107.0 760.9,106.3 768.2,106.3 775.5,106.2 782.7,105.0 790.0,103.4 790.0,108.1 782.7,109.7 775.5,110.9 768.2,111.1 760.9,111.1 753.6,111.7 746.4,112.1 739.1,113.9 731.8,114.5 724.5,117.1 717.3,117.5 710.0,117.9 702.7,119.8 695.5,124.9 688.2,125.6 680.9,130.6 673.6,132.5 666.4,132.5 659.1,132.5 651.8,132.9 644.5,133.8 637.3,137.4 630.0,137.7 622.7,138.2 615.5,138.2 608.2,139.0 600.9,139.9 593.6,144.0 586.4,143.4 579.1,147.9 571.8,157.3 564.5,159.7 557.3,157.8 550.0,158.6 542.7,162.7 535.5,167.9 528.2,172.4 520.9,174.5 513.6,177.7 506.4,183.6 499.1,190.5 491.8,196.7 484.5,196.7 477.3,197.3 470.0,198.4 462.7,199.2 455.5,219.1 448.2,221.7 440.9,222.8 433.6,224.6 426.4,225.6 419.1,227.0 411.8,230.1 404.5,234.2 397.3,237.7 390.0,247.6 382.7,251.8 375.5,263.1 368.2,361.0 360.9,365.6 353.6,366.0 346.4,369.6 339.1,371.0 331.8,371.7 324.5,382.3 317.3,387.8 310.0,389.2 302.7,390.8 295.5,392.1 288.2,392.8 280.9,397.8 273.6,399.1 266.4,403.9 259.1,405.1 251.8,406.6 244.5,407.7 237.3,410.9 230.0,415.2 222.7,422.4 215.5,432.1 208.2,432.1 200.9,434.8 193.6,434.8 186.4,437.6 179.1,440.1 171.8,441.1 164.5,448.5 157.3,448.5 150.0,450.6 142.7,448.5 135.5,449.3 128.2,449.5 120.9,454.1 113.6,454.1 106.4,457.6 99.1,460.9 91.8,462.4 84.5,463.5 77.3,464.3 70.0,464.3" fill="#86bcb6" fill-opacity="0.92" stroke="#86bcb6" stroke-width="0.6"/>
<line x1="70" y1="468" x2="790" y2="468" stroke="#b9b3a7"/>
<line x1="70" y1="58" x2="70" y2="468" stroke="#b9b3a7"/>
<line x1="70.0" y1="468" x2="70.0" y2="472" stroke="#b9b3a7"/>
<text x="70.0" y="485" font-size="10" fill="#8a857c" text-anchor="middle">09-05</text>
<line x1="157.3" y1="468" x2="157.3" y2="472" stroke="#b9b3a7"/>
<text x="157.3" y="485" font-size="10" fill="#8a857c" text-anchor="middle">09-05</text>
<line x1="244.5" y1="468" x2="244.5" y2="472" stroke="#b9b3a7"/>
<text x="244.5" y="485" font-size="10" fill="#8a857c" text-anchor="middle">09-05</text>
<line x1="331.8" y1="468" x2="331.8" y2="472" stroke="#b9b3a7"/>
<text x="331.8" y="485" font-size="10" fill="#8a857c" text-anchor="middle">09-05</text>
<line x1="419.1" y1="468" x2="419.1" y2="472" stroke="#b9b3a7"/>
<text x="419.1" y="485" font-size="10" fill="#8a857c" text-anchor="middle">09-05</text>
<line x1="506.4" y1="468" x2="506.4" y2="472" stroke="#b9b3a7"/>
<text x="506.4" y="485" font-size="10" fill="#8a857c" text-anchor="middle">09-05</text>
<line x1="593.6" y1="468" x2="593.6" y2="472" stroke="#b9b3a7"/>
<text x="593.6" y="485" font-size="10" fill="#8a857c" text-anchor="middle">09-05</text>
<line x1="680.9" y1="468" x2="680.9" y2="472" stroke="#b9b3a7"/>
<text x="680.9" y="485" font-size="10" fill="#8a857c" text-anchor="middle">09-06</text>
<line x1="768.2" y1="468" x2="768.2" y2="472" stroke="#b9b3a7"/>
<text x="768.2" y="485" font-size="10" fill="#8a857c" text-anchor="middle">09-06</text>
<text x="430.0" y="504" font-size="10" fill="#8a857c" text-anchor="middle">date</text>
<text x="836" y="64" font-size="10" fill="#8a857c" letter-spacing="0.5">TARGET   MATCHED  OF IT  FUNCTIONS</text>
<rect x="836" y="71" width="11" height="11" fill="#4e79a7" rx="2"/>
<text x="853" y="80" font-size="11" fill="#3d3a35">main</text>
<text x="927" y="80" font-size="11" fill="#3d3a35" text-anchor="end">3,700</text>
<text x="970" y="80" font-size="11" fill="#8a857c" text-anchor="end">40.43%</text>
<text x="1040" y="80" font-size="11" fill="#8a857c" text-anchor="end">21/41</text>
<rect x="836" y="88" width="11" height="11" fill="#f28e2b" rx="2"/>
<text x="853" y="97" font-size="11" fill="#3d3a35">atlus</text>
<text x="927" y="97" font-size="11" fill="#3d3a35" text-anchor="end">180</text>
<text x="970" y="97" font-size="11" fill="#8a857c" text-anchor="end">7.99%</text>
<text x="1040" y="97" font-size="11" fill="#8a857c" text-anchor="end">1/7</text>
<rect x="836" y="105" width="11" height="11" fill="#e15759" rx="2"/>
<text x="853" y="114" font-size="11" fill="#3d3a35">open</text>
<text x="927" y="114" font-size="11" fill="#3d3a35" text-anchor="end">180</text>
<text x="970" y="114" font-size="11" fill="#8a857c" text-anchor="end">0.57%</text>
<text x="1040" y="114" font-size="11" fill="#8a857c" text-anchor="end">1/44</text>
<rect x="836" y="122" width="11" height="11" fill="#76b7b2" rx="2"/>
<text x="853" y="131" font-size="11" fill="#3d3a35">movie</text>
<text x="927" y="131" font-size="11" fill="#3d3a35" text-anchor="end">136</text>
<text x="970" y="131" font-size="11" fill="#8a857c" text-anchor="end">9.12%</text>
<text x="1040" y="131" font-size="11" fill="#8a857c" text-anchor="end">1/3</text>
<rect x="836" y="139" width="11" height="11" fill="#59a14f" rx="2"/>
<text x="853" y="148" font-size="11" fill="#3d3a35">end</text>
<text x="927" y="148" font-size="11" fill="#3d3a35" text-anchor="end">136</text>
<text x="970" y="148" font-size="11" fill="#8a857c" text-anchor="end">1.93%</text>
<text x="1040" y="148" font-size="11" fill="#8a857c" text-anchor="end">1/8</text>
<rect x="836" y="156" width="11" height="11" fill="#edc948" rx="2"/>
<text x="853" y="165" font-size="11" fill="#3d3a35">dng</text>
<text x="927" y="165" font-size="11" fill="#3d3a35" text-anchor="end">19,948</text>
<text x="970" y="165" font-size="11" fill="#8a857c" text-anchor="end">10.04%</text>
<text x="1040" y="165" font-size="11" fill="#8a857c" text-anchor="end">112/376</text>
<rect x="836" y="173" width="11" height="11" fill="#b07aa1" rx="2"/>
<text x="853" y="182" font-size="11" fill="#3d3a35">btlp</text>
<text x="927" y="182" font-size="11" fill="#3d3a35" text-anchor="end">5,880</text>
<text x="970" y="182" font-size="11" fill="#8a857c" text-anchor="end">4.08%</text>
<text x="1040" y="182" font-size="11" fill="#8a857c" text-anchor="end">43/315</text>
<rect x="836" y="190" width="11" height="11" fill="#ff9da7" rx="2"/>
<text x="853" y="199" font-size="11" fill="#3d3a35">s2d</text>
<text x="927" y="199" font-size="11" fill="#3d3a35" text-anchor="end">21,924</text>
<text x="970" y="199" font-size="11" fill="#8a857c" text-anchor="end">10.47%</text>
<text x="1040" y="199" font-size="11" fill="#8a857c" text-anchor="end">116/449</text>
<rect x="836" y="207" width="11" height="11" fill="#9c755f" rx="2"/>
<text x="853" y="216" font-size="11" fill="#3d3a35">adv</text>
<text x="927" y="216" font-size="11" fill="#3d3a35" text-anchor="end">35,512</text>
<text x="970" y="216" font-size="11" fill="#8a857c" text-anchor="end">15.97%</text>
<text x="1040" y="216" font-size="11" fill="#8a857c" text-anchor="end">187/410</text>
<rect x="836" y="224" width="11" height="11" fill="#8cd17d" rx="2"/>
<text x="853" y="233" font-size="11" fill="#3d3a35">casino</text>
<text x="927" y="233" font-size="11" fill="#3d3a35" text-anchor="end">184</text>
<text x="970" y="233" font-size="11" fill="#8a857c" text-anchor="end">0.10%</text>
<text x="1040" y="233" font-size="11" fill="#8a857c" text-anchor="end">1/453</text>
<rect x="836" y="241" width="11" height="11" fill="#86bcb6" rx="2"/>
<text x="853" y="250" font-size="11" fill="#3d3a35">name</text>
<text x="927" y="250" font-size="11" fill="#3d3a35" text-anchor="end">1,148</text>
<text x="970" y="250" font-size="11" fill="#8a857c" text-anchor="end">7.43%</text>
<text x="1040" y="250" font-size="11" fill="#8a857c" text-anchor="end">7/26</text>
<text x="70" y="512" font-size="9.5" fill="#a49e93">The first 58 samples predate per-target recording and are reconstructed from the order functions were added; their grand totals are as measured.</text>
</svg>