<svg xmlns="http://www.w3.org/2000/svg" width="1080" height="520" viewBox="0 0 1080 520" font-family="Segoe UI, Helvetica, Arial, sans-serif">
<rect width="1080" height="520" fill="#fbfaf7"/>
<text x="70" y="28" font-size="17" font-weight="600" fill="#2b2b2b">Persona 1 (JP) - matching decompilation</text>
<text x="70" y="46" font-size="12" fill="#6b6b6b">106,180 of 1,026,168 bytes matched (10.347%) in 625 of 2132 functions</text>
<line x1="70" y1="468.0" x2="790" y2="468.0" stroke="#e3e0d8" stroke-width="1"/>
<text x="62" y="471.0" font-size="10" fill="#8a857c" text-anchor="end">0</text>
<text x="798" y="471.0" font-size="10" fill="#8a857c">0.0%</text>
<line x1="70" y1="399.7" x2="790" y2="399.7" stroke="#e3e0d8" stroke-width="1"/>
<text x="62" y="402.7" font-size="10" fill="#8a857c" text-anchor="end">20,000</text>
<text x="798" y="402.7" font-size="10" fill="#8a857c">1.9%</text>
<line x1="70" y1="331.3" x2="790" y2="331.3" stroke="#e3e0d8" stroke-width="1"/>
<text x="62" y="334.3" font-size="10" fill="#8a857c" text-anchor="end">40,000</text>
<text x="798" y="334.3" font-size="10" fill="#8a857c">3.9%</text>
<line x1="70" y1="263.0" x2="790" y2="263.0" stroke="#e3e0d8" stroke-width="1"/>
<text x="62" y="266.0" font-size="10" fill="#8a857c" text-anchor="end">60,000</text>
<text x="798" y="266.0" font-size="10" fill="#8a857c">5.8%</text>
<line x1="70" y1="194.7" x2="790" y2="194.7" stroke="#e3e0d8" stroke-width="1"/>
<text x="62" y="197.7" font-size="10" fill="#8a857c" text-anchor="end">80,000</text>
<text x="798" y="197.7" font-size="10" fill="#8a857c">7.8%</text>
<line x1="70" y1="126.3" x2="790" y2="126.3" stroke="#e3e0d8" stroke-width="1"/>
<text x="62" y="129.3" font-size="10" fill="#8a857c" text-anchor="end">100,000</text>
<text x="798" y="129.3" font-size="10" fill="#8a857c">9.7%</text>
<line x1="70" y1="58.0" x2="790" y2="58.0" stroke="#e3e0d8" stroke-width="1"/>
<text x="62" y="61.0" font-size="10" fill="#8a857c" text-anchor="end">120,000</text>
<text x="798" y="61.0" font-size="10" fill="#8a857c">11.7%</text>
<polygon points="70.0,467.3 74.7,467.3 79.4,467.3 84.1,467.3 88.8,467.3 93.5,464.5 98.2,461.6 102.9,461.6 107.6,457.7 112.4,457.6 117.1,457.6 121.8,458.4 126.5,457.6 131.2,457.6 135.9,457.6 140.6,457.6 145.3,457.6 150.0,457.6 154.7,457.6 159.4,455.4 164.1,455.4 168.8,456.1 173.5,455.8 178.2,455.3 182.9,455.7 187.6,455.8 192.4,455.8 197.1,455.8 201.8,455.7 206.5,455.7 211.2,455.9 215.9,456.0 220.6,456.0 225.3,455.8 230.0,455.8 234.7,455.8 239.4,455.3 244.1,455.6 248.8,455.7 253.5,455.6 258.2,455.6 262.9,455.3 267.6,455.9 272.4,455.8 277.1,455.6 281.8,455.2 286.5,455.2 291.2,455.2 295.9,455.2 300.6,455.3 305.3,455.3 310.0,455.3 314.7,455.3 319.4,455.2 324.1,454.4 328.8,454.7 333.5,455.6 338.2,455.6 342.9,455.4 347.6,455.4 352.4,455.4 357.1,455.4 361.8,455.4 366.5,455.4 371.2,455.4 375.9,455.4 380.6,455.4 385.3,455.4 390.0,455.9 394.7,455.4 399.4,455.4 404.1,455.4 408.8,455.4 413.5,455.4 418.2,455.4 422.9,455.4 427.6,455.4 432.4,455.4 437.1,455.4 441.8,455.4 446.5,455.4 451.2,455.4 455.9,455.4 460.6,455.4 465.3,455.4 470.0,455.4 474.7,455.4 479.4,455.4 484.1,455.4 488.8,455.4 493.5,455.4 498.2,455.4 502.9,455.4 507.6,455.4 512.4,455.4 517.1,455.4 521.8,455.4 526.5,455.4 531.2,455.4 535.9,455.4 540.6,455.4 545.3,455.4 550.0,455.4 554.7,455.4 559.4,455.4 564.1,455.4 568.8,455.4 573.5,455.4 578.2,455.4 582.9,455.4 587.6,455.4 592.4,455.4 597.1,455.4 601.8,455.4 606.5,455.4 611.2,455.4 615.9,455.4 620.6,455.4 625.3,455.4 630.0,455.4 634.7,455.4 639.4,455.4 644.1,455.4 648.8,455.4 653.5,455.4 658.2,455.4 662.9,455.4 667.6,455.4 672.4,455.4 677.1,455.4 681.8,455.4 686.5,455.4 691.2,455.4 695.9,455.4 700.6,455.4 705.3,455.4 710.0,455.4 714.7,455.4 719.4,455.4 724.1,455.4 728.8,455.4 733.5,455.4 738.2,455.4 742.9,455.4 747.6,455.4 752.4,455.4 757.1,455.4 761.8,455.4 766.5,455.4 771.2,455.4 775.9,455.4 780.6,455.4 785.3,455.4 790.0,455.4 790.0,468.0 785.3,468.0 780.6,468.0 775.9,468.0 771.2,468.0 766.5,468.0 761.8,468.0 757.1,468.0 752.4,468.0 747.6,468.0 742.9,468.0 738.2,468.0 733.5,468.0 728.8,468.0 724.1,468.0 719.4,468.0 714.7,468.0 710.0,468.0 705.3,468.0 700.6,468.0 695.9,468.0 691.2,468.0 686.5,468.0 681.8,468.0 677.1,468.0 672.4,468.0 667.6,468.0 662.9,468.0 658.2,468.0 653.5,468.0 648.8,468.0 644.1,468.0 639.4,468.0 634.7,468.0 630.0,468.0 625.3,468.0 620.6,468.0 615.9,468.0 611.2,468.0 606.5,468.0 601.8,468.0 597.1,468.0 592.4,468.0 587.6,468.0 582.9,468.0 578.2,468.0 573.5,468.0 568.8,468.0 564.1,468.0 559.4,468.0 554.7,468.0 550.0,468.0 545.3,468.0 540.6,468.0 535.9,468.0 531.2,468.0 526.5,468.0 521.8,468.0 517.1,468.0 512.4,468.0 507.6,468.0 502.9,468.0 498.2,468.0 493.5,468.0 488.8,468.0 484.1,468.0 479.4,468.0 474.7,468.0 470.0,468.0 465.3,468.0 460.6,468.0 455.9,468.0 451.2,468.0 446.5,468.0 441.8,468.0 437.1,468.0 432.4,468.0 427.6,468.0 422.9,468.0 418.2,468.0 413.5,468.0 408.8,468.0 404.1,468.0 399.4,468.0 394.7,468.0 390.0,468.0 385.3,468.0 380.6,468.0 375.9,468.0 371.2,468.0 366.5,468.0 361.8,468.0 357.1,468.0 352.4,468.0 347.6,468.0 342.9,468.0 338.2,468.0 333.5,468.0 328.8,468.0 324.1,468.0 319.4,468.0 314.7,468.0 310.0,468.0 305.3,468.0 300.6,468.0 295.9,468.0 291.2,468.0 286.5,468.0 281.8,468.0 277.1,468.0 272.4,468.0 267.6,468.0 262.9,468.0 258.2,468.0 253.5,468.0 248.8,468.0 244.1,468.0 239.4,468.0 234.7,468.0 230.0,468.0 225.3,468.0 220.6,468.0 215.9,468.0 211.2,468.0 206.5,468.0 201.8,468.0 197.1,468.0 192.4,468.0 187.6,468.0 182.9,468.0 178.2,468.0 173.5,468.0 168.8,468.0 164.1,468.0 159.4,468.0 154.7,468.0 150.0,468.0 145.3,468.0 140.6,468.0 135.9,468.0 131.2,468.0 126.5,468.0 121.8,468.0 117.1,468.0 112.4,468.0 107.6,468.0 102.9,468.0 98.2,468.0 93.5,468.0 88.8,468.0 84.1,468.0 79.4,468.0 74.7,468.0 70.0,468.0" fill="#4e79a7" fill-opacity="0.92" stroke="#4e79a7" stroke-width="0.6"/>
<polygon points="70.0,467.3 74.7,467.3 79.4,467.3 84.1,466.7 88.8,466.7 93.5,463.9 98.2,461.0 102.9,461.0 107.6,457.1 112.4,457.0 117.1,457.0 121.8,457.8 126.5,457.0 131.2,457.0 135.9,457.0 140.6,457.0 145.3,457.0 150.0,457.0 154.7,457.0 159.4,454.7 164.1,454.7 168.8,455.5 173.5,455.2 178.2,454.7 182.9,455.1 187.6,455.2 192.4,455.2 197.1,455.2 201.8,455.1 206.5,455.1 211.2,455.3 215.9,455.4 220.6,455.5 225.3,455.2 230.0,455.2 234.7,455.2 239.4,454.7 244.1,455.0 248.8,455.1 253.5,455.0 258.2,455.0 262.9,454.7 267.6,455.3 272.4,455.2 277.1,455.0 281.8,454.6 286.5,454.6 291.2,454.6 295.9,454.6 300.6,454.7 305.3,454.7 310.0,454.7 314.7,454.7 319.4,454.6 324.1,453.7 328.8,454.0 333.5,455.0 338.2,455.0 342.9,454.7 347.6,454.7 352.4,454.7 357.1,454.7 361.8,454.7 366.5,454.7 371.2,454.7 375.9,454.7 380.6,454.7 385.3,454.7 390.0,455.3 394.7,454.7 399.4,454.7 404.1,454.7 408.8,454.7 413.5,454.7 418.2,454.7 422.9,454.7 427.6,454.7 432.4,454.7 437.1,454.7 441.8,454.7 446.5,454.7 451.2,454.7 455.9,454.7 460.6,454.7 465.3,454.7 470.0,454.7 474.7,454.7 479.4,454.7 484.1,454.7 488.8,454.7 493.5,454.7 498.2,454.7 502.9,454.7 507.6,454.7 512.4,454.7 517.1,454.7 521.8,454.7 526.5,454.7 531.2,454.7 535.9,454.7 540.6,454.7 545.3,454.7 550.0,454.7 554.7,454.7 559.4,454.7 564.1,454.7 568.8,454.7 573.5,454.7 578.2,454.7 582.9,454.7 587.6,454.7 592.4,454.7 597.1,454.7 601.8,454.7 606.5,454.7 611.2,454.7 615.9,454.7 620.6,454.7 625.3,454.7 630.0,454.7 634.7,454.7 639.4,454.7 644.1,454.7 648.8,454.7 653.5,454.7 658.2,454.7 662.9,454.7 667.6,454.7 672.4,454.7 677.1,454.7 681.8,454.7 686.5,454.7 691.2,454.7 695.9,454.7 700.6,454.7 705.3,454.7 710.0,454.7 714.7,454.7 719.4,454.7 724.1,454.7 728.8,454.7 733.5,454.7 738.2,454.7 742.9,454.7 747.6,454.7 752.4,454.7 757.1,454.7 761.8,454.7 766.5,454.7 771.2,454.7 775.9,454.7 780.6,454.7 785.3,454.7 790.0,454.7 790.0,455.4 785.3,455.4 780.6,455.4 775.9,455.4 771.2,455.4 766.5,455.4 761.8,455.4 757.1,455.4 752.4,455.4 747.6,455.4 742.9,455.4 738.2,455.4 733.5,455.4 728.8,455.4 724.1,455.4 719.4,455.4 714.7,455.4 710.0,455.4 705.3,455.4 700.6,455.4 695.9,455.4 691.2,455.4 686.5,455.4 681.8,455.4 677.1,455.4 672.4,455.4 667.6,455.4 662.9,455.4 658.2,455.4 653.5,455.4 648.8,455.4 644.1,455.4 639.4,455.4 634.7,455.4 630.0,455.4 625.3,455.4 620.6,455.4 615.9,455.4 611.2,455.4 606.5,455.4 601.8,455.4 597.1,455.4 592.4,455.4 587.6,455.4 582.9,455.4 578.2,455.4 573.5,455.4 568.8,455.4 564.1,455.4 559.4,455.4 554.7,455.4 550.0,455.4 545.3,455.4 540.6,455.4 535.9,455.4 531.2,455.4 526.5,455.4 521.8,455.4 517.1,455.4 512.4,455.4 507.6,455.4 502.9,455.4 498.2,455.4 493.5,455.4 488.8,455.4 484.1,455.4 479.4,455.4 474.7,455.4 470.0,455.4 465.3,455.4 460.6,455.4 455.9,455.4 451.2,455.4 446.5,455.4 441.8,455.4 437.1,455.4 432.4,455.4 427.6,455.4 422.9,455.4 418.2,455.4 413.5,455.4 408.8,455.4 404.1,455.4 399.4,455.4 394.7,455.4 390.0,455.9 385.3,455.4 380.6,455.4 375.9,455.4 371.2,455.4 366.5,455.4 361.8,455.4 357.1,455.4 352.4,455.4 347.6,455.4 342.9,455.4 338.2,455.6 333.5,455.6 328.8,454.7 324.1,454.4 319.4,455.2 314.7,455.3 310.0,455.3 305.3,455.3 300.6,455.3 295.9,455.2 291.2,455.2 286.5,455.2 281.8,455.2 277.1,455.6 272.4,455.8 267.6,455.9 262.9,455.3 258.2,455.6 253.5,455.6 248.8,455.7 244.1,455.6 239.4,455.3 234.7,455.8 230.0,455.8 225.3,455.8 220.6,456.0 215.9,456.0 211.2,455.9 206.5,455.7 201.8,455.7 197.1,455.8 192.4,455.8 187.6,455.8 182.9,455.7 178.2,455.3 173.5,455.8 168.8,456.1 164.1,455.4 159.4,455.4 154.7,457.6 150.0,457.6 145.3,457.6 140.6,457.6 135.9,457.6 131.2,457.6 126.5,457.6 121.8,458.4 117.1,457.6 112.4,457.6 107.6,457.7 102.9,461.6 98.2,461.6 93.5,464.5 88.8,467.3 84.1,467.3 79.4,467.3 74.7,467.3 70.0,467.3" fill="#f28e2b" fill-opacity="0.92" stroke="#f28e2b" stroke-width="0.6"/>
<polygon points="70.0,467.3 74.7,467.3 79.4,467.3 84.1,466.7 88.8,466.0 93.5,463.3 98.2,460.4 102.9,460.4 107.6,456.5 112.4,456.4 117.1,456.4 121.8,457.2 126.5,456.4 131.2,456.4 135.9,456.4 140.6,456.4 145.3,456.4 150.0,456.4 154.7,456.4 159.4,454.1 164.1,454.1 168.8,454.9 173.5,454.6 178.2,454.1 182.9,454.5 187.6,454.6 192.4,454.6 197.1,454.6 201.8,454.5 206.5,454.5 211.2,454.7 215.9,454.8 220.6,454.9 225.3,454.6 230.0,454.6 234.7,454.6 239.4,454.1 244.1,454.4 248.8,454.5 253.5,454.4 258.2,454.4 262.9,454.0 267.6,454.7 272.4,454.6 277.1,454.4 281.8,454.0 286.5,453.9 291.2,453.9 295.9,454.0 300.6,454.0 305.3,454.1 310.0,454.0 314.7,454.0 319.4,454.0 324.1,453.0 328.8,453.4 333.5,454.4 338.2,454.4 342.9,454.1 347.6,454.1 352.4,454.1 357.1,454.1 361.8,454.1 366.5,454.1 371.2,454.1 375.9,454.1 380.6,454.1 385.3,454.1 390.0,454.7 394.7,454.1 399.4,454.1 404.1,454.1 408.8,454.1 413.5,454.1 418.2,454.1 422.9,454.1 427.6,454.1 432.4,454.1 437.1,454.1 441.8,454.1 446.5,454.1 451.2,454.1 455.9,454.1 460.6,454.1 465.3,454.1 470.0,454.1 474.7,454.1 479.4,454.1 484.1,454.1 488.8,454.1 493.5,454.1 498.2,454.1 502.9,454.1 507.6,454.1 512.4,454.1 517.1,454.1 521.8,454.1 526.5,454.1 531.2,454.1 535.9,454.1 540.6,454.1 545.3,454.1 550.0,454.1 554.7,454.1 559.4,454.1 564.1,454.1 568.8,454.1 573.5,454.1 578.2,454.1 582.9,454.1 587.6,454.1 592.4,454.1 597.1,454.1 601.8,454.1 606.5,454.1 611.2,454.1 615.9,454.1 620.6,454.1 625.3,454.1 630.0,454.1 634.7,454.1 639.4,454.1 644.1,454.1 648.8,454.1 653.5,454.1 658.2,454.1 662.9,454.1 667.6,454.1 672.4,454.1 677.1,454.1 681.8,454.1 686.5,454.1 691.2,454.1 695.9,454.1 700.6,454.1 705.3,454.1 710.0,454.1 714.7,454.1 719.4,454.1 724.1,454.1 728.8,454.1 733.5,454.1 738.2,454.1 742.9,454.1 747.6,454.1 752.4,454.1 757.1,454.1 761.8,454.1 766.5,454.1 771.2,454.1 775.9,454.1 780.6,454.1 785.3,454.1 790.0,454.1 790.0,454.7 785.3,454.7 780.6,454.7 775.9,454.7 771.2,454.7 766.5,454.7 761.8,454.7 757.1,454.7 752.4,454.7 747.6,454.7 742.9,454.7 738.2,454.7 733.5,454.7 728.8,454.7 724.1,454.7 719.4,454.7 714.7,454.7 710.0,454.7 705.3,454.7 700.6,454.7 695.9,454.7 691.2,454.7 686.5,454.7 681.8,454.7 677.1,454.7 672.4,454.7 667.6,454.7 662.9,454.7 658.2,454.7 653.5,454.7 648.8,454.7 644.1,454.7 639.4,454.7 634.7,454.7 630.0,454.7 625.3,454.7 620.6,454.7 615.9,454.7 611.2,454.7 606.5,454.7 601.8,454.7 597.1,454.7 592.4,454.7 587.6,454.7 582.9,454.7 578.2,454.7 573.5,454.7 568.8,454.7 564.1,454.7 559.4,454.7 554.7,454.7 550.0,454.7 545.3,454.7 540.6,454.7 535.9,454.7 531.2,454.7 526.5,454.7 521.8,454.7 517.1,454.7 512.4,454.7 507.6,454.7 502.9,454.7 498.2,454.7 493.5,454.7 488.8,454.7 484.1,454.7 479.4,454.7 474.7,454.7 470.0,454.7 465.3,454.7 460.6,454.7 455.9,454.7 451.2,454.7 446.5,454.7 441.8,454.7 437.1,454.7 432.4,454.7 427.6,454.7 422.9,454.7 418.2,454.7 413.5,454.7 408.8,454.7 404.1,454.7 399.4,454.7 394.7,454.7 390.0,455.3 385.3,454.7 380.6,454.7 375.9,454.7 371.2,454.7 366.5,454.7 361.8,454.7 357.1,454.7 352.4,454.7 347.6,454.7 342.9,454.7 338.2,455.0 333.5,455.0 328.8,454.0 324.1,453.7 319.4,454.6 314.7,454.7 310.0,454.7 305.3,454.7 300.6,454.7 295.9,454.6 291.2,454.6 286.5,454.6 281.8,454.6 277.1,455.0 272.4,455.2 267.6,455.3 262.9,454.7 258.2,455.0 253.5,455.0 248.8,455.1 244.1,455.0 239.4,454.7 234.7,455.2 230.0,455.2 225.3,455.2 220.6,455.5 215.9,455.4 211.2,455.3 206.5,455.1 201.8,455.1 197.1,455.2 192.4,455.2 187.6,455.2 182.9,455.1 178.2,454.7 173.5,455.2 168.8,455.5 164.1,454.7 159.4,454.7 154.7,457.0 150.0,457.0 145.3,457.0 140.6,457.0 135.9,457.0 131.2,457.0 126.5,457.0 121.8,457.8 117.1,457.0 112.4,457.0 107.6,457.1 102.9,461.0 98.2,461.0 93.5,463.9 88.8,466.7 84.1,466.7 79.4,467.3 74.7,467.3 70.0,467.3" fill="#e15759" fill-opacity="0.92" stroke="#e15759" stroke-width="0.6"/>
<polygon points="70.0,467.3 74.7,467.3 79.4,467.3 84.1,466.7 88.8,465.6 93.5,462.8 98.2,459.9 102.9,459.9 107.6,456.0 112.4,455.9 117.1,455.9 121.8,456.8 126.5,455.9 131.2,455.9 135.9,455.9 140.6,455.9 145.3,455.9 150.0,455.9 154.7,455.9 159.4,453.7 164.1,453.7 168.8,454.5 173.5,454.2 178.2,453.6 182.9,454.1 187.6,454.2 192.4,454.1 197.1,454.2 201.8,454.0 206.5,454.1 211.2,454.3 215.9,454.4 220.6,454.4 225.3,454.2 230.0,454.2 234.7,454.1 239.4,453.6 244.1,453.9 248.8,454.1 253.5,454.0 258.2,454.0 262.9,453.6 267.6,454.3 272.4,454.1 277.1,454.0 281.8,453.5 286.5,453.5 291.2,453.5 295.9,453.5 300.6,453.6 305.3,453.6 310.0,453.6 314.7,453.6 319.4,453.5 324.1,452.5 328.8,452.9 333.5,453.9 338.2,453.9 342.9,453.7 347.6,453.7 352.4,453.7 357.1,453.7 361.8,453.7 366.5,453.7 371.2,453.7 375.9,453.7 380.6,453.7 385.3,453.7 390.0,454.3 394.7,453.7 399.4,453.7 404.1,453.7 408.8,453.7 413.5,453.7 418.2,453.7 422.9,453.7 427.6,453.7 432.4,453.7 437.1,453.7 441.8,453.7 446.5,453.7 451.2,453.7 455.9,453.7 460.6,453.7 465.3,453.7 470.0,453.7 474.7,453.7 479.4,453.7 484.1,453.7 488.8,453.7 493.5,453.7 498.2,453.7 502.9,453.7 507.6,453.7 512.4,453.7 517.1,453.7 521.8,453.7 526.5,453.7 531.2,453.7 535.9,453.7 540.6,453.7 545.3,453.7 550.0,453.7 554.7,453.7 559.4,453.7 564.1,453.7 568.8,453.7 573.5,453.7 578.2,453.7 582.9,453.7 587.6,453.7 592.4,453.7 597.1,453.7 601.8,453.7 606.5,453.7 611.2,453.7 615.9,453.7 620.6,453.7 625.3,453.7 630.0,453.7 634.7,453.7 639.4,453.7 644.1,453.7 648.8,453.7 653.5,453.7 658.2,453.7 662.9,453.7 667.6,453.7 672.4,453.7 677.1,453.7 681.8,453.7 686.5,453.7 691.2,453.7 695.9,453.7 700.6,453.7 705.3,453.7 710.0,453.7 714.7,453.7 719.4,453.7 724.1,453.7 728.8,453.7 733.5,453.7 738.2,453.7 742.9,453.7 747.6,453.7 752.4,453.7 757.1,453.7 761.8,453.7 766.5,453.7 771.2,453.7 775.9,453.7 780.6,453.7 785.3,453.7 790.0,453.7 790.0,454.1 785.3,454.1 780.6,454.1 775.9,454.1 771.2,454.1 766.5,454.1 761.8,454.1 757.1,454.1 752.4,454.1 747.6,454.1 742.9,454.1 738.2,454.1 733.5,454.1 728.8,454.1 724.1,454.1 719.4,454.1 714.7,454.1 710.0,454.1 705.3,454.1 700.6,454.1 695.9,454.1 691.2,454.1 686.5,454.1 681.8,454.1 677.1,454.1 672.4,454.1 667.6,454.1 662.9,454.1 658.2,454.1 653.5,454.1 648.8,454.1 644.1,454.1 639.4,454.1 634.7,454.1 630.0,454.1 625.3,454.1 620.6,454.1 615.9,454.1 611.2,454.1 606.5,454.1 601.8,454.1 597.1,454.1 592.4,454.1 587.6,454.1 582.9,454.1 578.2,454.1 573.5,454.1 568.8,454.1 564.1,454.1 559.4,454.1 554.7,454.1 550.0,454.1 545.3,454.1 540.6,454.1 535.9,454.1 531.2,454.1 526.5,454.1 521.8,454.1 517.1,454.1 512.4,454.1 507.6,454.1 502.9,454.1 498.2,454.1 493.5,454.1 488.8,454.1 484.1,454.1 479.4,454.1 474.7,454.1 470.0,454.1 465.3,454.1 460.6,454.1 455.9,454.1 451.2,454.1 446.5,454.1 441.8,454.1 437.1,454.1 432.4,454.1 427.6,454.1 422.9,454.1 418.2,454.1 413.5,454.1 408.8,454.1 404.1,454.1 399.4,454.1 394.7,454.1 390.0,454.7 385.3,454.1 380.6,454.1 375.9,454.1 371.2,454.1 366.5,454.1 361.8,454.1 357.1,454.1 352.4,454.1 347.6,454.1 342.9,454.1 338.2,454.4 333.5,454.4 328.8,453.4 324.1,453.0 319.4,454.0 314.7,454.0 310.0,454.0 305.3,454.1 300.6,454.0 295.9,454.0 291.2,453.9 286.5,453.9 281.8,454.0 277.1,454.4 272.4,454.6 267.6,454.7 262.9,454.0 258.2,454.4 253.5,454.4 248.8,454.5 244.1,454.4 239.4,454.1 234.7,454.6 230.0,454.6 225.3,454.6 220.6,454.9 215.9,454.8 211.2,454.7 206.5,454.5 201.8,454.5 197.1,454.6 192.4,454.6 187.6,454.6 182.9,454.5 178.2,454.1 173.5,454.6 168.8,454.9 164.1,454.1 159.4,454.1 154.7,456.4 150.0,456.4 145.3,456.4 140.6,456.4 135.9,456.4 131.2,456.4 126.5,456.4 121.8,457.2 117.1,456.4 112.4,456.4 107.6,456.5 102.9,460.4 98.2,460.4 93.5,463.3 88.8,466.0 84.1,466.7 79.4,467.3 74.7,467.3 70.0,467.3" fill="#76b7b2" fill-opacity="0.92" stroke="#76b7b2" stroke-width="0.6"/>
<polygon points="70.0,467.3 74.7,467.3 79.4,467.3 84.1,466.2 88.8,465.1 93.5,462.4 98.2,459.4 102.9,459.4 107.6,455.6 112.4,455.4 117.1,455.4 121.8,456.3 126.5,455.4 131.2,455.4 135.9,455.4 140.6,455.4 145.3,455.4 150.0,455.4 154.7,455.4 159.4,453.2 164.1,453.2 168.8,454.1 173.5,453.7 178.2,453.2 182.9,453.6 187.6,453.7 192.4,453.7 197.1,453.7 201.8,453.6 206.5,453.6 211.2,453.8 215.9,453.9 220.6,454.0 225.3,453.7 230.0,453.7 234.7,453.7 239.4,453.2 244.1,453.5 248.8,453.6 253.5,453.5 258.2,453.5 262.9,453.1 267.6,453.8 272.4,453.7 277.1,453.5 281.8,453.0 286.5,453.0 291.2,453.0 295.9,453.0 300.6,453.1 305.3,453.1 310.0,453.1 314.7,453.1 319.4,453.0 324.1,452.0 328.8,452.4 333.5,453.5 338.2,453.4 342.9,453.2 347.6,453.2 352.4,453.2 357.1,453.2 361.8,453.2 366.5,453.2 371.2,453.2 375.9,453.2 380.6,453.2 385.3,453.2 390.0,453.8 394.7,453.2 399.4,453.2 404.1,453.2 408.8,453.2 413.5,453.2 418.2,453.2 422.9,453.2 427.6,453.2 432.4,453.2 437.1,453.2 441.8,453.2 446.5,453.2 451.2,453.2 455.9,453.2 460.6,453.2 465.3,453.2 470.0,453.2 474.7,453.2 479.4,453.2 484.1,453.2 488.8,453.2 493.5,453.2 498.2,453.2 502.9,453.2 507.6,453.2 512.4,453.2 517.1,453.2 521.8,453.2 526.5,453.2 531.2,453.2 535.9,453.2 540.6,453.2 545.3,453.2 550.0,453.2 554.7,453.2 559.4,453.2 564.1,453.2 568.8,453.2 573.5,453.2 578.2,453.2 582.9,453.2 587.6,453.2 592.4,453.2 597.1,453.2 601.8,453.2 606.5,453.2 611.2,453.2 615.9,453.2 620.6,453.2 625.3,453.2 630.0,453.2 634.7,453.2 639.4,453.2 644.1,453.2 648.8,453.2 653.5,453.2 658.2,453.2 662.9,453.2 667.6,453.2 672.4,453.2 677.1,453.2 681.8,453.2 686.5,453.2 691.2,453.2 695.9,453.2 700.6,453.2 705.3,453.2 710.0,453.2 714.7,453.2 719.4,453.2 724.1,453.2 728.8,453.2 733.5,453.2 738.2,453.2 742.9,453.2 747.6,453.2 752.4,453.2 757.1,453.2 761.8,453.2 766.5,453.2 771.2,453.2 775.9,453.2 780.6,453.2 785.3,453.2 790.0,453.2 790.0,453.7 785.3,453.7 780.6,453.7 775.9,453.7 771.2,453.7 766.5,453.7 761.8,453.7 757.1,453.7 752.4,453.7 747.6,453.7 742.9,453.7 738.2,453.7 733.5,453.7 728.8,453.7 724.1,453.7 719.4,453.7 714.7,453.7 710.0,453.7 705.3,453.7 700.6,453.7 695.9,453.7 691.2,453.7 686.5,453.7 681.8,453.7 677.1,453.7 672.4,453.7 667.6,453.7 662.9,453.7 658.2,453.7 653.5,453.7 648.8,453.7 644.1,453.7 639.4,453.7 634.7,453.7 630.0,453.7 625.3,453.7 620.6,453.7 615.9,453.7 611.2,453.7 606.5,453.7 601.8,453.7 597.1,453.7 592.4,453.7 587.6,453.7 582.9,453.7 578.2,453.7 573.5,453.7 568.8,453.7 564.1,453.7 559.4,453.7 554.7,453.7 550.0,453.7 545.3,453.7 540.6,453.7 535.9,453.7 531.2,453.7 526.5,453.7 521.8,453.7 517.1,453.7 512.4,453.7 507.6,453.7 502.9,453.7 498.2,453.7 493.5,453.7 488.8,453.7 484.1,453.7 479.4,453.7 474.7,453.7 470.0,453.7 465.3,453.7 460.6,453.7 455.9,453.7 451.2,453.7 446.5,453.7 441.8,453.7 437.1,453.7 432.4,453.7 427.6,453.7 422.9,453.7 418.2,453.7 413.5,453.7 408.8,453.7 404.1,453.7 399.4,453.7 394.7,453.7 390.0,454.3 385.3,453.7 380.6,453.7 375.9,453.7 371.2,453.7 366.5,453.7 361.8,453.7 357.1,453.7 352.4,453.7 347.6,453.7 342.9,453.7 338.2,453.9 333.5,453.9 328.8,452.9 324.1,452.5 319.4,453.5 314.7,453.6 310.0,453.6 305.3,453.6 300.6,453.6 295.9,453.5 291.2,453.5 286.5,453.5 281.8,453.5 277.1,454.0 272.4,454.1 267.6,454.3 262.9,453.6 258.2,454.0 253.5,454.0 248.8,454.1 244.1,453.9 239.4,453.6 234.7,454.1 230.0,454.2 225.3,454.2 220.6,454.4 215.9,454.4 211.2,454.3 206.5,454.1 201.8,454.0 197.1,454.2 192.4,454.1 187.6,454.2 182.9,454.1 178.2,453.6 173.5,454.2 168.8,454.5 164.1,453.7 159.4,453.7 154.7,455.9 150.0,455.9 145.3,455.9 140.6,455.9 135.9,455.9 131.2,455.9 126.5,455.9 121.8,456.8 117.1,455.9 112.4,455.9 107.6,456.0 102.9,459.9 98.2,459.9 93.5,462.8 88.8,465.6 84.1,466.7 79.4,467.3 74.7,467.3 70.0,467.3" fill="#59a14f" fill-opacity="0.92" stroke="#59a14f" stroke-width="0.6"/>
<polygon points="70.0,466.7 74.7,466.7 79.4,466.7 84.1,465.7 88.8,464.5 93.5,461.8 98.2,458.8 102.9,458.8 107.6,455.0 112.4,454.9 117.1,454.3 121.8,455.8 126.5,454.3 131.2,454.3 135.9,452.3 140.6,452.0 145.3,451.3 150.0,450.5 154.7,450.5 159.4,448.3 164.1,448.3 168.8,447.2 173.5,445.5 178.2,444.2 182.9,442.8 187.6,442.6 192.4,442.2 197.1,441.8 201.8,440.4 206.5,440.1 211.2,438.7 215.9,438.7 220.6,438.5 225.3,437.8 230.0,437.8 234.7,437.0 239.4,434.2 244.1,432.5 248.8,432.8 253.5,432.2 258.2,432.2 262.9,430.7 267.6,408.1 272.4,406.3 277.1,405.1 281.8,402.2 286.5,402.1 291.2,401.0 295.9,400.1 300.6,399.4 305.3,399.4 310.0,398.2 314.7,398.3 319.4,397.8 324.1,392.2 328.8,394.1 333.5,393.6 338.2,393.5 342.9,392.3 347.6,392.3 352.4,392.3 357.1,390.6 361.8,389.7 366.5,389.2 371.2,389.2 375.9,387.9 380.6,387.9 385.3,387.9 390.0,388.5 394.7,387.9 399.4,386.9 404.1,386.9 408.8,388.1 413.5,386.9 418.2,386.7 422.9,386.4 427.6,386.4 432.4,386.4 437.1,386.4 441.8,385.7 446.5,385.5 451.2,385.5 455.9,385.5 460.6,385.5 465.3,385.5 470.0,385.0 474.7,385.0 479.4,385.0 484.1,385.0 488.8,385.0 493.5,385.0 498.2,385.0 502.9,385.0 507.6,385.0 512.4,385.0 517.1,385.0 521.8,385.0 526.5,385.0 531.2,385.0 535.9,385.0 540.6,385.0 545.3,385.0 550.0,385.0 554.7,385.0 559.4,385.0 564.1,385.0 568.8,385.0 573.5,385.0 578.2,385.0 582.9,385.0 587.6,385.0 592.4,385.0 597.1,385.0 601.8,385.9 606.5,385.0 611.2,385.0 615.9,385.0 620.6,385.0 625.3,385.0 630.0,385.0 634.7,385.0 639.4,385.0 644.1,385.0 648.8,385.0 653.5,385.0 658.2,385.0 662.9,385.0 667.6,385.0 672.4,385.0 677.1,385.0 681.8,385.0 686.5,385.0 691.2,385.0 695.9,385.0 700.6,385.0 705.3,385.0 710.0,385.0 714.7,385.0 719.4,385.0 724.1,385.0 728.8,384.5 733.5,383.8 738.2,383.8 742.9,383.4 747.6,383.4 752.4,383.4 757.1,383.4 761.8,383.4 766.5,383.4 771.2,383.4 775.9,383.4 780.6,383.4 785.3,383.4 790.0,383.4 790.0,453.2 785.3,453.2 780.6,453.2 775.9,453.2 771.2,453.2 766.5,453.2 761.8,453.2 757.1,453.2 752.4,453.2 747.6,453.2 742.9,453.2 738.2,453.2 733.5,453.2 728.8,453.2 724.1,453.2 719.4,453.2 714.7,453.2 710.0,453.2 705.3,453.2 700.6,453.2 695.9,453.2 691.2,453.2 686.5,453.2 681.8,453.2 677.1,453.2 672.4,453.2 667.6,453.2 662.9,453.2 658.2,453.2 653.5,453.2 648.8,453.2 644.1,453.2 639.4,453.2 634.7,453.2 630.0,453.2 625.3,453.2 620.6,453.2 615.9,453.2 611.2,453.2 606.5,453.2 601.8,453.2 597.1,453.2 592.4,453.2 587.6,453.2 582.9,453.2 578.2,453.2 573.5,453.2 568.8,453.2 564.1,453.2 559.4,453.2 554.7,453.2 550.0,453.2 545.3,453.2 540.6,453.2 535.9,453.2 531.2,453.2 526.5,453.2 521.8,453.2 517.1,453.2 512.4,453.2 507.6,453.2 502.9,453.2 498.2,453.2 493.5,453.2 488.8,453.2 484.1,453.2 479.4,453.2 474.7,453.2 470.0,453.2 465.3,453.2 460.6,453.2 455.9,453.2 451.2,453.2 446.5,453.2 441.8,453.2 437.1,453.2 432.4,453.2 427.6,453.2 422.9,453.2 418.2,453.2 413.5,453.2 408.8,453.2 404.1,453.2 399.4,453.2 394.7,453.2 390.0,453.8 385.3,453.2 380.6,453.2 375.9,453.2 371.2,453.2 366.5,453.2 361.8,453.2 357.1,453.2 352.4,453.2 347.6,453.2 342.9,453.2 338.2,453.4 333.5,453.5 328.8,452.4 324.1,452.0 319.4,453.0 314.7,453.1 310.0,453.1 305.3,453.1 300.6,453.1 295.9,453.0 291.2,453.0 286.5,453.0 281.8,453.0 277.1,453.5 272.4,453.7 267.6,453.8 262.9,453.1 258.2,453.5 253.5,453.5 248.8,453.6 244.1,453.5 239.4,453.2 234.7,453.7 230.0,453.7 225.3,453.7 220.6,454.0 215.9,453.9 211.2,453.8 206.5,453.6 201.8,453.6 197.1,453.7 192.4,453.7 187.6,453.7 182.9,453.6 178.2,453.2 173.5,453.7 168.8,454.1 164.1,453.2 159.4,453.2 154.7,455.4 150.0,455.4 145.3,455.4 140.6,455.4 135.9,455.4 131.2,455.4 126.5,455.4 121.8,456.3 117.1,455.4 112.4,455.4 107.6,455.6 102.9,459.4 98.2,459.4 93.5,462.4 88.8,465.1 84.1,466.2 79.4,467.3 74.7,467.3 70.0,467.3" fill="#edc948" fill-opacity="0.92" stroke="#edc948" stroke-width="0.6"/>
<polygon points="70.0,466.1 74.7,466.1 79.4,466.1 84.1,465.1 88.8,464.0 93.5,461.2 98.2,458.3 102.9,458.3 107.6,454.4 112.4,454.3 117.1,453.7 121.8,455.2 126.5,453.7 131.2,453.7 135.9,451.7 140.6,451.4 145.3,450.7 150.0,449.9 154.7,449.9 159.4,447.7 164.1,447.7 168.8,446.6 173.5,444.9 178.2,443.6 182.9,442.3 187.6,442.0 192.4,441.6 197.1,441.3 201.8,439.8 206.5,439.5 211.2,438.2 215.9,438.2 220.6,438.0 225.3,437.3 230.0,437.3 234.7,436.4 239.4,433.6 244.1,432.0 248.8,432.3 253.5,431.6 258.2,431.6 262.9,430.1 267.6,407.5 272.4,405.8 277.1,404.6 281.8,401.7 286.5,401.5 291.2,400.4 295.9,399.5 300.6,398.8 305.3,398.9 310.0,397.6 314.7,397.7 319.4,397.2 324.1,391.6 328.8,393.5 333.5,393.1 338.2,393.0 342.9,391.7 347.6,391.7 352.4,391.7 357.1,390.0 361.8,389.2 366.5,388.6 371.2,388.6 375.9,387.3 380.6,387.3 385.3,387.3 390.0,387.9 394.7,387.3 399.4,383.9 404.1,383.0 408.8,384.2 413.5,383.0 418.2,382.8 422.9,382.6 427.6,382.6 432.4,382.6 437.1,382.6 441.8,381.9 446.5,381.7 451.2,381.7 455.9,381.7 460.6,381.7 465.3,380.1 470.0,379.6 474.7,378.9 479.4,374.7 484.1,373.1 488.8,372.8 493.5,372.4 498.2,370.3 502.9,369.8 507.6,368.3 512.4,368.0 517.1,367.4 521.8,367.4 526.5,367.2 531.2,366.3 535.9,365.0 540.6,363.8 545.3,363.3 550.0,361.9 554.7,361.4 559.4,358.8 564.1,358.4 568.8,357.2 573.5,356.6 578.2,356.2 582.9,354.3 587.6,351.1 592.4,350.6 597.1,347.9 601.8,345.4 606.5,343.0 611.2,341.1 615.9,338.9 620.6,336.7 625.3,335.4 630.0,333.3 634.7,333.1 639.4,332.2 644.1,331.9 648.8,330.6 653.5,327.3 658.2,325.9 662.9,324.4 667.6,324.4 672.4,322.8 677.1,321.6 681.8,321.6 686.5,320.6 691.2,320.6 695.9,320.6 700.6,320.6 705.3,320.6 710.0,320.6 714.7,319.3 719.4,319.3 724.1,319.3 728.8,318.7 733.5,318.0 738.2,318.0 742.9,317.7 747.6,317.7 752.4,317.7 757.1,317.7 761.8,317.7 766.5,317.7 771.2,317.7 775.9,317.7 780.6,317.7 785.3,317.7 790.0,317.7 790.0,383.4 785.3,383.4 780.6,383.4 775.9,383.4 771.2,383.4 766.5,383.4 761.8,383.4 757.1,383.4 752.4,383.4 747.6,383.4 742.9,383.4 738.2,383.8 733.5,383.8 728.8,384.5 724.1,385.0 719.4,385.0 714.7,385.0 710.0,385.0 705.3,385.0 700.6,385.0 695.9,385.0 691.2,385.0 686.5,385.0 681.8,385.0 677.1,385.0 672.4,385.0 667.6,385.0 662.9,385.0 658.2,385.0 653.5,385.0 648.8,385.0 644.1,385.0 639.4,385.0 634.7,385.0 630.0,385.0 625.3,385.0 620.6,385.0 615.9,385.0 611.2,385.0 606.5,385.0 601.8,385.9 597.1,385.0 592.4,385.0 587.6,385.0 582.9,385.0 578.2,385.0 573.5,385.0 568.8,385.0 564.1,385.0 559.4,385.0 554.7,385.0 550.0,385.0 545.3,385.0 540.6,385.0 535.9,385.0 531.2,385.0 526.5,385.0 521.8,385.0 517.1,385.0 512.4,385.0 507.6,385.0 502.9,385.0 498.2,385.0 493.5,385.0 488.8,385.0 484.1,385.0 479.4,385.0 474.7,385.0 470.0,385.0 465.3,385.5 460.6,385.5 455.9,385.5 451.2,385.5 446.5,385.5 441.8,385.7 437.1,386.4 432.4,386.4 427.6,386.4 422.9,386.4 418.2,386.7 413.5,386.9 408.8,388.1 404.1,386.9 399.4,386.9 394.7,387.9 390.0,388.5 385.3,387.9 380.6,387.9 375.9,387.9 371.2,389.2 366.5,389.2 361.8,389.7 357.1,390.6 352.4,392.3 347.6,392.3 342.9,392.3 338.2,393.5 333.5,393.6 328.8,394.1 324.1,392.2 319.4,397.8 314.7,398.3 310.0,398.2 305.3,399.4 300.6,399.4 295.9,400.1 291.2,401.0 286.5,402.1 281.8,402.2 277.1,405.1 272.4,406.3 267.6,408.1 262.9,430.7 258.2,432.2 253.5,432.2 248.8,432.8 244.1,432.5 239.4,434.2 234.7,437.0 230.0,437.8 225.3,437.8 220.6,438.5 215.9,438.7 211.2,438.7 206.5,440.1 201.8,440.4 197.1,441.8 192.4,442.2 187.6,442.6 182.9,442.8 178.2,444.2 173.5,445.5 168.8,447.2 164.1,448.3 159.4,448.3 154.7,450.5 150.0,450.5 145.3,451.3 140.6,452.0 135.9,452.3 131.2,454.3 126.5,454.3 121.8,455.8 117.1,454.3 112.4,454.9 107.6,455.0 102.9,458.8 98.2,458.8 93.5,461.8 88.8,464.5 84.1,465.7 79.4,466.7 74.7,466.7 70.0,466.7" fill="#b07aa1" fill-opacity="0.92" stroke="#b07aa1" stroke-width="0.6"/>
<polygon points="70.0,465.5 74.7,465.5 79.4,465.5 84.1,464.5 88.8,463.3 93.5,460.6 98.2,457.7 102.9,457.7 107.6,453.8 112.4,453.7 117.1,453.0 121.8,454.7 126.5,453.0 131.2,453.0 135.9,448.9 140.6,448.3 145.3,446.9 150.0,445.4 154.7,445.4 159.4,443.1 164.1,443.1 168.8,440.1 173.5,437.5 178.2,435.0 182.9,432.3 187.6,431.7 192.4,430.8 197.1,430.2 201.8,427.5 206.5,426.8 211.2,424.1 215.9,423.6 220.6,422.9 225.3,421.9 230.0,421.8 234.7,420.4 239.4,415.5 244.1,414.3 248.8,412.8 253.5,411.1 258.2,410.7 262.9,408.7 267.6,361.5 272.4,358.2 277.1,356.0 281.8,351.4 286.5,350.4 291.2,348.2 295.9,346.3 300.6,344.8 305.3,345.0 310.0,343.6 314.7,342.6 319.4,341.8 324.1,331.5 328.8,334.9 333.5,333.0 338.2,332.8 342.9,330.7 347.6,328.1 352.4,328.1 357.1,324.8 361.8,323.0 366.5,321.8 371.2,321.8 375.9,319.3 380.6,317.7 385.3,317.7 390.0,318.2 394.7,317.7 399.4,313.2 404.1,312.3 408.8,313.2 413.5,310.9 418.2,310.4 422.9,309.9 427.6,309.9 432.4,309.9 437.1,309.9 441.8,308.5 446.5,308.1 451.2,308.1 455.9,308.1 460.6,308.1 465.3,306.5 470.0,304.7 474.7,304.0 479.4,299.8 484.1,298.2 488.8,297.9 493.5,297.5 498.2,295.4 502.9,294.9 507.6,293.4 512.4,293.1 517.1,292.5 521.8,292.5 526.5,292.3 531.2,291.4 535.9,290.0 540.6,288.9 545.3,288.4 550.0,287.0 554.7,286.5 559.4,283.9 564.1,283.5 568.8,282.3 573.5,281.7 578.2,281.3 582.9,279.4 587.6,276.2 592.4,275.7 597.1,273.0 601.8,271.3 606.5,268.1 611.2,266.2 615.9,264.0 620.6,261.8 625.3,260.5 630.0,258.4 634.7,258.2 639.4,257.3 644.1,257.0 648.8,255.7 653.5,252.4 658.2,251.0 662.9,249.5 667.6,249.5 672.4,247.9 677.1,246.7 681.8,246.7 686.5,245.7 691.2,245.7 695.9,245.7 700.6,245.7 705.3,245.7 710.0,245.7 714.7,244.4 719.4,243.8 724.1,243.1 728.8,242.0 733.5,240.6 738.2,240.6 742.9,239.9 747.6,239.9 752.4,239.9 757.1,239.9 761.8,239.9 766.5,239.9 771.2,239.9 775.9,239.0 780.6,239.0 785.3,239.0 790.0,239.0 790.0,317.7 785.3,317.7 780.6,317.7 775.9,317.7 771.2,317.7 766.5,317.7 761.8,317.7 757.1,317.7 752.4,317.7 747.6,317.7 742.9,317.7 738.2,318.0 733.5,318.0 728.8,318.7 724.1,319.3 719.4,319.3 714.7,319.3 710.0,320.6 705.3,320.6 700.6,320.6 695.9,320.6 691.2,320.6 686.5,320.6 681.8,321.6 677.1,321.6 672.4,322.8 667.6,324.4 662.9,324.4 658.2,325.9 653.5,327.3 648.8,330.6 644.1,331.9 639.4,332.2 634.7,333.1 630.0,333.3 625.3,335.4 620.6,336.7 615.9,338.9 611.2,341.1 606.5,343.0 601.8,345.4 597.1,347.9 592.4,350.6 587.6,351.1 582.9,354.3 578.2,356.2 573.5,356.6 568.8,357.2 564.1,358.4 559.4,358.8 554.7,361.4 550.0,361.9 545.3,363.3 540.6,363.8 535.9,365.0 531.2,366.3 526.5,367.2 521.8,367.4 517.1,367.4 512.4,368.0 507.6,368.3 502.9,369.8 498.2,370.3 493.5,372.4 488.8,372.8 484.1,373.1 479.4,374.7 474.7,378.9 470.0,379.6 465.3,380.1 460.6,381.7 455.9,381.7 451.2,381.7 446.5,381.7 441.8,381.9 437.1,382.6 432.4,382.6 427.6,382.6 422.9,382.6 418.2,382.8 413.5,383.0 408.8,384.2 404.1,383.0 399.4,383.9 394.7,387.3 390.0,387.9 385.3,387.3 380.6,387.3 375.9,387.3 371.2,388.6 366.5,388.6 361.8,389.2 357.1,390.0 352.4,391.7 347.6,391.7 342.9,391.7 338.2,393.0 333.5,393.1 328.8,393.5 324.1,391.6 319.4,397.2 314.7,397.7 310.0,397.6 305.3,398.9 300.6,398.8 295.9,399.5 291.2,400.4 286.5,401.5 281.8,401.7 277.1,404.6 272.4,405.8 267.6,407.5 262.9,430.1 258.2,431.6 253.5,431.6 248.8,432.3 244.1,432.0 239.4,433.6 234.7,436.4 230.0,437.3 225.3,437.3 220.6,438.0 215.9,438.2 211.2,438.2 206.5,439.5 201.8,439.8 197.1,441.3 192.4,441.6 187.6,442.0 182.9,442.3 178.2,443.6 173.5,444.9 168.8,446.6 164.1,447.7 159.4,447.7 154.7,449.9 150.0,449.9 145.3,450.7 140.6,451.4 135.9,451.7 131.2,453.7 126.5,453.7 121.8,455.2 117.1,453.7 112.4,454.3 107.6,454.4 102.9,458.3 98.2,458.3 93.5,461.2 88.8,464.0 84.1,465.1 79.4,466.1 74.7,466.1 70.0,466.1" fill="#ff9da7" fill-opacity="0.92" stroke="#ff9da7" stroke-width="0.6"/>
<polygon points="70.0,464.9 74.7,464.9 79.4,464.9 84.1,463.9 88.8,462.7 93.5,460.0 98.2,457.0 102.9,457.0 107.6,453.2 112.4,453.0 117.1,452.4 121.8,454.1 126.5,452.4 131.2,452.4 135.9,446.2 140.6,445.3 145.3,443.3 150.0,441.0 154.7,441.0 159.4,438.7 164.1,438.7 168.8,430.6 173.5,424.6 178.2,421.1 182.9,418.4 187.6,417.4 192.4,416.2 197.1,415.2 201.8,411.2 206.5,410.1 211.2,405.9 215.9,405.3 220.6,404.3 225.3,402.9 230.0,401.7 234.7,397.1 239.4,388.4 244.1,387.8 248.8,386.6 253.5,383.6 258.2,383.2 262.9,379.5 267.6,297.8 272.4,288.4 277.1,285.0 281.8,276.8 286.5,273.9 291.2,270.5 295.9,267.8 300.6,266.7 305.3,265.8 310.0,264.4 314.7,263.4 319.4,261.2 324.1,245.0 328.8,244.2 333.5,242.9 338.2,242.5 342.9,242.6 347.6,237.4 352.4,231.6 357.1,226.7 361.8,224.0 366.5,222.3 371.2,218.5 375.9,214.2 380.6,210.8 385.3,210.1 390.0,211.7 394.7,209.7 399.4,201.8 404.1,198.1 408.8,198.7 413.5,195.2 418.2,194.4 422.9,193.8 427.6,193.8 432.4,193.4 437.1,193.1 441.8,190.1 446.5,189.4 451.2,189.0 455.9,189.0 460.6,189.0 465.3,187.4 470.0,183.3 474.7,182.7 479.4,178.4 484.1,176.9 488.8,176.6 493.5,176.2 498.2,174.1 502.9,173.5 507.6,172.1 512.4,171.7 517.1,171.2 521.8,171.2 526.5,171.0 531.2,170.0 535.9,168.7 540.6,167.6 545.3,167.0 550.0,165.7 554.7,165.1 559.4,162.6 564.1,162.2 568.8,161.0 573.5,160.4 578.2,159.9 582.9,158.1 587.6,154.9 592.4,154.3 597.1,151.7 601.8,150.8 606.5,146.8 611.2,144.9 615.9,142.6 620.6,140.5 625.3,139.1 630.0,137.0 634.7,136.9 639.4,136.0 644.1,135.7 648.8,134.4 653.5,131.1 658.2,129.7 662.9,128.2 667.6,128.2 672.4,126.5 677.1,125.4 681.8,125.4 686.5,124.3 691.2,124.3 695.9,124.3 700.6,124.3 705.3,124.3 710.0,124.3 714.7,123.1 719.4,121.9 724.1,120.5 728.8,118.8 733.5,116.7 738.2,116.7 742.9,115.7 747.6,115.7 752.4,115.0 757.1,120.5 761.8,114.3 766.5,113.4 771.2,112.4 775.9,110.5 780.6,109.8 785.3,109.8 790.0,109.8 790.0,239.0 785.3,239.0 780.6,239.0 775.9,239.0 771.2,239.9 766.5,239.9 761.8,239.9 757.1,239.9 752.4,239.9 747.6,239.9 742.9,239.9 738.2,240.6 733.5,240.6 728.8,242.0 724.1,243.1 719.4,243.8 714.7,244.4 710.0,245.7 705.3,245.7 700.6,245.7 695.9,245.7 691.2,245.7 686.5,245.7 681.8,246.7 677.1,246.7 672.4,247.9 667.6,249.5 662.9,249.5 658.2,251.0 653.5,252.4 648.8,255.7 644.1,257.0 639.4,257.3 634.7,258.2 630.0,258.4 625.3,260.5 620.6,261.8 615.9,264.0 611.2,266.2 606.5,268.1 601.8,271.3 597.1,273.0 592.4,275.7 587.6,276.2 582.9,279.4 578.2,281.3 573.5,281.7 568.8,282.3 564.1,283.5 559.4,283.9 554.7,286.5 550.0,287.0 545.3,288.4 540.6,288.9 535.9,290.0 531.2,291.4 526.5,292.3 521.8,292.5 517.1,292.5 512.4,293.1 507.6,293.4 502.9,294.9 498.2,295.4 493.5,297.5 488.8,297.9 484.1,298.2 479.4,299.8 474.7,304.0 470.0,304.7 465.3,306.5 460.6,308.1 455.9,308.1 451.2,308.1 446.5,308.1 441.8,308.5 437.1,309.9 432.4,309.9 427.6,309.9 422.9,309.9 418.2,310.4 413.5,310.9 408.8,313.2 404.1,312.3 399.4,313.2 394.7,317.7 390.0,318.2 385.3,317.7 380.6,317.7 375.9,319.3 371.2,321.8 366.5,321.8 361.8,323.0 357.1,324.8 352.4,328.1 347.6,328.1 342.9,330.7 338.2,332.8 333.5,333.0 328.8,334.9 324.1,331.5 319.4,341.8 314.7,342.6 310.0,343.6 305.3,345.0 300.6,344.8 295.9,346.3 291.2,348.2 286.5,350.4 281.8,351.4 277.1,356.0 272.4,358.2 267.6,361.5 262.9,408.7 258.2,410.7 253.5,411.1 248.8,412.8 244.1,414.3 239.4,415.5 234.7,420.4 230.0,421.8 225.3,421.9 220.6,422.9 215.9,423.6 211.2,424.1 206.5,426.8 201.8,427.5 197.1,430.2 192.4,430.8 187.6,431.7 182.9,432.3 178.2,435.0 173.5,437.5 168.8,440.1 164.1,443.1 159.4,443.1 154.7,445.4 150.0,445.4 145.3,446.9 140.6,448.3 135.9,448.9 131.2,453.0 126.5,453.0 121.8,454.7 117.1,453.0 112.4,453.7 107.6,453.8 102.9,457.7 98.2,457.7 93.5,460.6 88.8,463.3 84.1,464.5 79.4,465.5 74.7,465.5 70.0,465.5" fill="#9c755f" fill-opacity="0.92" stroke="#9c755f" stroke-width="0.6"/>
<polygon points="70.0,464.9 74.7,464.9 79.4,464.3 84.1,463.3 88.8,462.1 93.5,459.4 98.2,456.4 102.9,456.4 107.6,452.6 112.4,452.4 117.1,451.7 121.8,453.5 126.5,451.7 131.2,451.7 135.9,445.6 140.6,444.7 145.3,442.7 150.0,440.3 154.7,440.3 159.4,438.1 164.1,438.1 168.8,430.0 173.5,424.0 178.2,420.4 182.9,417.8 187.6,416.8 192.4,415.6 197.1,414.6 201.8,410.6 206.5,409.4 211.2,405.3 215.9,404.7 220.6,403.7 225.3,402.3 230.0,401.1 234.7,396.5 239.4,387.8 244.1,387.1 248.8,385.9 253.5,383.0 258.2,382.6 262.9,378.8 267.6,297.2 272.4,287.8 277.1,284.3 281.8,276.1 286.5,273.2 291.2,269.8 295.9,267.2 300.6,266.1 305.3,265.2 310.0,263.7 314.7,262.8 319.4,260.6 324.1,244.3 328.8,243.5 333.5,242.3 338.2,241.9 342.9,242.0 347.6,236.8 352.4,231.0 357.1,226.1 361.8,223.4 366.5,221.7 371.2,217.9 375.9,213.6 380.6,210.2 385.3,209.5 390.0,211.1 394.7,209.1 399.4,201.2 404.1,197.5 408.8,198.0 413.5,194.5 418.2,193.8 422.9,193.1 427.6,193.1 432.4,192.8 437.1,192.5 441.8,189.5 446.5,188.7 451.2,188.4 455.9,188.4 460.6,188.4 465.3,186.8 470.0,182.7 474.7,182.1 479.4,177.8 484.1,176.3 488.8,175.9 493.5,175.6 498.2,173.5 502.9,172.9 507.6,171.4 512.4,171.1 517.1,170.5 521.8,170.5 526.5,170.4 531.2,169.4 535.9,168.1 540.6,166.9 545.3,166.4 550.0,165.1 554.7,164.5 559.4,162.0 564.1,161.5 568.8,160.3 573.5,159.7 578.2,159.3 582.9,157.5 587.6,154.3 592.4,153.7 597.1,151.1 601.8,150.2 606.5,146.2 611.2,144.2 615.9,142.0 620.6,139.9 625.3,138.5 630.0,136.4 634.7,136.3 639.4,135.4 644.1,135.1 648.8,133.7 653.5,130.5 658.2,129.1 662.9,127.6 667.6,127.6 672.4,125.9 677.1,124.8 681.8,124.8 686.5,123.7 691.2,123.7 695.9,123.7 700.6,123.7 705.3,123.7 710.0,123.7 714.7,122.5 719.4,121.3 724.1,119.9 728.8,118.2 733.5,116.1 738.2,116.1 742.9,115.1 747.6,115.1 752.4,114.3 757.1,119.9 761.8,113.6 766.5,112.7 771.2,111.8 775.9,109.9 780.6,109.1 785.3,109.1 790.0,109.1 790.0,109.8 785.3,109.8 780.6,109.8 775.9,110.5 771.2,112.4 766.5,113.4 761.8,114.3 757.1,120.5 752.4,115.0 747.6,115.7 742.9,115.7 738.2,116.7 733.5,116.7 728.8,118.8 724.1,120.5 719.4,121.9 714.7,123.1 710.0,124.3 705.3,124.3 700.6,124.3 695.9,124.3 691.2,124.3 686.5,124.3 681.8,125.4 677.1,125.4 672.4,126.5 667.6,128.2 662.9,128.2 658.2,129.7 653.5,131.1 648.8,134.4 644.1,135.7 639.4,136.0 634.7,136.9 630.0,137.0 625.3,139.1 620.6,140.5 615.9,142.6 611.2,144.9 606.5,146.8 601.8,150.8 597.1,151.7 592.4,154.3 587.6,154.9 582.9,158.1 578.2,159.9 573.5,160.4 568.8,161.0 564.1,162.2 559.4,162.6 554.7,165.1 550.0,165.7 545.3,167.0 540.6,167.6 535.9,168.7 531.2,170.0 526.5,171.0 521.8,171.2 517.1,171.2 512.4,171.7 507.6,172.1 502.9,173.5 498.2,174.1 493.5,176.2 488.8,176.6 484.1,176.9 479.4,178.4 474.7,182.7 470.0,183.3 465.3,187.4 460.6,189.0 455.9,189.0 451.2,189.0 446.5,189.4 441.8,190.1 437.1,193.1 432.4,193.4 427.6,193.8 422.9,193.8 418.2,194.4 413.5,195.2 408.8,198.7 404.1,198.1 399.4,201.8 394.7,209.7 390.0,211.7 385.3,210.1 380.6,210.8 375.9,214.2 371.2,218.5 366.5,222.3 361.8,224.0 357.1,226.7 352.4,231.6 347.6,237.4 342.9,242.6 338.2,242.5 333.5,242.9 328.8,244.2 324.1,245.0 319.4,261.2 314.7,263.4 310.0,264.4 305.3,265.8 300.6,266.7 295.9,267.8 291.2,270.5 286.5,273.9 281.8,276.8 277.1,285.0 272.4,288.4 267.6,297.8 262.9,379.5 258.2,383.2 253.5,383.6 248.8,386.6 244.1,387.8 239.4,388.4 234.7,397.1 230.0,401.7 225.3,402.9 220.6,404.3 215.9,405.3 211.2,405.9 206.5,410.1 201.8,411.2 197.1,415.2 192.4,416.2 187.6,417.4 182.9,418.4 178.2,421.1 173.5,424.6 168.8,430.6 164.1,438.7 159.4,438.7 154.7,441.0 150.0,441.0 145.3,443.3 140.6,445.3 135.9,446.2 131.2,452.4 126.5,452.4 121.8,454.1 117.1,452.4 112.4,453.0 107.6,453.2 102.9,457.0 98.2,457.0 93.5,460.0 88.8,462.7 84.1,463.9 79.4,464.9 74.7,464.9 70.0,464.9" fill="#8cd17d" fill-opacity="0.92" stroke="#8cd17d" stroke-width="0.6"/>
<polygon points="70.0,464.9 74.7,464.9 79.4,464.3 84.1,462.8 88.8,461.5 93.5,458.8 98.2,455.9 102.9,455.9 107.6,452.0 112.4,451.9 117.1,451.2 121.8,453.0 126.5,451.2 131.2,451.2 135.9,445.1 140.6,444.2 145.3,442.1 150.0,439.8 154.7,439.8 159.4,437.5 164.1,437.5 168.8,429.4 173.5,423.4 178.2,419.9 182.9,417.2 187.6,416.2 192.4,415.1 197.1,414.0 201.8,410.0 206.5,408.9 211.2,404.8 215.9,404.2 220.6,403.1 225.3,401.7 230.0,400.6 234.7,396.0 239.4,387.2 244.1,386.6 248.8,385.4 253.5,382.5 258.2,382.1 262.9,378.3 267.6,295.1 272.4,284.0 277.1,280.5 281.8,272.2 286.5,269.3 291.2,265.9 295.9,263.2 300.6,262.1 305.3,261.2 310.0,259.8 314.7,258.8 319.4,256.6 324.1,240.1 328.8,239.4 333.5,238.5 338.2,238.0 342.9,238.0 347.6,232.8 352.4,227.1 357.1,222.1 361.8,219.5 366.5,217.7 371.2,214.0 375.9,209.7 380.6,206.3 385.3,205.5 390.0,207.1 394.7,205.1 399.4,197.3 404.1,193.6 408.8,194.1 413.5,190.6 418.2,189.9 422.9,189.2 427.6,189.2 432.4,188.8 437.1,188.6 441.8,185.6 446.5,184.8 451.2,184.5 455.9,184.5 460.6,184.5 465.3,182.9 470.0,178.8 474.7,178.2 479.4,173.9 484.1,172.3 488.8,172.0 493.5,171.6 498.2,169.5 502.9,169.0 507.6,167.5 512.4,167.2 517.1,166.6 521.8,166.6 526.5,166.5 531.2,165.5 535.9,164.2 540.6,163.0 545.3,162.5 550.0,161.1 554.7,160.6 559.4,158.1 564.1,157.6 568.8,156.4 573.5,155.8 578.2,155.4 582.9,153.5 587.6,150.3 592.4,149.8 597.1,147.1 601.8,146.3 606.5,142.2 611.2,140.3 615.9,138.1 620.6,135.9 625.3,134.6 630.0,132.5 634.7,132.3 639.4,131.4 644.1,131.2 648.8,129.8 653.5,126.6 658.2,125.1 662.9,123.6 667.6,123.6 672.4,122.0 677.1,120.9 681.8,120.9 686.5,119.8 691.2,119.8 695.9,119.8 700.6,119.8 705.3,119.8 710.0,119.8 714.7,118.5 719.4,117.4 724.1,116.0 728.8,114.3 733.5,112.2 738.2,112.2 742.9,111.1 747.6,111.1 752.4,110.4 757.1,115.9 761.8,109.7 766.5,108.8 771.2,107.8 775.9,106.0 780.6,105.2 785.3,105.2 790.0,105.2 790.0,109.1 785.3,109.1 780.6,109.1 775.9,109.9 771.2,111.8 766.5,112.7 761.8,113.6 757.1,119.9 752.4,114.3 747.6,115.1 742.9,115.1 738.2,116.1 733.5,116.1 728.8,118.2 724.1,119.9 719.4,121.3 714.7,122.5 710.0,123.7 705.3,123.7 700.6,123.7 695.9,123.7 691.2,123.7 686.5,123.7 681.8,124.8 677.1,124.8 672.4,125.9 667.6,127.6 662.9,127.6 658.2,129.1 653.5,130.5 648.8,133.7 644.1,135.1 639.4,135.4 634.7,136.3 630.0,136.4 625.3,138.5 620.6,139.9 615.9,142.0 611.2,144.2 606.5,146.2 601.8,150.2 597.1,151.1 592.4,153.7 587.6,154.3 582.9,157.5 578.2,159.3 573.5,159.7 568.8,160.3 564.1,161.5 559.4,162.0 554.7,164.5 550.0,165.1 545.3,166.4 540.6,166.9 535.9,168.1 531.2,169.4 526.5,170.4 521.8,170.5 517.1,170.5 512.4,171.1 507.6,171.4 502.9,172.9 498.2,173.5 493.5,175.6 488.8,175.9 484.1,176.3 479.4,177.8 474.7,182.1 470.0,182.7 465.3,186.8 460.6,188.4 455.9,188.4 451.2,188.4 446.5,188.7 441.8,189.5 437.1,192.5 432.4,192.8 427.6,193.1 422.9,193.1 418.2,193.8 413.5,194.5 408.8,198.0 404.1,197.5 399.4,201.2 394.7,209.1 390.0,211.1 385.3,209.5 380.6,210.2 375.9,213.6 371.2,217.9 366.5,221.7 361.8,223.4 357.1,226.1 352.4,231.0 347.6,236.8 342.9,242.0 338.2,241.9 333.5,242.3 328.8,243.5 324.1,244.3 319.4,260.6 314.7,262.8 310.0,263.7 305.3,265.2 300.6,266.1 295.9,267.2 291.2,269.8 286.5,273.2 281.8,276.1 277.1,284.3 272.4,287.8 267.6,297.2 262.9,378.8 258.2,382.6 253.5,383.0 248.8,385.9 244.1,387.1 239.4,387.8 234.7,396.5 230.0,401.1 225.3,402.3 220.6,403.7 215.9,404.7 211.2,405.3 206.5,409.4 201.8,410.6 197.1,414.6 192.4,415.6 187.6,416.8 182.9,417.8 178.2,420.4 173.5,424.0 168.8,430.0 164.1,438.1 159.4,438.1 154.7,440.3 150.0,440.3 145.3,442.7 140.6,444.7 135.9,445.6 131.2,451.7 126.5,451.7 121.8,453.5 117.1,451.7 112.4,452.4 107.6,452.6 102.9,456.4 98.2,456.4 93.5,459.4 88.8,462.1 84.1,463.3 79.4,464.3 74.7,464.9 70.0,464.9" fill="#86bcb6" fill-opacity="0.92" stroke="#86bcb6" stroke-width="0.6"/>
<line x1="70" y1="468" x2="790" y2="468" stroke="#b9b3a7"/>
<line x1="70" y1="58" x2="70" y2="468" stroke="#b9b3a7"/>
<line x1="70.0" y1="468" x2="70.0" y2="472" stroke="#b9b3a7"/>
<text x="70.0" y="485" font-size="10" fill="#8a857c" text-anchor="middle">09-05</text>
<line x1="159.4" y1="468" x2="159.4" y2="472" stroke="#b9b3a7"/>
<text x="159.4" y="485" font-size="10" fill="#8a857c" text-anchor="middle">09-05</text>
<line x1="248.8" y1="468" x2="248.8" y2="472" stroke="#b9b3a7"/>
<text x="248.8" y="485" font-size="10" fill="#8a857c" text-anchor="middle">09-05</text>
<line x1="338.2" y1="468" x2="338.2" y2="472" stroke="#b9b3a7"/>
<text x="338.2" y="485" font-size="10" fill="#8a857c" text-anchor="middle">09-05</text>
<line x1="427.6" y1="468" x2="427.6" y2="472" stroke="#b9b3a7"/>
<text x="427.6" y="485" font-size="10" fill="#8a857c" text-anchor="middle">09-06</text>
<line x1="517.1" y1="468" x2="517.1" y2="472" stroke="#b9b3a7"/>
<text x="517.1" y="485" font-size="10" fill="#8a857c" text-anchor="middle">09-06</text>
<line x1="606.5" y1="468" x2="606.5" y2="472" stroke="#b9b3a7"/>
<text x="606.5" y="485" font-size="10" fill="#8a857c" text-anchor="middle">09-06</text>
<line x1="695.9" y1="468" x2="695.9" y2="472" stroke="#b9b3a7"/>
<text x="695.9" y="485" font-size="10" fill="#8a857c" text-anchor="middle">09-06</text>
<line x1="785.3" y1="468" x2="785.3" y2="472" stroke="#b9b3a7"/>
<text x="785.3" y="485" font-size="10" fill="#8a857c" text-anchor="middle">09-06</text>
<text x="430.0" y="504" font-size="10" fill="#8a857c" text-anchor="middle">date</text>
<text x="836" y="64" font-size="10" fill="#8a857c" letter-spacing="0.5">TARGET   MATCHED  OF IT  FUNCTIONS</text>
<rect x="836" y="71" width="11" height="11" fill="#4e79a7" rx="2"/>
<text x="853" y="80" font-size="11" fill="#3d3a35">main</text>
<text x="927" y="80" font-size="11" fill="#3d3a35" text-anchor="end">3,700</text>
<text x="970" y="80" font-size="11" fill="#8a857c" text-anchor="end">40.43%</text>
<text x="1040" y="80" font-size="11" fill="#8a857c" text-anchor="end">21/41</text>
<rect x="836" y="88" width="11" height="11" fill="#f28e2b" rx="2"/>
<text x="853" y="97" font-size="11" fill="#3d3a35">atlus</text>
<text x="927" y="97" font-size="11" fill="#3d3a35" text-anchor="end">180</text>
<text x="970" y="97" font-size="11" fill="#8a857c" text-anchor="end">7.99%</text>
<text x="1040" y="97" font-size="11" fill="#8a857c" text-anchor="end">1/7</text>
<rect x="836" y="105" width="11" height="11" fill="#e15759" rx="2"/>
<text x="853" y="114" font-size="11" fill="#3d3a35">open</text>
<text x="927" y="114" font-size="11" fill="#3d3a35" text-anchor="end">180</text>
<text x="970" y="114" font-size="11" fill="#8a857c" text-anchor="end">0.57%</text>
<text x="1040" y="114" font-size="11" fill="#8a857c" text-anchor="end">1/44</text>
<rect x="836" y="122" width="11" height="11" fill="#76b7b2" rx="2"/>
<text x="853" y="131" font-size="11" fill="#3d3a35">movie</text>
<text x="927" y="131" font-size="11" fill="#3d3a35" text-anchor="end">136</text>
<text x="970" y="131" font-size="11" fill="#8a857c" text-anchor="end">9.12%</text>
<text x="1040" y="131" font-size="11" fill="#8a857c" text-anchor="end">1/3</text>
<rect x="836" y="139" width="11" height="11" fill="#59a14f" rx="2"/>
<text x="853" y="148" font-size="11" fill="#3d3a35">end</text>
<text x="927" y="148" font-size="11" fill="#3d3a35" text-anchor="end">136</text>
<text x="970" y="148" font-size="11" fill="#8a857c" text-anchor="end">1.93%</text>
<text x="1040" y="148" font-size="11" fill="#8a857c" text-anchor="end">1/8</text>
<rect x="836" y="156" width="11" height="11" fill="#edc948" rx="2"/>
<text x="853" y="165" font-size="11" fill="#3d3a35">dng</text>
<text x="927" y="165" font-size="11" fill="#3d3a35" text-anchor="end">20,420</text>
<text x="970" y="165" font-size="11" fill="#8a857c" text-anchor="end">10.27%</text>
<text x="1040" y="165" font-size="11" fill="#8a857c" text-anchor="end">115/376</text>
<rect x="836" y="173" width="11" height="11" fill="#b07aa1" rx="2"/>
<text x="853" y="182" font-size="11" fill="#3d3a35">btlp</text>
<text x="927" y="182" font-size="11" fill="#3d3a35" text-anchor="end">19,236</text>
<text x="970" y="182" font-size="11" fill="#8a857c" text-anchor="end">13.36%</text>
<text x="1040" y="182" font-size="11" fill="#8a857c" text-anchor="end">157/315</text>
<rect x="836" y="190" width="11" height="11" fill="#ff9da7" rx="2"/>
<text x="853" y="199" font-size="11" fill="#3d3a35">s2d</text>
<text x="927" y="199" font-size="11" fill="#3d3a35" text-anchor="end">23,036</text>
<text x="970" y="199" font-size="11" fill="#8a857c" text-anchor="end">11.01%</text>
<text x="1040" y="199" font-size="11" fill="#8a857c" text-anchor="end">122/449</text>
<rect x="836" y="207" width="11" height="11" fill="#9c755f" rx="2"/>
<text x="853" y="216" font-size="11" fill="#3d3a35">adv</text>
<text x="927" y="216" font-size="11" fill="#3d3a35" text-anchor="end">37,824</text>
<text x="970" y="216" font-size="11" fill="#8a857c" text-anchor="end">17.01%</text>
<text x="1040" y="216" font-size="11" fill="#8a857c" text-anchor="end">198/410</text>
<rect x="836" y="224" width="11" height="11" fill="#8cd17d" rx="2"/>
<text x="853" y="233" font-size="11" fill="#3d3a35">casino</text>
<text x="927" y="233" font-size="11" fill="#3d3a35" text-anchor="end">184</text>
<text x="970" y="233" font-size="11" fill="#8a857c" text-anchor="end">0.10%</text>
<text x="1040" y="233" font-size="11" fill="#8a857c" text-anchor="end">1/453</text>
<rect x="836" y="241" width="11" height="11" fill="#86bcb6" rx="2"/>
<text x="853" y="250" font-size="11" fill="#3d3a35">name</text>
<text x="927" y="250" font-size="11" fill="#3d3a35" text-anchor="end">1,148</text>
<text x="970" y="250" font-size="11" fill="#8a857c" text-anchor="end">7.43%</text>
<text x="1040" y="250" font-size="11" fill="#8a857c" text-anchor="end">7/26</text>
<text x="70" y="512" font-size="9.5" fill="#a49e93">The first 58 samples predate per-target recording and are reconstructed from the order functions were added; their grand totals are as measured.</text>
</svg>