<svg xmlns="http://www.w3.org/2000/svg" width="1000" height="520" viewBox="0 0 1000 520" font-family="Segoe UI, Helvetica, Arial, sans-serif">
<rect width="1000" height="520" fill="#fbfaf7"/>
<text x="70" y="28" font-size="17" font-weight="600" fill="#2b2b2b">Persona 1 (JP) - matching decompilation</text>
<text x="70" y="46" font-size="12" fill="#6b6b6b">67,308 of 1,537,688 bytes matched (4.377%) in 392 of 6347 functions</text>
<line x1="70" y1="468.0" x2="790" y2="468.0" stroke="#e3e0d8" stroke-width="1"/>
<text x="62" y="471.0" font-size="10" fill="#8a857c" text-anchor="end">0</text>
<text x="798" y="471.0" font-size="10" fill="#8a857c">0.0%</text>
<line x1="70" y1="365.5" x2="790" y2="365.5" stroke="#e3e0d8" stroke-width="1"/>
<text x="62" y="368.5" font-size="10" fill="#8a857c" text-anchor="end">20,000</text>
<text x="798" y="368.5" font-size="10" fill="#8a857c">1.3%</text>
<line x1="70" y1="263.0" x2="790" y2="263.0" stroke="#e3e0d8" stroke-width="1"/>
<text x="62" y="266.0" font-size="10" fill="#8a857c" text-anchor="end">40,000</text>
<text x="798" y="266.0" font-size="10" fill="#8a857c">2.6%</text>
<line x1="70" y1="160.5" x2="790" y2="160.5" stroke="#e3e0d8" stroke-width="1"/>
<text x="62" y="163.5" font-size="10" fill="#8a857c" text-anchor="end">60,000</text>
<text x="798" y="163.5" font-size="10" fill="#8a857c">3.9%</text>
<line x1="70" y1="58.0" x2="790" y2="58.0" stroke="#e3e0d8" stroke-width="1"/>
<text x="62" y="61.0" font-size="10" fill="#8a857c" text-anchor="end">80,000</text>
<text x="798" y="61.0" font-size="10" fill="#8a857c">5.2%</text>
<polygon points="70.0,466.9 82.4,466.9 94.8,466.9 107.2,466.9 119.7,466.9 132.1,462.8 144.5,458.4 156.9,458.4 169.3,452.6 181.7,452.4 194.1,452.4 206.6,453.6 219.0,452.4 231.4,452.4 243.8,452.4 256.2,452.4 268.6,452.4 281.0,452.4 293.4,452.4 305.9,449.0 318.3,449.0 330.7,449.0 343.1,449.0 355.5,449.0 367.9,449.0 380.3,449.0 392.8,449.0 405.2,449.0 417.6,449.0 430.0,449.0 442.4,449.0 454.8,449.0 467.2,449.0 479.7,449.0 492.1,449.0 504.5,449.0 516.9,449.0 529.3,449.0 541.7,449.0 554.1,449.0 566.6,449.0 579.0,449.0 591.4,449.6 603.8,449.5 616.2,449.5 628.6,449.0 641.0,449.0 653.4,449.0 665.9,449.0 678.3,449.0 690.7,449.0 703.1,449.0 715.5,449.0 727.9,449.0 740.3,449.0 752.8,449.0 765.2,449.0 777.6,449.0 790.0,449.0 790.0,468.0 777.6,468.0 765.2,468.0 752.8,468.0 740.3,468.0 727.9,468.0 715.5,468.0 703.1,468.0 690.7,468.0 678.3,468.0 665.9,468.0 653.4,468.0 641.0,468.0 628.6,468.0 616.2,468.0 603.8,468.0 591.4,468.0 579.0,468.0 566.6,468.0 554.1,468.0 541.7,468.0 529.3,468.0 516.9,468.0 504.5,468.0 492.1,468.0 479.7,468.0 467.2,468.0 454.8,468.0 442.4,468.0 430.0,468.0 417.6,468.0 405.2,468.0 392.8,468.0 380.3,468.0 367.9,468.0 355.5,468.0 343.1,468.0 330.7,468.0 318.3,468.0 305.9,468.0 293.4,468.0 281.0,468.0 268.6,468.0 256.2,468.0 243.8,468.0 231.4,468.0 219.0,468.0 206.6,468.0 194.1,468.0 181.7,468.0 169.3,468.0 156.9,468.0 144.5,468.0 132.1,468.0 119.7,468.0 107.2,468.0 94.8,468.0 82.4,468.0 70.0,468.0" fill="#4e79a7" fill-opacity="0.92" stroke="#4e79a7" stroke-width="0.6"/>
<polygon points="70.0,466.9 82.4,466.9 94.8,466.9 107.2,466.0 119.7,466.0 132.1,461.9 144.5,457.5 156.9,457.5 169.3,451.7 181.7,451.5 194.1,451.5 206.6,452.7 219.0,451.5 231.4,451.5 243.8,451.5 256.2,451.5 268.6,451.5 281.0,451.5 293.4,451.5 305.9,448.1 318.3,448.1 330.7,448.1 343.1,448.1 355.5,448.1 367.9,448.1 380.3,448.1 392.8,448.1 405.2,448.1 417.6,448.1 430.0,448.1 442.4,448.1 454.8,448.1 467.2,448.1 479.7,448.1 492.1,448.1 504.5,448.1 516.9,448.1 529.3,448.1 541.7,448.1 554.1,448.1 566.6,448.1 579.0,448.1 591.4,448.7 603.8,448.6 616.2,448.6 628.6,448.1 641.0,448.1 653.4,448.1 665.9,448.1 678.3,448.1 690.7,448.1 703.1,448.1 715.5,448.1 727.9,448.1 740.3,448.1 752.8,448.1 765.2,448.1 777.6,448.1 790.0,448.1 790.0,449.0 777.6,449.0 765.2,449.0 752.8,449.0 740.3,449.0 727.9,449.0 715.5,449.0 703.1,449.0 690.7,449.0 678.3,449.0 665.9,449.0 653.4,449.0 641.0,449.0 628.6,449.0 616.2,449.5 603.8,449.5 591.4,449.6 579.0,449.0 566.6,449.0 554.1,449.0 541.7,449.0 529.3,449.0 516.9,449.0 504.5,449.0 492.1,449.0 479.7,449.0 467.2,449.0 454.8,449.0 442.4,449.0 430.0,449.0 417.6,449.0 405.2,449.0 392.8,449.0 380.3,449.0 367.9,449.0 355.5,449.0 343.1,449.0 330.7,449.0 318.3,449.0 305.9,449.0 293.4,452.4 281.0,452.4 268.6,452.4 256.2,452.4 243.8,452.4 231.4,452.4 219.0,452.4 206.6,453.6 194.1,452.4 181.7,452.4 169.3,452.6 156.9,458.4 144.5,458.4 132.1,462.8 119.7,466.9 107.2,466.9 94.8,466.9 82.4,466.9 70.0,466.9" fill="#f28e2b" fill-opacity="0.92" stroke="#f28e2b" stroke-width="0.6"/>
<polygon points="70.0,466.9 82.4,466.9 94.8,466.9 107.2,466.0 119.7,465.1 132.1,461.0 144.5,456.5 156.9,456.5 169.3,450.8 181.7,450.6 194.1,450.6 206.6,451.8 219.0,450.6 231.4,450.6 243.8,450.6 256.2,450.6 268.6,450.6 281.0,450.6 293.4,450.6 305.9,447.2 318.3,447.2 330.7,447.2 343.1,447.2 355.5,447.2 367.9,447.2 380.3,447.2 392.8,447.2 405.2,447.2 417.6,447.2 430.0,447.2 442.4,447.2 454.8,447.2 467.2,447.2 479.7,447.2 492.1,447.2 504.5,447.2 516.9,447.2 529.3,447.2 541.7,447.2 554.1,447.2 566.6,447.2 579.0,447.2 591.4,447.8 603.8,447.8 616.2,447.7 628.6,447.2 641.0,447.2 653.4,447.2 665.9,447.2 678.3,447.2 690.7,447.2 703.1,447.2 715.5,447.2 727.9,447.2 740.3,447.2 752.8,447.2 765.2,447.2 777.6,447.2 790.0,447.2 790.0,448.1 777.6,448.1 765.2,448.1 752.8,448.1 740.3,448.1 727.9,448.1 715.5,448.1 703.1,448.1 690.7,448.1 678.3,448.1 665.9,448.1 653.4,448.1 641.0,448.1 628.6,448.1 616.2,448.6 603.8,448.6 591.4,448.7 579.0,448.1 566.6,448.1 554.1,448.1 541.7,448.1 529.3,448.1 516.9,448.1 504.5,448.1 492.1,448.1 479.7,448.1 467.2,448.1 454.8,448.1 442.4,448.1 430.0,448.1 417.6,448.1 405.2,448.1 392.8,448.1 380.3,448.1 367.9,448.1 355.5,448.1 343.1,448.1 330.7,448.1 318.3,448.1 305.9,448.1 293.4,451.5 281.0,451.5 268.6,451.5 256.2,451.5 243.8,451.5 231.4,451.5 219.0,451.5 206.6,452.7 194.1,451.5 181.7,451.5 169.3,451.7 156.9,457.5 144.5,457.5 132.1,461.9 119.7,466.0 107.2,466.0 94.8,466.9 82.4,466.9 70.0,466.9" fill="#e15759" fill-opacity="0.92" stroke="#e15759" stroke-width="0.6"/>
<polygon points="70.0,466.9 82.4,466.9 94.8,466.9 107.2,466.0 119.7,464.4 132.1,460.3 144.5,455.8 156.9,455.8 169.3,450.1 181.7,449.9 194.1,449.9 206.6,451.2 219.0,449.9 231.4,449.9 243.8,449.9 256.2,449.9 268.6,449.9 281.0,449.9 293.4,449.9 305.9,446.5 318.3,446.5 330.7,446.5 343.1,446.5 355.5,446.5 367.9,446.5 380.3,446.5 392.8,446.5 405.2,446.5 417.6,446.5 430.0,446.5 442.4,446.5 454.8,446.5 467.2,446.5 479.7,446.5 492.1,446.5 504.5,446.5 516.9,446.5 529.3,446.5 541.7,446.5 554.1,446.5 566.6,446.5 579.0,446.5 591.4,447.2 603.8,447.1 616.2,447.0 628.6,446.5 641.0,446.5 653.4,446.5 665.9,446.5 678.3,446.5 690.7,446.5 703.1,446.5 715.5,446.5 727.9,446.5 740.3,446.5 752.8,446.5 765.2,446.5 777.6,446.5 790.0,446.5 790.0,447.2 777.6,447.2 765.2,447.2 752.8,447.2 740.3,447.2 727.9,447.2 715.5,447.2 703.1,447.2 690.7,447.2 678.3,447.2 665.9,447.2 653.4,447.2 641.0,447.2 628.6,447.2 616.2,447.7 603.8,447.8 591.4,447.8 579.0,447.2 566.6,447.2 554.1,447.2 541.7,447.2 529.3,447.2 516.9,447.2 504.5,447.2 492.1,447.2 479.7,447.2 467.2,447.2 454.8,447.2 442.4,447.2 430.0,447.2 417.6,447.2 405.2,447.2 392.8,447.2 380.3,447.2 367.9,447.2 355.5,447.2 343.1,447.2 330.7,447.2 318.3,447.2 305.9,447.2 293.4,450.6 281.0,450.6 268.6,450.6 256.2,450.6 243.8,450.6 231.4,450.6 219.0,450.6 206.6,451.8 194.1,450.6 181.7,450.6 169.3,450.8 156.9,456.5 144.5,456.5 132.1,461.0 119.7,465.1 107.2,466.0 94.8,466.9 82.4,466.9 70.0,466.9" fill="#76b7b2" fill-opacity="0.92" stroke="#76b7b2" stroke-width="0.6"/>
<polygon points="70.0,466.9 82.4,466.9 94.8,466.9 107.2,465.4 119.7,463.7 132.1,459.6 144.5,455.1 156.9,455.1 169.3,449.4 181.7,449.2 194.1,449.2 206.6,450.5 219.0,449.2 231.4,449.2 243.8,449.2 256.2,449.2 268.6,449.2 281.0,449.2 293.4,449.2 305.9,445.8 318.3,445.8 330.7,445.8 343.1,445.8 355.5,445.8 367.9,445.8 380.3,445.8 392.8,445.8 405.2,445.8 417.6,445.8 430.0,445.8 442.4,445.8 454.8,445.8 467.2,445.8 479.7,445.8 492.1,445.8 504.5,445.8 516.9,445.8 529.3,445.8 541.7,445.8 554.1,445.8 566.6,445.8 579.0,445.8 591.4,446.5 603.8,446.4 616.2,446.3 628.6,445.8 641.0,445.8 653.4,445.8 665.9,445.8 678.3,445.8 690.7,445.8 703.1,445.8 715.5,445.8 727.9,445.8 740.3,445.8 752.8,445.8 765.2,445.8 777.6,445.8 790.0,445.8 790.0,446.5 777.6,446.5 765.2,446.5 752.8,446.5 740.3,446.5 727.9,446.5 715.5,446.5 703.1,446.5 690.7,446.5 678.3,446.5 665.9,446.5 653.4,446.5 641.0,446.5 628.6,446.5 616.2,447.0 603.8,447.1 591.4,447.2 579.0,446.5 566.6,446.5 554.1,446.5 541.7,446.5 529.3,446.5 516.9,446.5 504.5,446.5 492.1,446.5 479.7,446.5 467.2,446.5 454.8,446.5 442.4,446.5 430.0,446.5 417.6,446.5 405.2,446.5 392.8,446.5 380.3,446.5 367.9,446.5 355.5,446.5 343.1,446.5 330.7,446.5 318.3,446.5 305.9,446.5 293.4,449.9 281.0,449.9 268.6,449.9 256.2,449.9 243.8,449.9 231.4,449.9 219.0,449.9 206.6,451.2 194.1,449.9 181.7,449.9 169.3,450.1 156.9,455.8 144.5,455.8 132.1,460.3 119.7,464.4 107.2,466.0 94.8,466.9 82.4,466.9 70.0,466.9" fill="#59a14f" fill-opacity="0.92" stroke="#59a14f" stroke-width="0.6"/>
<polygon points="70.0,466.0 82.4,466.0 94.8,466.0 107.2,464.5 119.7,462.8 132.1,458.7 144.5,454.3 156.9,454.3 169.3,448.5 181.7,448.3 194.1,447.4 206.6,449.7 219.0,447.4 231.4,447.4 243.8,444.4 256.2,443.9 268.6,442.9 281.0,441.7 293.4,441.7 305.9,438.4 318.3,438.4 330.7,434.8 343.1,432.3 355.5,429.7 367.9,428.4 380.3,427.9 392.8,427.3 405.2,426.8 417.6,424.8 430.0,424.3 442.4,422.2 454.8,421.9 467.2,421.9 479.7,421.9 492.1,421.3 504.5,419.0 516.9,414.6 529.3,414.6 541.7,414.0 554.1,412.6 566.6,412.6 579.0,410.7 591.4,377.9 603.8,374.0 616.2,372.2 628.6,368.0 641.0,366.6 653.4,364.9 665.9,363.6 678.3,363.6 690.7,363.6 703.1,363.6 715.5,363.6 727.9,363.6 740.3,355.3 752.8,354.9 765.2,354.4 777.6,354.4 790.0,354.4 790.0,445.8 777.6,445.8 765.2,445.8 752.8,445.8 740.3,445.8 727.9,445.8 715.5,445.8 703.1,445.8 690.7,445.8 678.3,445.8 665.9,445.8 653.4,445.8 641.0,445.8 628.6,445.8 616.2,446.3 603.8,446.4 591.4,446.5 579.0,445.8 566.6,445.8 554.1,445.8 541.7,445.8 529.3,445.8 516.9,445.8 504.5,445.8 492.1,445.8 479.7,445.8 467.2,445.8 454.8,445.8 442.4,445.8 430.0,445.8 417.6,445.8 405.2,445.8 392.8,445.8 380.3,445.8 367.9,445.8 355.5,445.8 343.1,445.8 330.7,445.8 318.3,445.8 305.9,445.8 293.4,449.2 281.0,449.2 268.6,449.2 256.2,449.2 243.8,449.2 231.4,449.2 219.0,449.2 206.6,450.5 194.1,449.2 181.7,449.2 169.3,449.4 156.9,455.1 144.5,455.1 132.1,459.6 119.7,463.7 107.2,465.4 94.8,466.9 82.4,466.9 70.0,466.9" fill="#edc948" fill-opacity="0.92" stroke="#edc948" stroke-width="0.6"/>
<polygon points="70.0,465.2 82.4,465.2 94.8,465.2 107.2,463.7 119.7,461.9 132.1,457.8 144.5,453.4 156.9,453.4 169.3,447.6 181.7,447.4 194.1,446.6 206.6,448.9 219.0,446.6 231.4,446.6 243.8,443.5 256.2,443.1 268.6,442.0 281.0,440.9 293.4,440.9 305.9,437.5 318.3,437.5 330.7,434.0 343.1,431.5 355.5,428.9 367.9,427.6 380.3,427.1 392.8,426.5 405.2,426.0 417.6,424.0 430.0,423.4 442.4,421.3 454.8,421.0 467.2,421.0 479.7,421.0 492.1,420.5 504.5,418.2 516.9,413.8 529.3,413.8 541.7,413.2 554.1,411.7 566.6,411.7 579.0,409.8 591.4,377.0 603.8,373.2 616.2,371.4 628.6,367.2 641.0,365.7 653.4,364.0 665.9,362.7 678.3,362.7 690.7,362.7 703.1,362.7 715.5,362.7 727.9,362.7 740.3,354.4 752.8,354.0 765.2,353.5 777.6,353.5 790.0,353.5 790.0,354.4 777.6,354.4 765.2,354.4 752.8,354.9 740.3,355.3 727.9,363.6 715.5,363.6 703.1,363.6 690.7,363.6 678.3,363.6 665.9,363.6 653.4,364.9 641.0,366.6 628.6,368.0 616.2,372.2 603.8,374.0 591.4,377.9 579.0,410.7 566.6,412.6 554.1,412.6 541.7,414.0 529.3,414.6 516.9,414.6 504.5,419.0 492.1,421.3 479.7,421.9 467.2,421.9 454.8,421.9 442.4,422.2 430.0,424.3 417.6,424.8 405.2,426.8 392.8,427.3 380.3,427.9 367.9,428.4 355.5,429.7 343.1,432.3 330.7,434.8 318.3,438.4 305.9,438.4 293.4,441.7 281.0,441.7 268.6,442.9 256.2,443.9 243.8,444.4 231.4,447.4 219.0,447.4 206.6,449.7 194.1,447.4 181.7,448.3 169.3,448.5 156.9,454.3 144.5,454.3 132.1,458.7 119.7,462.8 107.2,464.5 94.8,466.0 82.4,466.0 70.0,466.0" fill="#b07aa1" fill-opacity="0.92" stroke="#b07aa1" stroke-width="0.6"/>
<polygon points="70.0,464.2 82.4,464.2 94.8,464.3 107.2,462.8 119.7,461.0 132.1,456.9 144.5,452.5 156.9,452.5 169.3,446.7 181.7,446.5 194.1,445.4 206.6,448.0 219.0,445.4 231.4,445.4 243.8,439.3 256.2,438.4 268.6,436.4 281.0,434.1 293.4,434.1 305.9,430.7 318.3,430.7 330.7,423.6 343.1,418.6 355.5,413.4 367.9,410.8 380.3,409.8 392.8,408.6 405.2,407.6 417.6,403.6 430.0,402.4 442.4,398.3 454.8,397.7 467.2,397.7 479.7,397.7 492.1,396.6 504.5,392.0 516.9,383.2 529.3,383.2 541.7,382.0 554.1,379.1 566.6,379.1 579.0,375.3 591.4,308.1 603.8,300.4 616.2,296.9 628.6,289.0 641.0,286.1 653.4,282.7 665.9,280.1 678.3,280.1 690.7,280.1 703.1,280.1 715.5,280.1 727.9,280.1 740.3,263.5 752.8,262.9 765.2,262.0 777.6,262.0 790.0,262.0 790.0,353.5 777.6,353.5 765.2,353.5 752.8,354.0 740.3,354.4 727.9,362.7 715.5,362.7 703.1,362.7 690.7,362.7 678.3,362.7 665.9,362.7 653.4,364.0 641.0,365.7 628.6,367.2 616.2,371.4 603.8,373.2 591.4,377.0 579.0,409.8 566.6,411.7 554.1,411.7 541.7,413.2 529.3,413.8 516.9,413.8 504.5,418.2 492.1,420.5 479.7,421.0 467.2,421.0 454.8,421.0 442.4,421.3 430.0,423.4 417.6,424.0 405.2,426.0 392.8,426.5 380.3,427.1 367.9,427.6 355.5,428.9 343.1,431.5 330.7,434.0 318.3,437.5 305.9,437.5 293.4,440.9 281.0,440.9 268.6,442.0 256.2,443.1 243.8,443.5 231.4,446.6 219.0,446.6 206.6,448.9 194.1,446.6 181.7,447.4 169.3,447.6 156.9,453.4 144.5,453.4 132.1,457.8 119.7,461.9 107.2,463.7 94.8,465.2 82.4,465.2 70.0,465.2" fill="#ff9da7" fill-opacity="0.92" stroke="#ff9da7" stroke-width="0.6"/>
<polygon points="70.0,463.3 82.4,463.3 94.8,463.4 107.2,461.9 119.7,460.1 132.1,456.0 144.5,451.6 156.9,451.6 169.3,445.8 181.7,445.6 194.1,444.5 206.6,447.1 219.0,444.5 231.4,444.5 243.8,435.4 256.2,434.0 268.6,430.9 281.0,427.4 293.4,427.4 305.9,424.1 318.3,424.1 330.7,411.9 343.1,402.9 355.5,397.6 367.9,393.6 380.3,392.1 392.8,390.4 405.2,388.8 417.6,382.9 430.0,381.1 442.4,374.9 454.8,374.1 467.2,372.5 479.7,370.4 492.1,368.7 504.5,361.8 516.9,348.6 529.3,347.7 541.7,345.9 554.1,341.5 566.6,340.9 579.0,335.2 591.4,212.7 603.8,198.7 616.2,193.4 628.6,181.1 641.0,176.7 653.4,171.6 665.9,167.7 678.3,166.0 690.7,164.7 703.1,162.5 715.5,161.1 727.9,157.8 740.3,132.9 752.8,131.9 765.2,130.5 777.6,129.9 790.0,129.9 790.0,262.0 777.6,262.0 765.2,262.0 752.8,262.9 740.3,263.5 727.9,280.1 715.5,280.1 703.1,280.1 690.7,280.1 678.3,280.1 665.9,280.1 653.4,282.7 641.0,286.1 628.6,289.0 616.2,296.9 603.8,300.4 591.4,308.1 579.0,375.3 566.6,379.1 554.1,379.1 541.7,382.0 529.3,383.2 516.9,383.2 504.5,392.0 492.1,396.6 479.7,397.7 467.2,397.7 454.8,397.7 442.4,398.3 430.0,402.4 417.6,403.6 405.2,407.6 392.8,408.6 380.3,409.8 367.9,410.8 355.5,413.4 343.1,418.6 330.7,423.6 318.3,430.7 305.9,430.7 293.4,434.1 281.0,434.1 268.6,436.4 256.2,438.4 243.8,439.3 231.4,445.4 219.0,445.4 206.6,448.0 194.1,445.4 181.7,446.5 169.3,446.7 156.9,452.5 144.5,452.5 132.1,456.9 119.7,461.0 107.2,462.8 94.8,464.3 82.4,464.2 70.0,464.2" fill="#9c755f" fill-opacity="0.92" stroke="#9c755f" stroke-width="0.6"/>
<polygon points="70.0,463.3 82.4,463.3 94.8,462.4 107.2,461.0 119.7,459.1 132.1,455.0 144.5,450.6 156.9,450.6 169.3,444.8 181.7,444.6 194.1,443.6 206.6,446.3 219.0,443.6 231.4,443.6 243.8,434.4 256.2,433.1 268.6,430.0 281.0,426.5 293.4,426.5 305.9,423.1 318.3,423.1 330.7,411.0 343.1,402.0 355.5,396.6 367.9,392.7 380.3,391.2 392.8,389.4 405.2,387.9 417.6,381.9 430.0,380.2 442.4,374.0 454.8,373.1 467.2,371.5 479.7,369.5 492.1,367.7 504.5,360.8 516.9,347.7 529.3,346.7 541.7,344.9 554.1,340.5 566.6,340.0 579.0,334.2 591.4,211.8 603.8,197.8 616.2,192.5 628.6,180.1 641.0,175.8 653.4,170.7 665.9,166.7 678.3,165.1 690.7,163.7 703.1,161.5 715.5,160.1 727.9,156.8 740.3,132.0 752.8,131.0 765.2,129.6 777.6,128.9 790.0,128.9 790.0,129.9 777.6,129.9 765.2,130.5 752.8,131.9 740.3,132.9 727.9,157.8 715.5,161.1 703.1,162.5 690.7,164.7 678.3,166.0 665.9,167.7 653.4,171.6 641.0,176.7 628.6,181.1 616.2,193.4 603.8,198.7 591.4,212.7 579.0,335.2 566.6,340.9 554.1,341.5 541.7,345.9 529.3,347.7 516.9,348.6 504.5,361.8 492.1,368.7 479.7,370.4 467.2,372.5 454.8,374.1 442.4,374.9 430.0,381.1 417.6,382.9 405.2,388.8 392.8,390.4 380.3,392.1 367.9,393.6 355.5,397.6 343.1,402.9 330.7,411.9 318.3,424.1 305.9,424.1 293.4,427.4 281.0,427.4 268.6,430.9 256.2,434.0 243.8,435.4 231.4,444.5 219.0,444.5 206.6,447.1 194.1,444.5 181.7,445.6 169.3,445.8 156.9,451.6 144.5,451.6 132.1,456.0 119.7,460.1 107.2,461.9 94.8,463.4 82.4,463.3 70.0,463.3" fill="#8cd17d" fill-opacity="0.92" stroke="#8cd17d" stroke-width="0.6"/>
<polygon points="70.0,463.3 82.4,463.3 94.8,462.4 107.2,460.2 119.7,458.3 132.1,454.2 144.5,449.8 156.9,449.8 169.3,444.0 181.7,443.8 194.1,442.7 206.6,445.5 219.0,442.7 231.4,442.7 243.8,433.6 256.2,432.2 268.6,429.2 281.0,425.6 293.4,425.6 305.9,422.3 318.3,422.3 330.7,410.1 343.1,401.1 355.5,395.8 367.9,391.8 380.3,390.4 392.8,388.6 405.2,387.0 417.6,381.1 430.0,379.4 442.4,373.1 454.8,372.3 467.2,370.7 479.7,368.6 492.1,366.9 504.5,360.0 516.9,346.8 529.3,345.9 541.7,344.1 554.1,339.7 566.6,339.1 579.0,333.4 591.4,208.6 603.8,192.0 616.2,186.7 628.6,174.3 641.0,169.9 653.4,164.8 665.9,160.8 678.3,159.2 690.7,157.9 703.1,155.7 715.5,154.2 727.9,150.9 740.3,126.1 752.8,125.1 765.2,123.7 777.6,123.0 790.0,123.0 790.0,128.9 777.6,128.9 765.2,129.6 752.8,131.0 740.3,132.0 727.9,156.8 715.5,160.1 703.1,161.5 690.7,163.7 678.3,165.1 665.9,166.7 653.4,170.7 641.0,175.8 628.6,180.1 616.2,192.5 603.8,197.8 591.4,211.8 579.0,334.2 566.6,340.0 554.1,340.5 541.7,344.9 529.3,346.7 516.9,347.7 504.5,360.8 492.1,367.7 479.7,369.5 467.2,371.5 454.8,373.1 442.4,374.0 430.0,380.2 417.6,381.9 405.2,387.9 392.8,389.4 380.3,391.2 367.9,392.7 355.5,396.6 343.1,402.0 330.7,411.0 318.3,423.1 305.9,423.1 293.4,426.5 281.0,426.5 268.6,430.0 256.2,433.1 243.8,434.4 231.4,443.6 219.0,443.6 206.6,446.3 194.1,443.6 181.7,444.6 169.3,444.8 156.9,450.6 144.5,450.6 132.1,455.0 119.7,459.1 107.2,461.0 94.8,462.4 82.4,463.3 70.0,463.3" fill="#86bcb6" fill-opacity="0.92" stroke="#86bcb6" stroke-width="0.6"/>
<line x1="70" y1="468" x2="790" y2="468" stroke="#b9b3a7"/>
<line x1="70" y1="58" x2="70" y2="468" stroke="#b9b3a7"/>
<line x1="70.0" y1="468" x2="70.0" y2="472" stroke="#b9b3a7"/>
<text x="70.0" y="485" font-size="10" fill="#8a857c" text-anchor="middle">00:31</text>
<line x1="156.9" y1="468" x2="156.9" y2="472" stroke="#b9b3a7"/>
<text x="156.9" y="485" font-size="10" fill="#8a857c" text-anchor="middle">01:29</text>
<line x1="243.8" y1="468" x2="243.8" y2="472" stroke="#b9b3a7"/>
<text x="243.8" y="485" font-size="10" fill="#8a857c" text-anchor="middle">02:58</text>
<line x1="330.7" y1="468" x2="330.7" y2="472" stroke="#b9b3a7"/>
<text x="330.7" y="485" font-size="10" fill="#8a857c" text-anchor="middle">04:17</text>
<line x1="417.6" y1="468" x2="417.6" y2="472" stroke="#b9b3a7"/>
<text x="417.6" y="485" font-size="10" fill="#8a857c" text-anchor="middle">05:06</text>
<line x1="504.5" y1="468" x2="504.5" y2="472" stroke="#b9b3a7"/>
<text x="504.5" y="485" font-size="10" fill="#8a857c" text-anchor="middle">06:16</text>
<line x1="591.4" y1="468" x2="591.4" y2="472" stroke="#b9b3a7"/>
<text x="591.4" y="485" font-size="10" fill="#8a857c" text-anchor="middle">12:35</text>
<line x1="678.3" y1="468" x2="678.3" y2="472" stroke="#b9b3a7"/>
<text x="678.3" y="485" font-size="10" fill="#8a857c" text-anchor="middle">18:14</text>
<line x1="765.2" y1="468" x2="765.2" y2="472" stroke="#b9b3a7"/>
<text x="765.2" y="485" font-size="10" fill="#8a857c" text-anchor="middle">19:50</text>
<text x="430.0" y="504" font-size="10" fill="#8a857c" text-anchor="middle">2026-09-05</text>
<text x="836" y="64" font-size="10" fill="#8a857c" letter-spacing="0.5">TARGET      MATCHED     OF ITSELF</text>
<rect x="836" y="71" width="11" height="11" fill="#4e79a7" rx="2"/>
<text x="853" y="80" font-size="11" fill="#3d3a35">main</text>
<text x="942" y="80" font-size="11" fill="#3d3a35" text-anchor="end">3,700</text>
<text x="986" y="80" font-size="11" fill="#8a857c" text-anchor="end">2.01%</text>
<rect x="836" y="88" width="11" height="11" fill="#f28e2b" rx="2"/>
<text x="853" y="97" font-size="11" fill="#3d3a35">atlus</text>
<text x="942" y="97" font-size="11" fill="#3d3a35" text-anchor="end">180</text>
<text x="986" y="97" font-size="11" fill="#8a857c" text-anchor="end">0.26%</text>
<rect x="836" y="105" width="11" height="11" fill="#e15759" rx="2"/>
<text x="853" y="114" font-size="11" fill="#3d3a35">open</text>
<text x="942" y="114" font-size="11" fill="#3d3a35" text-anchor="end">180</text>
<text x="986" y="114" font-size="11" fill="#8a857c" text-anchor="end">0.15%</text>
<rect x="836" y="122" width="11" height="11" fill="#76b7b2" rx="2"/>
<text x="853" y="131" font-size="11" fill="#3d3a35">movie</text>
<text x="942" y="131" font-size="11" fill="#3d3a35" text-anchor="end">136</text>
<text x="986" y="131" font-size="11" fill="#8a857c" text-anchor="end">0.16%</text>
<rect x="836" y="139" width="11" height="11" fill="#59a14f" rx="2"/>
<text x="853" y="148" font-size="11" fill="#3d3a35">end</text>
<text x="942" y="148" font-size="11" fill="#3d3a35" text-anchor="end">136</text>
<text x="986" y="148" font-size="11" fill="#8a857c" text-anchor="end">0.14%</text>
<rect x="836" y="156" width="11" height="11" fill="#edc948" rx="2"/>
<text x="853" y="165" font-size="11" fill="#3d3a35">dng</text>
<text x="942" y="165" font-size="11" fill="#3d3a35" text-anchor="end">17,832</text>
<text x="986" y="165" font-size="11" fill="#8a857c" text-anchor="end">8.97%</text>
<rect x="836" y="173" width="11" height="11" fill="#b07aa1" rx="2"/>
<text x="853" y="182" font-size="11" fill="#3d3a35">btlp</text>
<text x="942" y="182" font-size="11" fill="#3d3a35" text-anchor="end">168</text>
<text x="986" y="182" font-size="11" fill="#8a857c" text-anchor="end">0.12%</text>
<rect x="836" y="190" width="11" height="11" fill="#ff9da7" rx="2"/>
<text x="853" y="199" font-size="11" fill="#3d3a35">s2d</text>
<text x="942" y="199" font-size="11" fill="#3d3a35" text-anchor="end">17,864</text>
<text x="986" y="199" font-size="11" fill="#8a857c" text-anchor="end">8.53%</text>
<rect x="836" y="207" width="11" height="11" fill="#9c755f" rx="2"/>
<text x="853" y="216" font-size="11" fill="#3d3a35">adv</text>
<text x="942" y="216" font-size="11" fill="#3d3a35" text-anchor="end">25,780</text>
<text x="986" y="216" font-size="11" fill="#8a857c" text-anchor="end">11.60%</text>
<rect x="836" y="224" width="11" height="11" fill="#8cd17d" rx="2"/>
<text x="853" y="233" font-size="11" fill="#3d3a35">casino</text>
<text x="942" y="233" font-size="11" fill="#3d3a35" text-anchor="end">184</text>
<text x="986" y="233" font-size="11" fill="#8a857c" text-anchor="end">0.10%</text>
<rect x="836" y="241" width="11" height="11" fill="#86bcb6" rx="2"/>
<text x="853" y="250" font-size="11" fill="#3d3a35">name</text>
<text x="942" y="250" font-size="11" fill="#3d3a35" text-anchor="end">1,148</text>
<text x="986" y="250" font-size="11" fill="#8a857c" text-anchor="end">7.43%</text>
<text x="70" y="512" font-size="9.5" fill="#a49e93">The first 58 samples predate per-target recording and are reconstructed from the order functions were added; their grand totals are as measured.</text>
</svg>