<svg xmlns="http://www.w3.org/2000/svg" width="1080" height="520" viewBox="0 0 1080 520" font-family="Segoe UI, Helvetica, Arial, sans-serif">
<rect width="1080" height="520" fill="#fbfaf7"/>
<text x="70" y="28" font-size="17" font-weight="600" fill="#2b2b2b">Persona 1 (JP) - matching decompilation</text>
<text x="70" y="46" font-size="12" fill="#6b6b6b">107,700 of 1,026,168 bytes matched (10.495%) in 635 of 2132 functions</text>
<line x1="70" y1="468.0" x2="790" y2="468.0" stroke="#e3e0d8" stroke-width="1"/>
<text x="62" y="471.0" font-size="10" fill="#8a857c" text-anchor="end">0</text>
<text x="798" y="471.0" font-size="10" fill="#8a857c">0.0%</text>
<line x1="70" y1="399.7" x2="790" y2="399.7" stroke="#e3e0d8" stroke-width="1"/>
<text x="62" y="402.7" font-size="10" fill="#8a857c" text-anchor="end">20,000</text>
<text x="798" y="402.7" font-size="10" fill="#8a857c">1.9%</text>
<line x1="70" y1="331.3" x2="790" y2="331.3" stroke="#e3e0d8" stroke-width="1"/>
<text x="62" y="334.3" font-size="10" fill="#8a857c" text-anchor="end">40,000</text>
<text x="798" y="334.3" font-size="10" fill="#8a857c">3.9%</text>
<line x1="70" y1="263.0" x2="790" y2="263.0" stroke="#e3e0d8" stroke-width="1"/>
<text x="62" y="266.0" font-size="10" fill="#8a857c" text-anchor="end">60,000</text>
<text x="798" y="266.0" font-size="10" fill="#8a857c">5.8%</text>
<line x1="70" y1="194.7" x2="790" y2="194.7" stroke="#e3e0d8" stroke-width="1"/>
<text x="62" y="197.7" font-size="10" fill="#8a857c" text-anchor="end">80,000</text>
<text x="798" y="197.7" font-size="10" fill="#8a857c">7.8%</text>
<line x1="70" y1="126.3" x2="790" y2="126.3" stroke="#e3e0d8" stroke-width="1"/>
<text x="62" y="129.3" font-size="10" fill="#8a857c" text-anchor="end">100,000</text>
<text x="798" y="129.3" font-size="10" fill="#8a857c">9.7%</text>
<line x1="70" y1="58.0" x2="790" y2="58.0" stroke="#e3e0d8" stroke-width="1"/>
<text x="62" y="61.0" font-size="10" fill="#8a857c" text-anchor="end">120,000</text>
<text x="798" y="61.0" font-size="10" fill="#8a857c">11.7%</text>
<polygon points="70.0,467.3 74.6,467.3 79.1,467.3 83.7,467.3 88.2,467.3 92.8,464.5 97.3,461.6 101.9,461.6 106.5,457.7 111.0,457.6 115.6,457.6 120.1,458.4 124.7,457.6 129.2,457.6 133.8,457.6 138.4,457.6 142.9,457.6 147.5,457.6 152.0,457.6 156.6,455.4 161.1,455.4 165.7,456.1 170.3,455.8 174.8,455.3 179.4,455.7 183.9,455.8 188.5,455.8 193.0,455.8 197.6,455.7 202.2,455.7 206.7,455.9 211.3,456.0 215.8,456.0 220.4,455.8 224.9,455.8 229.5,455.8 234.1,455.3 238.6,455.6 243.2,455.7 247.7,455.6 252.3,455.6 256.8,455.3 261.4,455.9 265.9,455.8 270.5,455.6 275.1,455.2 279.6,455.2 284.2,455.2 288.7,455.2 293.3,455.3 297.8,455.3 302.4,455.3 307.0,455.3 311.5,455.2 316.1,454.4 320.6,454.7 325.2,455.6 329.7,455.6 334.3,455.4 338.9,455.4 343.4,455.4 348.0,455.4 352.5,455.4 357.1,455.4 361.6,455.4 366.2,455.4 370.8,455.4 375.3,455.4 379.9,455.9 384.4,455.4 389.0,455.4 393.5,455.4 398.1,455.4 402.7,455.4 407.2,455.4 411.8,455.4 416.3,455.4 420.9,455.4 425.4,455.4 430.0,455.4 434.6,455.4 439.1,455.4 443.7,455.4 448.2,455.4 452.8,455.4 457.3,455.4 461.9,455.4 466.5,455.4 471.0,455.4 475.6,455.4 480.1,455.4 484.7,455.4 489.2,455.4 493.8,455.4 498.4,455.4 502.9,455.4 507.5,455.4 512.0,455.4 516.6,455.4 521.1,455.4 525.7,455.4 530.3,455.4 534.8,455.4 539.4,455.4 543.9,455.4 548.5,455.4 553.0,455.4 557.6,455.4 562.2,455.4 566.7,455.4 571.3,455.4 575.8,455.4 580.4,455.4 584.9,455.4 589.5,455.4 594.1,455.4 598.6,455.4 603.2,455.4 607.7,455.4 612.3,455.4 616.8,455.4 621.4,455.4 625.9,455.4 630.5,455.4 635.1,455.4 639.6,455.4 644.2,455.4 648.7,455.4 653.3,455.4 657.8,455.4 662.4,455.4 667.0,455.4 671.5,455.4 676.1,455.4 680.6,455.4 685.2,455.4 689.7,455.4 694.3,455.4 698.9,455.4 703.4,455.4 708.0,455.4 712.5,455.4 717.1,455.4 721.6,455.4 726.2,455.4 730.8,455.4 735.3,455.4 739.9,455.4 744.4,455.4 749.0,455.4 753.5,455.4 758.1,455.4 762.7,455.4 767.2,455.4 771.8,455.4 776.3,455.4 780.9,455.4 785.4,455.4 790.0,455.4 790.0,468.0 785.4,468.0 780.9,468.0 776.3,468.0 771.8,468.0 767.2,468.0 762.7,468.0 758.1,468.0 753.5,468.0 749.0,468.0 744.4,468.0 739.9,468.0 735.3,468.0 730.8,468.0 726.2,468.0 721.6,468.0 717.1,468.0 712.5,468.0 708.0,468.0 703.4,468.0 698.9,468.0 694.3,468.0 689.7,468.0 685.2,468.0 680.6,468.0 676.1,468.0 671.5,468.0 667.0,468.0 662.4,468.0 657.8,468.0 653.3,468.0 648.7,468.0 644.2,468.0 639.6,468.0 635.1,468.0 630.5,468.0 625.9,468.0 621.4,468.0 616.8,468.0 612.3,468.0 607.7,468.0 603.2,468.0 598.6,468.0 594.1,468.0 589.5,468.0 584.9,468.0 580.4,468.0 575.8,468.0 571.3,468.0 566.7,468.0 562.2,468.0 557.6,468.0 553.0,468.0 548.5,468.0 543.9,468.0 539.4,468.0 534.8,468.0 530.3,468.0 525.7,468.0 521.1,468.0 516.6,468.0 512.0,468.0 507.5,468.0 502.9,468.0 498.4,468.0 493.8,468.0 489.2,468.0 484.7,468.0 480.1,468.0 475.6,468.0 471.0,468.0 466.5,468.0 461.9,468.0 457.3,468.0 452.8,468.0 448.2,468.0 443.7,468.0 439.1,468.0 434.6,468.0 430.0,468.0 425.4,468.0 420.9,468.0 416.3,468.0 411.8,468.0 407.2,468.0 402.7,468.0 398.1,468.0 393.5,468.0 389.0,468.0 384.4,468.0 379.9,468.0 375.3,468.0 370.8,468.0 366.2,468.0 361.6,468.0 357.1,468.0 352.5,468.0 348.0,468.0 343.4,468.0 338.9,468.0 334.3,468.0 329.7,468.0 325.2,468.0 320.6,468.0 316.1,468.0 311.5,468.0 307.0,468.0 302.4,468.0 297.8,468.0 293.3,468.0 288.7,468.0 284.2,468.0 279.6,468.0 275.1,468.0 270.5,468.0 265.9,468.0 261.4,468.0 256.8,468.0 252.3,468.0 247.7,468.0 243.2,468.0 238.6,468.0 234.1,468.0 229.5,468.0 224.9,468.0 220.4,468.0 215.8,468.0 211.3,468.0 206.7,468.0 202.2,468.0 197.6,468.0 193.0,468.0 188.5,468.0 183.9,468.0 179.4,468.0 174.8,468.0 170.3,468.0 165.7,468.0 161.1,468.0 156.6,468.0 152.0,468.0 147.5,468.0 142.9,468.0 138.4,468.0 133.8,468.0 129.2,468.0 124.7,468.0 120.1,468.0 115.6,468.0 111.0,468.0 106.5,468.0 101.9,468.0 97.3,468.0 92.8,468.0 88.2,468.0 83.7,468.0 79.1,468.0 74.6,468.0 70.0,468.0" fill="#4e79a7" fill-opacity="0.92" stroke="#4e79a7" stroke-width="0.6"/>
<polygon points="70.0,467.3 74.6,467.3 79.1,467.3 83.7,466.7 88.2,466.7 92.8,463.9 97.3,461.0 101.9,461.0 106.5,457.1 111.0,457.0 115.6,457.0 120.1,457.8 124.7,457.0 129.2,457.0 133.8,457.0 138.4,457.0 142.9,457.0 147.5,457.0 152.0,457.0 156.6,454.7 161.1,454.7 165.7,455.5 170.3,455.2 174.8,454.7 179.4,455.1 183.9,455.2 188.5,455.2 193.0,455.2 197.6,455.1 202.2,455.1 206.7,455.3 211.3,455.4 215.8,455.5 220.4,455.2 224.9,455.2 229.5,455.2 234.1,454.7 238.6,455.0 243.2,455.1 247.7,455.0 252.3,455.0 256.8,454.7 261.4,455.3 265.9,455.2 270.5,455.0 275.1,454.6 279.6,454.6 284.2,454.6 288.7,454.6 293.3,454.7 297.8,454.7 302.4,454.7 307.0,454.7 311.5,454.6 316.1,453.7 320.6,454.0 325.2,455.0 329.7,455.0 334.3,454.7 338.9,454.7 343.4,454.7 348.0,454.7 352.5,454.7 357.1,454.7 361.6,454.7 366.2,454.7 370.8,454.7 375.3,454.7 379.9,455.3 384.4,454.7 389.0,454.7 393.5,454.7 398.1,454.7 402.7,454.7 407.2,454.7 411.8,454.7 416.3,454.7 420.9,454.7 425.4,454.7 430.0,454.7 434.6,454.7 439.1,454.7 443.7,454.7 448.2,454.7 452.8,454.7 457.3,454.7 461.9,454.7 466.5,454.7 471.0,454.7 475.6,454.7 480.1,454.7 484.7,454.7 489.2,454.7 493.8,454.7 498.4,454.7 502.9,454.7 507.5,454.7 512.0,454.7 516.6,454.7 521.1,454.7 525.7,454.7 530.3,454.7 534.8,454.7 539.4,454.7 543.9,454.7 548.5,454.7 553.0,454.7 557.6,454.7 562.2,454.7 566.7,454.7 571.3,454.7 575.8,454.7 580.4,454.7 584.9,454.7 589.5,454.7 594.1,454.7 598.6,454.7 603.2,454.7 607.7,454.7 612.3,454.7 616.8,454.7 621.4,454.7 625.9,454.7 630.5,454.7 635.1,454.7 639.6,454.7 644.2,454.7 648.7,454.7 653.3,454.7 657.8,454.7 662.4,454.7 667.0,454.7 671.5,454.7 676.1,454.7 680.6,454.7 685.2,454.7 689.7,454.7 694.3,454.7 698.9,454.7 703.4,454.7 708.0,454.7 712.5,454.7 717.1,454.7 721.6,454.7 726.2,454.7 730.8,454.7 735.3,454.7 739.9,454.7 744.4,454.7 749.0,454.7 753.5,454.7 758.1,454.7 762.7,454.7 767.2,454.7 771.8,454.7 776.3,454.7 780.9,454.7 785.4,454.7 790.0,454.7 790.0,455.4 785.4,455.4 780.9,455.4 776.3,455.4 771.8,455.4 767.2,455.4 762.7,455.4 758.1,455.4 753.5,455.4 749.0,455.4 744.4,455.4 739.9,455.4 735.3,455.4 730.8,455.4 726.2,455.4 721.6,455.4 717.1,455.4 712.5,455.4 708.0,455.4 703.4,455.4 698.9,455.4 694.3,455.4 689.7,455.4 685.2,455.4 680.6,455.4 676.1,455.4 671.5,455.4 667.0,455.4 662.4,455.4 657.8,455.4 653.3,455.4 648.7,455.4 644.2,455.4 639.6,455.4 635.1,455.4 630.5,455.4 625.9,455.4 621.4,455.4 616.8,455.4 612.3,455.4 607.7,455.4 603.2,455.4 598.6,455.4 594.1,455.4 589.5,455.4 584.9,455.4 580.4,455.4 575.8,455.4 571.3,455.4 566.7,455.4 562.2,455.4 557.6,455.4 553.0,455.4 548.5,455.4 543.9,455.4 539.4,455.4 534.8,455.4 530.3,455.4 525.7,455.4 521.1,455.4 516.6,455.4 512.0,455.4 507.5,455.4 502.9,455.4 498.4,455.4 493.8,455.4 489.2,455.4 484.7,455.4 480.1,455.4 475.6,455.4 471.0,455.4 466.5,455.4 461.9,455.4 457.3,455.4 452.8,455.4 448.2,455.4 443.7,455.4 439.1,455.4 434.6,455.4 430.0,455.4 425.4,455.4 420.9,455.4 416.3,455.4 411.8,455.4 407.2,455.4 402.7,455.4 398.1,455.4 393.5,455.4 389.0,455.4 384.4,455.4 379.9,455.9 375.3,455.4 370.8,455.4 366.2,455.4 361.6,455.4 357.1,455.4 352.5,455.4 348.0,455.4 343.4,455.4 338.9,455.4 334.3,455.4 329.7,455.6 325.2,455.6 320.6,454.7 316.1,454.4 311.5,455.2 307.0,455.3 302.4,455.3 297.8,455.3 293.3,455.3 288.7,455.2 284.2,455.2 279.6,455.2 275.1,455.2 270.5,455.6 265.9,455.8 261.4,455.9 256.8,455.3 252.3,455.6 247.7,455.6 243.2,455.7 238.6,455.6 234.1,455.3 229.5,455.8 224.9,455.8 220.4,455.8 215.8,456.0 211.3,456.0 206.7,455.9 202.2,455.7 197.6,455.7 193.0,455.8 188.5,455.8 183.9,455.8 179.4,455.7 174.8,455.3 170.3,455.8 165.7,456.1 161.1,455.4 156.6,455.4 152.0,457.6 147.5,457.6 142.9,457.6 138.4,457.6 133.8,457.6 129.2,457.6 124.7,457.6 120.1,458.4 115.6,457.6 111.0,457.6 106.5,457.7 101.9,461.6 97.3,461.6 92.8,464.5 88.2,467.3 83.7,467.3 79.1,467.3 74.6,467.3 70.0,467.3" fill="#f28e2b" fill-opacity="0.92" stroke="#f28e2b" stroke-width="0.6"/>
<polygon points="70.0,467.3 74.6,467.3 79.1,467.3 83.7,466.7 88.2,466.0 92.8,463.3 97.3,460.4 101.9,460.4 106.5,456.5 111.0,456.4 115.6,456.4 120.1,457.2 124.7,456.4 129.2,456.4 133.8,456.4 138.4,456.4 142.9,456.4 147.5,456.4 152.0,456.4 156.6,454.1 161.1,454.1 165.7,454.9 170.3,454.6 174.8,454.1 179.4,454.5 183.9,454.6 188.5,454.6 193.0,454.6 197.6,454.5 202.2,454.5 206.7,454.7 211.3,454.8 215.8,454.9 220.4,454.6 224.9,454.6 229.5,454.6 234.1,454.1 238.6,454.4 243.2,454.5 247.7,454.4 252.3,454.4 256.8,454.0 261.4,454.7 265.9,454.6 270.5,454.4 275.1,454.0 279.6,453.9 284.2,453.9 288.7,454.0 293.3,454.0 297.8,454.1 302.4,454.0 307.0,454.0 311.5,454.0 316.1,453.0 320.6,453.4 325.2,454.4 329.7,454.4 334.3,454.1 338.9,454.1 343.4,454.1 348.0,454.1 352.5,454.1 357.1,454.1 361.6,454.1 366.2,454.1 370.8,454.1 375.3,454.1 379.9,454.7 384.4,454.1 389.0,454.1 393.5,454.1 398.1,454.1 402.7,454.1 407.2,454.1 411.8,454.1 416.3,454.1 420.9,454.1 425.4,454.1 430.0,454.1 434.6,454.1 439.1,454.1 443.7,454.1 448.2,454.1 452.8,454.1 457.3,454.1 461.9,454.1 466.5,454.1 471.0,454.1 475.6,454.1 480.1,454.1 484.7,454.1 489.2,454.1 493.8,454.1 498.4,454.1 502.9,454.1 507.5,454.1 512.0,454.1 516.6,454.1 521.1,454.1 525.7,454.1 530.3,454.1 534.8,454.1 539.4,454.1 543.9,454.1 548.5,454.1 553.0,454.1 557.6,454.1 562.2,454.1 566.7,454.1 571.3,454.1 575.8,454.1 580.4,454.1 584.9,454.1 589.5,454.1 594.1,454.1 598.6,454.1 603.2,454.1 607.7,454.1 612.3,454.1 616.8,454.1 621.4,454.1 625.9,454.1 630.5,454.1 635.1,454.1 639.6,454.1 644.2,454.1 648.7,454.1 653.3,454.1 657.8,454.1 662.4,454.1 667.0,454.1 671.5,454.1 676.1,454.1 680.6,454.1 685.2,454.1 689.7,454.1 694.3,454.1 698.9,454.1 703.4,454.1 708.0,454.1 712.5,454.1 717.1,454.1 721.6,454.1 726.2,454.1 730.8,454.1 735.3,454.1 739.9,454.1 744.4,454.1 749.0,454.1 753.5,454.1 758.1,454.1 762.7,454.1 767.2,454.1 771.8,454.1 776.3,454.1 780.9,454.1 785.4,454.1 790.0,454.1 790.0,454.7 785.4,454.7 780.9,454.7 776.3,454.7 771.8,454.7 767.2,454.7 762.7,454.7 758.1,454.7 753.5,454.7 749.0,454.7 744.4,454.7 739.9,454.7 735.3,454.7 730.8,454.7 726.2,454.7 721.6,454.7 717.1,454.7 712.5,454.7 708.0,454.7 703.4,454.7 698.9,454.7 694.3,454.7 689.7,454.7 685.2,454.7 680.6,454.7 676.1,454.7 671.5,454.7 667.0,454.7 662.4,454.7 657.8,454.7 653.3,454.7 648.7,454.7 644.2,454.7 639.6,454.7 635.1,454.7 630.5,454.7 625.9,454.7 621.4,454.7 616.8,454.7 612.3,454.7 607.7,454.7 603.2,454.7 598.6,454.7 594.1,454.7 589.5,454.7 584.9,454.7 580.4,454.7 575.8,454.7 571.3,454.7 566.7,454.7 562.2,454.7 557.6,454.7 553.0,454.7 548.5,454.7 543.9,454.7 539.4,454.7 534.8,454.7 530.3,454.7 525.7,454.7 521.1,454.7 516.6,454.7 512.0,454.7 507.5,454.7 502.9,454.7 498.4,454.7 493.8,454.7 489.2,454.7 484.7,454.7 480.1,454.7 475.6,454.7 471.0,454.7 466.5,454.7 461.9,454.7 457.3,454.7 452.8,454.7 448.2,454.7 443.7,454.7 439.1,454.7 434.6,454.7 430.0,454.7 425.4,454.7 420.9,454.7 416.3,454.7 411.8,454.7 407.2,454.7 402.7,454.7 398.1,454.7 393.5,454.7 389.0,454.7 384.4,454.7 379.9,455.3 375.3,454.7 370.8,454.7 366.2,454.7 361.6,454.7 357.1,454.7 352.5,454.7 348.0,454.7 343.4,454.7 338.9,454.7 334.3,454.7 329.7,455.0 325.2,455.0 320.6,454.0 316.1,453.7 311.5,454.6 307.0,454.7 302.4,454.7 297.8,454.7 293.3,454.7 288.7,454.6 284.2,454.6 279.6,454.6 275.1,454.6 270.5,455.0 265.9,455.2 261.4,455.3 256.8,454.7 252.3,455.0 247.7,455.0 243.2,455.1 238.6,455.0 234.1,454.7 229.5,455.2 224.9,455.2 220.4,455.2 215.8,455.5 211.3,455.4 206.7,455.3 202.2,455.1 197.6,455.1 193.0,455.2 188.5,455.2 183.9,455.2 179.4,455.1 174.8,454.7 170.3,455.2 165.7,455.5 161.1,454.7 156.6,454.7 152.0,457.0 147.5,457.0 142.9,457.0 138.4,457.0 133.8,457.0 129.2,457.0 124.7,457.0 120.1,457.8 115.6,457.0 111.0,457.0 106.5,457.1 101.9,461.0 97.3,461.0 92.8,463.9 88.2,466.7 83.7,466.7 79.1,467.3 74.6,467.3 70.0,467.3" fill="#e15759" fill-opacity="0.92" stroke="#e15759" stroke-width="0.6"/>
<polygon points="70.0,467.3 74.6,467.3 79.1,467.3 83.7,466.7 88.2,465.6 92.8,462.8 97.3,459.9 101.9,459.9 106.5,456.0 111.0,455.9 115.6,455.9 120.1,456.8 124.7,455.9 129.2,455.9 133.8,455.9 138.4,455.9 142.9,455.9 147.5,455.9 152.0,455.9 156.6,453.7 161.1,453.7 165.7,454.5 170.3,454.2 174.8,453.6 179.4,454.1 183.9,454.2 188.5,454.1 193.0,454.2 197.6,454.0 202.2,454.1 206.7,454.3 211.3,454.4 215.8,454.4 220.4,454.2 224.9,454.2 229.5,454.1 234.1,453.6 238.6,453.9 243.2,454.1 247.7,454.0 252.3,454.0 256.8,453.6 261.4,454.3 265.9,454.1 270.5,454.0 275.1,453.5 279.6,453.5 284.2,453.5 288.7,453.5 293.3,453.6 297.8,453.6 302.4,453.6 307.0,453.6 311.5,453.5 316.1,452.5 320.6,452.9 325.2,453.9 329.7,453.9 334.3,453.7 338.9,453.7 343.4,453.7 348.0,453.7 352.5,453.7 357.1,453.7 361.6,453.7 366.2,453.7 370.8,453.7 375.3,453.7 379.9,454.3 384.4,453.7 389.0,453.7 393.5,453.7 398.1,453.7 402.7,453.7 407.2,453.7 411.8,453.7 416.3,453.7 420.9,453.7 425.4,453.7 430.0,453.7 434.6,453.7 439.1,453.7 443.7,453.7 448.2,453.7 452.8,453.7 457.3,453.7 461.9,453.7 466.5,453.7 471.0,453.7 475.6,453.7 480.1,453.7 484.7,453.7 489.2,453.7 493.8,453.7 498.4,453.7 502.9,453.7 507.5,453.7 512.0,453.7 516.6,453.7 521.1,453.7 525.7,453.7 530.3,453.7 534.8,453.7 539.4,453.7 543.9,453.7 548.5,453.7 553.0,453.7 557.6,453.7 562.2,453.7 566.7,453.7 571.3,453.7 575.8,453.7 580.4,453.7 584.9,453.7 589.5,453.7 594.1,453.7 598.6,453.7 603.2,453.7 607.7,453.7 612.3,453.7 616.8,453.7 621.4,453.7 625.9,453.7 630.5,453.7 635.1,453.7 639.6,453.7 644.2,453.7 648.7,453.7 653.3,453.7 657.8,453.7 662.4,453.7 667.0,453.7 671.5,453.7 676.1,453.7 680.6,453.7 685.2,453.7 689.7,453.7 694.3,453.7 698.9,453.7 703.4,453.7 708.0,453.7 712.5,453.7 717.1,453.7 721.6,453.7 726.2,453.7 730.8,453.7 735.3,453.7 739.9,453.7 744.4,453.7 749.0,453.7 753.5,453.7 758.1,453.7 762.7,453.7 767.2,453.7 771.8,453.7 776.3,453.7 780.9,453.7 785.4,453.7 790.0,453.7 790.0,454.1 785.4,454.1 780.9,454.1 776.3,454.1 771.8,454.1 767.2,454.1 762.7,454.1 758.1,454.1 753.5,454.1 749.0,454.1 744.4,454.1 739.9,454.1 735.3,454.1 730.8,454.1 726.2,454.1 721.6,454.1 717.1,454.1 712.5,454.1 708.0,454.1 703.4,454.1 698.9,454.1 694.3,454.1 689.7,454.1 685.2,454.1 680.6,454.1 676.1,454.1 671.5,454.1 667.0,454.1 662.4,454.1 657.8,454.1 653.3,454.1 648.7,454.1 644.2,454.1 639.6,454.1 635.1,454.1 630.5,454.1 625.9,454.1 621.4,454.1 616.8,454.1 612.3,454.1 607.7,454.1 603.2,454.1 598.6,454.1 594.1,454.1 589.5,454.1 584.9,454.1 580.4,454.1 575.8,454.1 571.3,454.1 566.7,454.1 562.2,454.1 557.6,454.1 553.0,454.1 548.5,454.1 543.9,454.1 539.4,454.1 534.8,454.1 530.3,454.1 525.7,454.1 521.1,454.1 516.6,454.1 512.0,454.1 507.5,454.1 502.9,454.1 498.4,454.1 493.8,454.1 489.2,454.1 484.7,454.1 480.1,454.1 475.6,454.1 471.0,454.1 466.5,454.1 461.9,454.1 457.3,454.1 452.8,454.1 448.2,454.1 443.7,454.1 439.1,454.1 434.6,454.1 430.0,454.1 425.4,454.1 420.9,454.1 416.3,454.1 411.8,454.1 407.2,454.1 402.7,454.1 398.1,454.1 393.5,454.1 389.0,454.1 384.4,454.1 379.9,454.7 375.3,454.1 370.8,454.1 366.2,454.1 361.6,454.1 357.1,454.1 352.5,454.1 348.0,454.1 343.4,454.1 338.9,454.1 334.3,454.1 329.7,454.4 325.2,454.4 320.6,453.4 316.1,453.0 311.5,454.0 307.0,454.0 302.4,454.0 297.8,454.1 293.3,454.0 288.7,454.0 284.2,453.9 279.6,453.9 275.1,454.0 270.5,454.4 265.9,454.6 261.4,454.7 256.8,454.0 252.3,454.4 247.7,454.4 243.2,454.5 238.6,454.4 234.1,454.1 229.5,454.6 224.9,454.6 220.4,454.6 215.8,454.9 211.3,454.8 206.7,454.7 202.2,454.5 197.6,454.5 193.0,454.6 188.5,454.6 183.9,454.6 179.4,454.5 174.8,454.1 170.3,454.6 165.7,454.9 161.1,454.1 156.6,454.1 152.0,456.4 147.5,456.4 142.9,456.4 138.4,456.4 133.8,456.4 129.2,456.4 124.7,456.4 120.1,457.2 115.6,456.4 111.0,456.4 106.5,456.5 101.9,460.4 97.3,460.4 92.8,463.3 88.2,466.0 83.7,466.7 79.1,467.3 74.6,467.3 70.0,467.3" fill="#76b7b2" fill-opacity="0.92" stroke="#76b7b2" stroke-width="0.6"/>
<polygon points="70.0,467.3 74.6,467.3 79.1,467.3 83.7,466.2 88.2,465.1 92.8,462.4 97.3,459.4 101.9,459.4 106.5,455.6 111.0,455.4 115.6,455.4 120.1,456.3 124.7,455.4 129.2,455.4 133.8,455.4 138.4,455.4 142.9,455.4 147.5,455.4 152.0,455.4 156.6,453.2 161.1,453.2 165.7,454.1 170.3,453.7 174.8,453.2 179.4,453.6 183.9,453.7 188.5,453.7 193.0,453.7 197.6,453.6 202.2,453.6 206.7,453.8 211.3,453.9 215.8,454.0 220.4,453.7 224.9,453.7 229.5,453.7 234.1,453.2 238.6,453.5 243.2,453.6 247.7,453.5 252.3,453.5 256.8,453.1 261.4,453.8 265.9,453.7 270.5,453.5 275.1,453.0 279.6,453.0 284.2,453.0 288.7,453.0 293.3,453.1 297.8,453.1 302.4,453.1 307.0,453.1 311.5,453.0 316.1,452.0 320.6,452.4 325.2,453.5 329.7,453.4 334.3,453.2 338.9,453.2 343.4,453.2 348.0,453.2 352.5,453.2 357.1,453.2 361.6,453.2 366.2,453.2 370.8,453.2 375.3,453.2 379.9,453.8 384.4,453.2 389.0,453.2 393.5,453.2 398.1,453.2 402.7,453.2 407.2,453.2 411.8,453.2 416.3,453.2 420.9,453.2 425.4,453.2 430.0,453.2 434.6,453.2 439.1,453.2 443.7,453.2 448.2,453.2 452.8,453.2 457.3,453.2 461.9,453.2 466.5,453.2 471.0,453.2 475.6,453.2 480.1,453.2 484.7,453.2 489.2,453.2 493.8,453.2 498.4,453.2 502.9,453.2 507.5,453.2 512.0,453.2 516.6,453.2 521.1,453.2 525.7,453.2 530.3,453.2 534.8,453.2 539.4,453.2 543.9,453.2 548.5,453.2 553.0,453.2 557.6,453.2 562.2,453.2 566.7,453.2 571.3,453.2 575.8,453.2 580.4,453.2 584.9,453.2 589.5,453.2 594.1,453.2 598.6,453.2 603.2,453.2 607.7,453.2 612.3,453.2 616.8,453.2 621.4,453.2 625.9,453.2 630.5,453.2 635.1,453.2 639.6,453.2 644.2,453.2 648.7,453.2 653.3,453.2 657.8,453.2 662.4,453.2 667.0,453.2 671.5,453.2 676.1,453.2 680.6,453.2 685.2,453.2 689.7,453.2 694.3,453.2 698.9,453.2 703.4,453.2 708.0,453.2 712.5,453.2 717.1,453.2 721.6,453.2 726.2,453.2 730.8,453.2 735.3,453.2 739.9,453.2 744.4,453.2 749.0,453.2 753.5,453.2 758.1,453.2 762.7,453.2 767.2,453.2 771.8,453.2 776.3,453.2 780.9,453.2 785.4,453.2 790.0,453.2 790.0,453.7 785.4,453.7 780.9,453.7 776.3,453.7 771.8,453.7 767.2,453.7 762.7,453.7 758.1,453.7 753.5,453.7 749.0,453.7 744.4,453.7 739.9,453.7 735.3,453.7 730.8,453.7 726.2,453.7 721.6,453.7 717.1,453.7 712.5,453.7 708.0,453.7 703.4,453.7 698.9,453.7 694.3,453.7 689.7,453.7 685.2,453.7 680.6,453.7 676.1,453.7 671.5,453.7 667.0,453.7 662.4,453.7 657.8,453.7 653.3,453.7 648.7,453.7 644.2,453.7 639.6,453.7 635.1,453.7 630.5,453.7 625.9,453.7 621.4,453.7 616.8,453.7 612.3,453.7 607.7,453.7 603.2,453.7 598.6,453.7 594.1,453.7 589.5,453.7 584.9,453.7 580.4,453.7 575.8,453.7 571.3,453.7 566.7,453.7 562.2,453.7 557.6,453.7 553.0,453.7 548.5,453.7 543.9,453.7 539.4,453.7 534.8,453.7 530.3,453.7 525.7,453.7 521.1,453.7 516.6,453.7 512.0,453.7 507.5,453.7 502.9,453.7 498.4,453.7 493.8,453.7 489.2,453.7 484.7,453.7 480.1,453.7 475.6,453.7 471.0,453.7 466.5,453.7 461.9,453.7 457.3,453.7 452.8,453.7 448.2,453.7 443.7,453.7 439.1,453.7 434.6,453.7 430.0,453.7 425.4,453.7 420.9,453.7 416.3,453.7 411.8,453.7 407.2,453.7 402.7,453.7 398.1,453.7 393.5,453.7 389.0,453.7 384.4,453.7 379.9,454.3 375.3,453.7 370.8,453.7 366.2,453.7 361.6,453.7 357.1,453.7 352.5,453.7 348.0,453.7 343.4,453.7 338.9,453.7 334.3,453.7 329.7,453.9 325.2,453.9 320.6,452.9 316.1,452.5 311.5,453.5 307.0,453.6 302.4,453.6 297.8,453.6 293.3,453.6 288.7,453.5 284.2,453.5 279.6,453.5 275.1,453.5 270.5,454.0 265.9,454.1 261.4,454.3 256.8,453.6 252.3,454.0 247.7,454.0 243.2,454.1 238.6,453.9 234.1,453.6 229.5,454.1 224.9,454.2 220.4,454.2 215.8,454.4 211.3,454.4 206.7,454.3 202.2,454.1 197.6,454.0 193.0,454.2 188.5,454.1 183.9,454.2 179.4,454.1 174.8,453.6 170.3,454.2 165.7,454.5 161.1,453.7 156.6,453.7 152.0,455.9 147.5,455.9 142.9,455.9 138.4,455.9 133.8,455.9 129.2,455.9 124.7,455.9 120.1,456.8 115.6,455.9 111.0,455.9 106.5,456.0 101.9,459.9 97.3,459.9 92.8,462.8 88.2,465.6 83.7,466.7 79.1,467.3 74.6,467.3 70.0,467.3" fill="#59a14f" fill-opacity="0.92" stroke="#59a14f" stroke-width="0.6"/>
<polygon points="70.0,466.7 74.6,466.7 79.1,466.7 83.7,465.7 88.2,464.5 92.8,461.8 97.3,458.8 101.9,458.8 106.5,455.0 111.0,454.9 115.6,454.3 120.1,455.8 124.7,454.3 129.2,454.3 133.8,452.3 138.4,452.0 142.9,451.3 147.5,450.5 152.0,450.5 156.6,448.3 161.1,448.3 165.7,447.2 170.3,445.5 174.8,444.2 179.4,442.8 183.9,442.6 188.5,442.2 193.0,441.8 197.6,440.4 202.2,440.1 206.7,438.7 211.3,438.7 215.8,438.5 220.4,437.8 224.9,437.8 229.5,437.0 234.1,434.2 238.6,432.5 243.2,432.8 247.7,432.2 252.3,432.2 256.8,430.7 261.4,408.1 265.9,406.3 270.5,405.1 275.1,402.2 279.6,402.1 284.2,401.0 288.7,400.1 293.3,399.4 297.8,399.4 302.4,398.2 307.0,398.3 311.5,397.8 316.1,392.2 320.6,394.1 325.2,393.6 329.7,393.5 334.3,392.3 338.9,392.3 343.4,392.3 348.0,390.6 352.5,389.7 357.1,389.2 361.6,389.2 366.2,387.9 370.8,387.9 375.3,387.9 379.9,388.5 384.4,387.9 389.0,386.9 393.5,386.9 398.1,388.1 402.7,386.9 407.2,386.7 411.8,386.4 416.3,386.4 420.9,386.4 425.4,386.4 430.0,385.7 434.6,385.5 439.1,385.5 443.7,385.5 448.2,385.5 452.8,385.5 457.3,385.0 461.9,385.0 466.5,385.0 471.0,385.0 475.6,385.0 480.1,385.0 484.7,385.0 489.2,385.0 493.8,385.0 498.4,385.0 502.9,385.0 507.5,385.0 512.0,385.0 516.6,385.0 521.1,385.0 525.7,385.0 530.3,385.0 534.8,385.0 539.4,385.0 543.9,385.0 548.5,385.0 553.0,385.0 557.6,385.0 562.2,385.0 566.7,385.0 571.3,385.0 575.8,385.0 580.4,385.0 584.9,385.9 589.5,385.0 594.1,385.0 598.6,385.0 603.2,385.0 607.7,385.0 612.3,385.0 616.8,385.0 621.4,385.0 625.9,385.0 630.5,385.0 635.1,385.0 639.6,385.0 644.2,385.0 648.7,385.0 653.3,385.0 657.8,385.0 662.4,385.0 667.0,385.0 671.5,385.0 676.1,385.0 680.6,385.0 685.2,385.0 689.7,385.0 694.3,385.0 698.9,385.0 703.4,385.0 708.0,384.5 712.5,383.8 717.1,383.8 721.6,383.4 726.2,383.4 730.8,383.4 735.3,383.4 739.9,383.4 744.4,383.4 749.0,383.4 753.5,383.4 758.1,383.4 762.7,383.4 767.2,383.4 771.8,382.9 776.3,382.4 780.9,382.4 785.4,382.4 790.0,382.4 790.0,453.2 785.4,453.2 780.9,453.2 776.3,453.2 771.8,453.2 767.2,453.2 762.7,453.2 758.1,453.2 753.5,453.2 749.0,453.2 744.4,453.2 739.9,453.2 735.3,453.2 730.8,453.2 726.2,453.2 721.6,453.2 717.1,453.2 712.5,453.2 708.0,453.2 703.4,453.2 698.9,453.2 694.3,453.2 689.7,453.2 685.2,453.2 680.6,453.2 676.1,453.2 671.5,453.2 667.0,453.2 662.4,453.2 657.8,453.2 653.3,453.2 648.7,453.2 644.2,453.2 639.6,453.2 635.1,453.2 630.5,453.2 625.9,453.2 621.4,453.2 616.8,453.2 612.3,453.2 607.7,453.2 603.2,453.2 598.6,453.2 594.1,453.2 589.5,453.2 584.9,453.2 580.4,453.2 575.8,453.2 571.3,453.2 566.7,453.2 562.2,453.2 557.6,453.2 553.0,453.2 548.5,453.2 543.9,453.2 539.4,453.2 534.8,453.2 530.3,453.2 525.7,453.2 521.1,453.2 516.6,453.2 512.0,453.2 507.5,453.2 502.9,453.2 498.4,453.2 493.8,453.2 489.2,453.2 484.7,453.2 480.1,453.2 475.6,453.2 471.0,453.2 466.5,453.2 461.9,453.2 457.3,453.2 452.8,453.2 448.2,453.2 443.7,453.2 439.1,453.2 434.6,453.2 430.0,453.2 425.4,453.2 420.9,453.2 416.3,453.2 411.8,453.2 407.2,453.2 402.7,453.2 398.1,453.2 393.5,453.2 389.0,453.2 384.4,453.2 379.9,453.8 375.3,453.2 370.8,453.2 366.2,453.2 361.6,453.2 357.1,453.2 352.5,453.2 348.0,453.2 343.4,453.2 338.9,453.2 334.3,453.2 329.7,453.4 325.2,453.5 320.6,452.4 316.1,452.0 311.5,453.0 307.0,453.1 302.4,453.1 297.8,453.1 293.3,453.1 288.7,453.0 284.2,453.0 279.6,453.0 275.1,453.0 270.5,453.5 265.9,453.7 261.4,453.8 256.8,453.1 252.3,453.5 247.7,453.5 243.2,453.6 238.6,453.5 234.1,453.2 229.5,453.7 224.9,453.7 220.4,453.7 215.8,454.0 211.3,453.9 206.7,453.8 202.2,453.6 197.6,453.6 193.0,453.7 188.5,453.7 183.9,453.7 179.4,453.6 174.8,453.2 170.3,453.7 165.7,454.1 161.1,453.2 156.6,453.2 152.0,455.4 147.5,455.4 142.9,455.4 138.4,455.4 133.8,455.4 129.2,455.4 124.7,455.4 120.1,456.3 115.6,455.4 111.0,455.4 106.5,455.6 101.9,459.4 97.3,459.4 92.8,462.4 88.2,465.1 83.7,466.2 79.1,467.3 74.6,467.3 70.0,467.3" fill="#edc948" fill-opacity="0.92" stroke="#edc948" stroke-width="0.6"/>
<polygon points="70.0,466.1 74.6,466.1 79.1,466.1 83.7,465.1 88.2,464.0 92.8,461.2 97.3,458.3 101.9,458.3 106.5,454.4 111.0,454.3 115.6,453.7 120.1,455.2 124.7,453.7 129.2,453.7 133.8,451.7 138.4,451.4 142.9,450.7 147.5,449.9 152.0,449.9 156.6,447.7 161.1,447.7 165.7,446.6 170.3,444.9 174.8,443.6 179.4,442.3 183.9,442.0 188.5,441.6 193.0,441.3 197.6,439.8 202.2,439.5 206.7,438.2 211.3,438.2 215.8,438.0 220.4,437.3 224.9,437.3 229.5,436.4 234.1,433.6 238.6,432.0 243.2,432.3 247.7,431.6 252.3,431.6 256.8,430.1 261.4,407.5 265.9,405.8 270.5,404.6 275.1,401.7 279.6,401.5 284.2,400.4 288.7,399.5 293.3,398.8 297.8,398.9 302.4,397.6 307.0,397.7 311.5,397.2 316.1,391.6 320.6,393.5 325.2,393.1 329.7,393.0 334.3,391.7 338.9,391.7 343.4,391.7 348.0,390.0 352.5,389.2 357.1,388.6 361.6,388.6 366.2,387.3 370.8,387.3 375.3,387.3 379.9,387.9 384.4,387.3 389.0,383.9 393.5,383.0 398.1,384.2 402.7,383.0 407.2,382.8 411.8,382.6 416.3,382.6 420.9,382.6 425.4,382.6 430.0,381.9 434.6,381.7 439.1,381.7 443.7,381.7 448.2,381.7 452.8,380.1 457.3,379.6 461.9,378.9 466.5,374.7 471.0,373.1 475.6,372.8 480.1,372.4 484.7,370.3 489.2,369.8 493.8,368.3 498.4,368.0 502.9,367.4 507.5,367.4 512.0,367.2 516.6,366.3 521.1,365.0 525.7,363.8 530.3,363.3 534.8,361.9 539.4,361.4 543.9,358.8 548.5,358.4 553.0,357.2 557.6,356.6 562.2,356.2 566.7,354.3 571.3,351.1 575.8,350.6 580.4,347.9 584.9,345.4 589.5,343.0 594.1,341.1 598.6,338.9 603.2,336.7 607.7,335.4 612.3,333.3 616.8,333.1 621.4,332.2 625.9,331.9 630.5,330.6 635.1,327.3 639.6,325.9 644.2,324.4 648.7,324.4 653.3,322.8 657.8,321.6 662.4,321.6 667.0,320.6 671.5,320.6 676.1,320.6 680.6,320.6 685.2,320.6 689.7,320.6 694.3,319.3 698.9,319.3 703.4,319.3 708.0,318.7 712.5,318.0 717.1,318.0 721.6,317.7 726.2,317.7 730.8,317.7 735.3,317.7 739.9,317.7 744.4,317.7 749.0,317.7 753.5,317.7 758.1,317.7 762.7,317.7 767.2,317.7 771.8,317.2 776.3,316.7 780.9,316.7 785.4,316.7 790.0,316.7 790.0,382.4 785.4,382.4 780.9,382.4 776.3,382.4 771.8,382.9 767.2,383.4 762.7,383.4 758.1,383.4 753.5,383.4 749.0,383.4 744.4,383.4 739.9,383.4 735.3,383.4 730.8,383.4 726.2,383.4 721.6,383.4 717.1,383.8 712.5,383.8 708.0,384.5 703.4,385.0 698.9,385.0 694.3,385.0 689.7,385.0 685.2,385.0 680.6,385.0 676.1,385.0 671.5,385.0 667.0,385.0 662.4,385.0 657.8,385.0 653.3,385.0 648.7,385.0 644.2,385.0 639.6,385.0 635.1,385.0 630.5,385.0 625.9,385.0 621.4,385.0 616.8,385.0 612.3,385.0 607.7,385.0 603.2,385.0 598.6,385.0 594.1,385.0 589.5,385.0 584.9,385.9 580.4,385.0 575.8,385.0 571.3,385.0 566.7,385.0 562.2,385.0 557.6,385.0 553.0,385.0 548.5,385.0 543.9,385.0 539.4,385.0 534.8,385.0 530.3,385.0 525.7,385.0 521.1,385.0 516.6,385.0 512.0,385.0 507.5,385.0 502.9,385.0 498.4,385.0 493.8,385.0 489.2,385.0 484.7,385.0 480.1,385.0 475.6,385.0 471.0,385.0 466.5,385.0 461.9,385.0 457.3,385.0 452.8,385.5 448.2,385.5 443.7,385.5 439.1,385.5 434.6,385.5 430.0,385.7 425.4,386.4 420.9,386.4 416.3,386.4 411.8,386.4 407.2,386.7 402.7,386.9 398.1,388.1 393.5,386.9 389.0,386.9 384.4,387.9 379.9,388.5 375.3,387.9 370.8,387.9 366.2,387.9 361.6,389.2 357.1,389.2 352.5,389.7 348.0,390.6 343.4,392.3 338.9,392.3 334.3,392.3 329.7,393.5 325.2,393.6 320.6,394.1 316.1,392.2 311.5,397.8 307.0,398.3 302.4,398.2 297.8,399.4 293.3,399.4 288.7,400.1 284.2,401.0 279.6,402.1 275.1,402.2 270.5,405.1 265.9,406.3 261.4,408.1 256.8,430.7 252.3,432.2 247.7,432.2 243.2,432.8 238.6,432.5 234.1,434.2 229.5,437.0 224.9,437.8 220.4,437.8 215.8,438.5 211.3,438.7 206.7,438.7 202.2,440.1 197.6,440.4 193.0,441.8 188.5,442.2 183.9,442.6 179.4,442.8 174.8,444.2 170.3,445.5 165.7,447.2 161.1,448.3 156.6,448.3 152.0,450.5 147.5,450.5 142.9,451.3 138.4,452.0 133.8,452.3 129.2,454.3 124.7,454.3 120.1,455.8 115.6,454.3 111.0,454.9 106.5,455.0 101.9,458.8 97.3,458.8 92.8,461.8 88.2,464.5 83.7,465.7 79.1,466.7 74.6,466.7 70.0,466.7" fill="#b07aa1" fill-opacity="0.92" stroke="#b07aa1" stroke-width="0.6"/>
<polygon points="70.0,465.5 74.6,465.5 79.1,465.5 83.7,464.5 88.2,463.3 92.8,460.6 97.3,457.7 101.9,457.7 106.5,453.8 111.0,453.7 115.6,453.0 120.1,454.7 124.7,453.0 129.2,453.0 133.8,448.9 138.4,448.3 142.9,446.9 147.5,445.4 152.0,445.4 156.6,443.1 161.1,443.1 165.7,440.1 170.3,437.5 174.8,435.0 179.4,432.3 183.9,431.7 188.5,430.8 193.0,430.2 197.6,427.5 202.2,426.8 206.7,424.1 211.3,423.6 215.8,422.9 220.4,421.9 224.9,421.8 229.5,420.4 234.1,415.5 238.6,414.3 243.2,412.8 247.7,411.1 252.3,410.7 256.8,408.7 261.4,361.5 265.9,358.2 270.5,356.0 275.1,351.4 279.6,350.4 284.2,348.2 288.7,346.3 293.3,344.8 297.8,345.0 302.4,343.6 307.0,342.6 311.5,341.8 316.1,331.5 320.6,334.9 325.2,333.0 329.7,332.8 334.3,330.7 338.9,328.1 343.4,328.1 348.0,324.8 352.5,323.0 357.1,321.8 361.6,321.8 366.2,319.3 370.8,317.7 375.3,317.7 379.9,318.2 384.4,317.7 389.0,313.2 393.5,312.3 398.1,313.2 402.7,310.9 407.2,310.4 411.8,309.9 416.3,309.9 420.9,309.9 425.4,309.9 430.0,308.5 434.6,308.1 439.1,308.1 443.7,308.1 448.2,308.1 452.8,306.5 457.3,304.7 461.9,304.0 466.5,299.8 471.0,298.2 475.6,297.9 480.1,297.5 484.7,295.4 489.2,294.9 493.8,293.4 498.4,293.1 502.9,292.5 507.5,292.5 512.0,292.3 516.6,291.4 521.1,290.0 525.7,288.9 530.3,288.4 534.8,287.0 539.4,286.5 543.9,283.9 548.5,283.5 553.0,282.3 557.6,281.7 562.2,281.3 566.7,279.4 571.3,276.2 575.8,275.7 580.4,273.0 584.9,271.3 589.5,268.1 594.1,266.2 598.6,264.0 603.2,261.8 607.7,260.5 612.3,258.4 616.8,258.2 621.4,257.3 625.9,257.0 630.5,255.7 635.1,252.4 639.6,251.0 644.2,249.5 648.7,249.5 653.3,247.9 657.8,246.7 662.4,246.7 667.0,245.7 671.5,245.7 676.1,245.7 680.6,245.7 685.2,245.7 689.7,245.7 694.3,244.4 698.9,243.8 703.4,243.1 708.0,242.0 712.5,240.6 717.1,240.6 721.6,239.9 726.2,239.9 730.8,239.9 735.3,239.9 739.9,239.9 744.4,239.9 749.0,239.9 753.5,239.0 758.1,239.0 762.7,239.0 767.2,239.0 771.8,238.0 776.3,237.0 780.9,237.0 785.4,237.0 790.0,237.0 790.0,316.7 785.4,316.7 780.9,316.7 776.3,316.7 771.8,317.2 767.2,317.7 762.7,317.7 758.1,317.7 753.5,317.7 749.0,317.7 744.4,317.7 739.9,317.7 735.3,317.7 730.8,317.7 726.2,317.7 721.6,317.7 717.1,318.0 712.5,318.0 708.0,318.7 703.4,319.3 698.9,319.3 694.3,319.3 689.7,320.6 685.2,320.6 680.6,320.6 676.1,320.6 671.5,320.6 667.0,320.6 662.4,321.6 657.8,321.6 653.3,322.8 648.7,324.4 644.2,324.4 639.6,325.9 635.1,327.3 630.5,330.6 625.9,331.9 621.4,332.2 616.8,333.1 612.3,333.3 607.7,335.4 603.2,336.7 598.6,338.9 594.1,341.1 589.5,343.0 584.9,345.4 580.4,347.9 575.8,350.6 571.3,351.1 566.7,354.3 562.2,356.2 557.6,356.6 553.0,357.2 548.5,358.4 543.9,358.8 539.4,361.4 534.8,361.9 530.3,363.3 525.7,363.8 521.1,365.0 516.6,366.3 512.0,367.2 507.5,367.4 502.9,367.4 498.4,368.0 493.8,368.3 489.2,369.8 484.7,370.3 480.1,372.4 475.6,372.8 471.0,373.1 466.5,374.7 461.9,378.9 457.3,379.6 452.8,380.1 448.2,381.7 443.7,381.7 439.1,381.7 434.6,381.7 430.0,381.9 425.4,382.6 420.9,382.6 416.3,382.6 411.8,382.6 407.2,382.8 402.7,383.0 398.1,384.2 393.5,383.0 389.0,383.9 384.4,387.3 379.9,387.9 375.3,387.3 370.8,387.3 366.2,387.3 361.6,388.6 357.1,388.6 352.5,389.2 348.0,390.0 343.4,391.7 338.9,391.7 334.3,391.7 329.7,393.0 325.2,393.1 320.6,393.5 316.1,391.6 311.5,397.2 307.0,397.7 302.4,397.6 297.8,398.9 293.3,398.8 288.7,399.5 284.2,400.4 279.6,401.5 275.1,401.7 270.5,404.6 265.9,405.8 261.4,407.5 256.8,430.1 252.3,431.6 247.7,431.6 243.2,432.3 238.6,432.0 234.1,433.6 229.5,436.4 224.9,437.3 220.4,437.3 215.8,438.0 211.3,438.2 206.7,438.2 202.2,439.5 197.6,439.8 193.0,441.3 188.5,441.6 183.9,442.0 179.4,442.3 174.8,443.6 170.3,444.9 165.7,446.6 161.1,447.7 156.6,447.7 152.0,449.9 147.5,449.9 142.9,450.7 138.4,451.4 133.8,451.7 129.2,453.7 124.7,453.7 120.1,455.2 115.6,453.7 111.0,454.3 106.5,454.4 101.9,458.3 97.3,458.3 92.8,461.2 88.2,464.0 83.7,465.1 79.1,466.1 74.6,466.1 70.0,466.1" fill="#ff9da7" fill-opacity="0.92" stroke="#ff9da7" stroke-width="0.6"/>
<polygon points="70.0,464.9 74.6,464.9 79.1,464.9 83.7,463.9 88.2,462.7 92.8,460.0 97.3,457.0 101.9,457.0 106.5,453.2 111.0,453.0 115.6,452.4 120.1,454.1 124.7,452.4 129.2,452.4 133.8,446.2 138.4,445.3 142.9,443.3 147.5,441.0 152.0,441.0 156.6,438.7 161.1,438.7 165.7,430.6 170.3,424.6 174.8,421.1 179.4,418.4 183.9,417.4 188.5,416.2 193.0,415.2 197.6,411.2 202.2,410.1 206.7,405.9 211.3,405.3 215.8,404.3 220.4,402.9 224.9,401.7 229.5,397.1 234.1,388.4 238.6,387.8 243.2,386.6 247.7,383.6 252.3,383.2 256.8,379.5 261.4,297.8 265.9,288.4 270.5,285.0 275.1,276.8 279.6,273.9 284.2,270.5 288.7,267.8 293.3,266.7 297.8,265.8 302.4,264.4 307.0,263.4 311.5,261.2 316.1,245.0 320.6,244.2 325.2,242.9 329.7,242.5 334.3,242.6 338.9,237.4 343.4,231.6 348.0,226.7 352.5,224.0 357.1,222.3 361.6,218.5 366.2,214.2 370.8,210.8 375.3,210.1 379.9,211.7 384.4,209.7 389.0,201.8 393.5,198.1 398.1,198.7 402.7,195.2 407.2,194.4 411.8,193.8 416.3,193.8 420.9,193.4 425.4,193.1 430.0,190.1 434.6,189.4 439.1,189.0 443.7,189.0 448.2,189.0 452.8,187.4 457.3,183.3 461.9,182.7 466.5,178.4 471.0,176.9 475.6,176.6 480.1,176.2 484.7,174.1 489.2,173.5 493.8,172.1 498.4,171.7 502.9,171.2 507.5,171.2 512.0,171.0 516.6,170.0 521.1,168.7 525.7,167.6 530.3,167.0 534.8,165.7 539.4,165.1 543.9,162.6 548.5,162.2 553.0,161.0 557.6,160.4 562.2,159.9 566.7,158.1 571.3,154.9 575.8,154.3 580.4,151.7 584.9,150.8 589.5,146.8 594.1,144.9 598.6,142.6 603.2,140.5 607.7,139.1 612.3,137.0 616.8,136.9 621.4,136.0 625.9,135.7 630.5,134.4 635.1,131.1 639.6,129.7 644.2,128.2 648.7,128.2 653.3,126.5 657.8,125.4 662.4,125.4 667.0,124.3 671.5,124.3 676.1,124.3 680.6,124.3 685.2,124.3 689.7,124.3 694.3,123.1 698.9,121.9 703.4,120.5 708.0,118.8 712.5,116.7 717.1,116.7 721.6,115.7 726.2,115.7 730.8,115.0 735.3,120.5 739.9,114.3 744.4,113.4 749.0,112.4 753.5,110.5 758.1,109.8 762.7,109.8 767.2,109.8 771.8,108.2 776.3,106.8 780.9,106.5 785.4,106.1 790.0,104.6 790.0,237.0 785.4,237.0 780.9,237.0 776.3,237.0 771.8,238.0 767.2,239.0 762.7,239.0 758.1,239.0 753.5,239.0 749.0,239.9 744.4,239.9 739.9,239.9 735.3,239.9 730.8,239.9 726.2,239.9 721.6,239.9 717.1,240.6 712.5,240.6 708.0,242.0 703.4,243.1 698.9,243.8 694.3,244.4 689.7,245.7 685.2,245.7 680.6,245.7 676.1,245.7 671.5,245.7 667.0,245.7 662.4,246.7 657.8,246.7 653.3,247.9 648.7,249.5 644.2,249.5 639.6,251.0 635.1,252.4 630.5,255.7 625.9,257.0 621.4,257.3 616.8,258.2 612.3,258.4 607.7,260.5 603.2,261.8 598.6,264.0 594.1,266.2 589.5,268.1 584.9,271.3 580.4,273.0 575.8,275.7 571.3,276.2 566.7,279.4 562.2,281.3 557.6,281.7 553.0,282.3 548.5,283.5 543.9,283.9 539.4,286.5 534.8,287.0 530.3,288.4 525.7,288.9 521.1,290.0 516.6,291.4 512.0,292.3 507.5,292.5 502.9,292.5 498.4,293.1 493.8,293.4 489.2,294.9 484.7,295.4 480.1,297.5 475.6,297.9 471.0,298.2 466.5,299.8 461.9,304.0 457.3,304.7 452.8,306.5 448.2,308.1 443.7,308.1 439.1,308.1 434.6,308.1 430.0,308.5 425.4,309.9 420.9,309.9 416.3,309.9 411.8,309.9 407.2,310.4 402.7,310.9 398.1,313.2 393.5,312.3 389.0,313.2 384.4,317.7 379.9,318.2 375.3,317.7 370.8,317.7 366.2,319.3 361.6,321.8 357.1,321.8 352.5,323.0 348.0,324.8 343.4,328.1 338.9,328.1 334.3,330.7 329.7,332.8 325.2,333.0 320.6,334.9 316.1,331.5 311.5,341.8 307.0,342.6 302.4,343.6 297.8,345.0 293.3,344.8 288.7,346.3 284.2,348.2 279.6,350.4 275.1,351.4 270.5,356.0 265.9,358.2 261.4,361.5 256.8,408.7 252.3,410.7 247.7,411.1 243.2,412.8 238.6,414.3 234.1,415.5 229.5,420.4 224.9,421.8 220.4,421.9 215.8,422.9 211.3,423.6 206.7,424.1 202.2,426.8 197.6,427.5 193.0,430.2 188.5,430.8 183.9,431.7 179.4,432.3 174.8,435.0 170.3,437.5 165.7,440.1 161.1,443.1 156.6,443.1 152.0,445.4 147.5,445.4 142.9,446.9 138.4,448.3 133.8,448.9 129.2,453.0 124.7,453.0 120.1,454.7 115.6,453.0 111.0,453.7 106.5,453.8 101.9,457.7 97.3,457.7 92.8,460.6 88.2,463.3 83.7,464.5 79.1,465.5 74.6,465.5 70.0,465.5" fill="#9c755f" fill-opacity="0.92" stroke="#9c755f" stroke-width="0.6"/>
<polygon points="70.0,464.9 74.6,464.9 79.1,464.3 83.7,463.3 88.2,462.1 92.8,459.4 97.3,456.4 101.9,456.4 106.5,452.6 111.0,452.4 115.6,451.7 120.1,453.5 124.7,451.7 129.2,451.7 133.8,445.6 138.4,444.7 142.9,442.7 147.5,440.3 152.0,440.3 156.6,438.1 161.1,438.1 165.7,430.0 170.3,424.0 174.8,420.4 179.4,417.8 183.9,416.8 188.5,415.6 193.0,414.6 197.6,410.6 202.2,409.4 206.7,405.3 211.3,404.7 215.8,403.7 220.4,402.3 224.9,401.1 229.5,396.5 234.1,387.8 238.6,387.1 243.2,385.9 247.7,383.0 252.3,382.6 256.8,378.8 261.4,297.2 265.9,287.8 270.5,284.3 275.1,276.1 279.6,273.2 284.2,269.8 288.7,267.2 293.3,266.1 297.8,265.2 302.4,263.7 307.0,262.8 311.5,260.6 316.1,244.3 320.6,243.5 325.2,242.3 329.7,241.9 334.3,242.0 338.9,236.8 343.4,231.0 348.0,226.1 352.5,223.4 357.1,221.7 361.6,217.9 366.2,213.6 370.8,210.2 375.3,209.5 379.9,211.1 384.4,209.1 389.0,201.2 393.5,197.5 398.1,198.0 402.7,194.5 407.2,193.8 411.8,193.1 416.3,193.1 420.9,192.8 425.4,192.5 430.0,189.5 434.6,188.7 439.1,188.4 443.7,188.4 448.2,188.4 452.8,186.8 457.3,182.7 461.9,182.1 466.5,177.8 471.0,176.3 475.6,175.9 480.1,175.6 484.7,173.5 489.2,172.9 493.8,171.4 498.4,171.1 502.9,170.5 507.5,170.5 512.0,170.4 516.6,169.4 521.1,168.1 525.7,166.9 530.3,166.4 534.8,165.1 539.4,164.5 543.9,162.0 548.5,161.5 553.0,160.3 557.6,159.7 562.2,159.3 566.7,157.5 571.3,154.3 575.8,153.7 580.4,151.1 584.9,150.2 589.5,146.2 594.1,144.2 598.6,142.0 603.2,139.9 607.7,138.5 612.3,136.4 616.8,136.3 621.4,135.4 625.9,135.1 630.5,133.7 635.1,130.5 639.6,129.1 644.2,127.6 648.7,127.6 653.3,125.9 657.8,124.8 662.4,124.8 667.0,123.7 671.5,123.7 676.1,123.7 680.6,123.7 685.2,123.7 689.7,123.7 694.3,122.5 698.9,121.3 703.4,119.9 708.0,118.2 712.5,116.1 717.1,116.1 721.6,115.1 726.2,115.1 730.8,114.3 735.3,119.9 739.9,113.6 744.4,112.7 749.0,111.8 753.5,109.9 758.1,109.1 762.7,109.1 767.2,109.1 771.8,107.6 776.3,106.2 780.9,105.8 785.4,105.5 790.0,103.9 790.0,104.6 785.4,106.1 780.9,106.5 776.3,106.8 771.8,108.2 767.2,109.8 762.7,109.8 758.1,109.8 753.5,110.5 749.0,112.4 744.4,113.4 739.9,114.3 735.3,120.5 730.8,115.0 726.2,115.7 721.6,115.7 717.1,116.7 712.5,116.7 708.0,118.8 703.4,120.5 698.9,121.9 694.3,123.1 689.7,124.3 685.2,124.3 680.6,124.3 676.1,124.3 671.5,124.3 667.0,124.3 662.4,125.4 657.8,125.4 653.3,126.5 648.7,128.2 644.2,128.2 639.6,129.7 635.1,131.1 630.5,134.4 625.9,135.7 621.4,136.0 616.8,136.9 612.3,137.0 607.7,139.1 603.2,140.5 598.6,142.6 594.1,144.9 589.5,146.8 584.9,150.8 580.4,151.7 575.8,154.3 571.3,154.9 566.7,158.1 562.2,159.9 557.6,160.4 553.0,161.0 548.5,162.2 543.9,162.6 539.4,165.1 534.8,165.7 530.3,167.0 525.7,167.6 521.1,168.7 516.6,170.0 512.0,171.0 507.5,171.2 502.9,171.2 498.4,171.7 493.8,172.1 489.2,173.5 484.7,174.1 480.1,176.2 475.6,176.6 471.0,176.9 466.5,178.4 461.9,182.7 457.3,183.3 452.8,187.4 448.2,189.0 443.7,189.0 439.1,189.0 434.6,189.4 430.0,190.1 425.4,193.1 420.9,193.4 416.3,193.8 411.8,193.8 407.2,194.4 402.7,195.2 398.1,198.7 393.5,198.1 389.0,201.8 384.4,209.7 379.9,211.7 375.3,210.1 370.8,210.8 366.2,214.2 361.6,218.5 357.1,222.3 352.5,224.0 348.0,226.7 343.4,231.6 338.9,237.4 334.3,242.6 329.7,242.5 325.2,242.9 320.6,244.2 316.1,245.0 311.5,261.2 307.0,263.4 302.4,264.4 297.8,265.8 293.3,266.7 288.7,267.8 284.2,270.5 279.6,273.9 275.1,276.8 270.5,285.0 265.9,288.4 261.4,297.8 256.8,379.5 252.3,383.2 247.7,383.6 243.2,386.6 238.6,387.8 234.1,388.4 229.5,397.1 224.9,401.7 220.4,402.9 215.8,404.3 211.3,405.3 206.7,405.9 202.2,410.1 197.6,411.2 193.0,415.2 188.5,416.2 183.9,417.4 179.4,418.4 174.8,421.1 170.3,424.6 165.7,430.6 161.1,438.7 156.6,438.7 152.0,441.0 147.5,441.0 142.9,443.3 138.4,445.3 133.8,446.2 129.2,452.4 124.7,452.4 120.1,454.1 115.6,452.4 111.0,453.0 106.5,453.2 101.9,457.0 97.3,457.0 92.8,460.0 88.2,462.7 83.7,463.9 79.1,464.9 74.6,464.9 70.0,464.9" fill="#8cd17d" fill-opacity="0.92" stroke="#8cd17d" stroke-width="0.6"/>
<polygon points="70.0,464.9 74.6,464.9 79.1,464.3 83.7,462.8 88.2,461.5 92.8,458.8 97.3,455.9 101.9,455.9 106.5,452.0 111.0,451.9 115.6,451.2 120.1,453.0 124.7,451.2 129.2,451.2 133.8,445.1 138.4,444.2 142.9,442.1 147.5,439.8 152.0,439.8 156.6,437.5 161.1,437.5 165.7,429.4 170.3,423.4 174.8,419.9 179.4,417.2 183.9,416.2 188.5,415.1 193.0,414.0 197.6,410.0 202.2,408.9 206.7,404.8 211.3,404.2 215.8,403.1 220.4,401.7 224.9,400.6 229.5,396.0 234.1,387.2 238.6,386.6 243.2,385.4 247.7,382.5 252.3,382.1 256.8,378.3 261.4,295.1 265.9,284.0 270.5,280.5 275.1,272.2 279.6,269.3 284.2,265.9 288.7,263.2 293.3,262.1 297.8,261.2 302.4,259.8 307.0,258.8 311.5,256.6 316.1,240.1 320.6,239.4 325.2,238.5 329.7,238.0 334.3,238.0 338.9,232.8 343.4,227.1 348.0,222.1 352.5,219.5 357.1,217.7 361.6,214.0 366.2,209.7 370.8,206.3 375.3,205.5 379.9,207.1 384.4,205.1 389.0,197.3 393.5,193.6 398.1,194.1 402.7,190.6 407.2,189.9 411.8,189.2 416.3,189.2 420.9,188.8 425.4,188.6 430.0,185.6 434.6,184.8 439.1,184.5 443.7,184.5 448.2,184.5 452.8,182.9 457.3,178.8 461.9,178.2 466.5,173.9 471.0,172.3 475.6,172.0 480.1,171.6 484.7,169.5 489.2,169.0 493.8,167.5 498.4,167.2 502.9,166.6 507.5,166.6 512.0,166.5 516.6,165.5 521.1,164.2 525.7,163.0 530.3,162.5 534.8,161.1 539.4,160.6 543.9,158.1 548.5,157.6 553.0,156.4 557.6,155.8 562.2,155.4 566.7,153.5 571.3,150.3 575.8,149.8 580.4,147.1 584.9,146.3 589.5,142.2 594.1,140.3 598.6,138.1 603.2,135.9 607.7,134.6 612.3,132.5 616.8,132.3 621.4,131.4 625.9,131.2 630.5,129.8 635.1,126.6 639.6,125.1 644.2,123.6 648.7,123.6 653.3,122.0 657.8,120.9 662.4,120.9 667.0,119.8 671.5,119.8 676.1,119.8 680.6,119.8 685.2,119.8 689.7,119.8 694.3,118.5 698.9,117.4 703.4,116.0 708.0,114.3 712.5,112.2 717.1,112.2 721.6,111.1 726.2,111.1 730.8,110.4 735.3,115.9 739.9,109.7 744.4,108.8 749.0,107.8 753.5,106.0 758.1,105.2 762.7,105.2 767.2,105.2 771.8,103.7 776.3,102.3 780.9,101.9 785.4,101.6 790.0,100.0 790.0,103.9 785.4,105.5 780.9,105.8 776.3,106.2 771.8,107.6 767.2,109.1 762.7,109.1 758.1,109.1 753.5,109.9 749.0,111.8 744.4,112.7 739.9,113.6 735.3,119.9 730.8,114.3 726.2,115.1 721.6,115.1 717.1,116.1 712.5,116.1 708.0,118.2 703.4,119.9 698.9,121.3 694.3,122.5 689.7,123.7 685.2,123.7 680.6,123.7 676.1,123.7 671.5,123.7 667.0,123.7 662.4,124.8 657.8,124.8 653.3,125.9 648.7,127.6 644.2,127.6 639.6,129.1 635.1,130.5 630.5,133.7 625.9,135.1 621.4,135.4 616.8,136.3 612.3,136.4 607.7,138.5 603.2,139.9 598.6,142.0 594.1,144.2 589.5,146.2 584.9,150.2 580.4,151.1 575.8,153.7 571.3,154.3 566.7,157.5 562.2,159.3 557.6,159.7 553.0,160.3 548.5,161.5 543.9,162.0 539.4,164.5 534.8,165.1 530.3,166.4 525.7,166.9 521.1,168.1 516.6,169.4 512.0,170.4 507.5,170.5 502.9,170.5 498.4,171.1 493.8,171.4 489.2,172.9 484.7,173.5 480.1,175.6 475.6,175.9 471.0,176.3 466.5,177.8 461.9,182.1 457.3,182.7 452.8,186.8 448.2,188.4 443.7,188.4 439.1,188.4 434.6,188.7 430.0,189.5 425.4,192.5 420.9,192.8 416.3,193.1 411.8,193.1 407.2,193.8 402.7,194.5 398.1,198.0 393.5,197.5 389.0,201.2 384.4,209.1 379.9,211.1 375.3,209.5 370.8,210.2 366.2,213.6 361.6,217.9 357.1,221.7 352.5,223.4 348.0,226.1 343.4,231.0 338.9,236.8 334.3,242.0 329.7,241.9 325.2,242.3 320.6,243.5 316.1,244.3 311.5,260.6 307.0,262.8 302.4,263.7 297.8,265.2 293.3,266.1 288.7,267.2 284.2,269.8 279.6,273.2 275.1,276.1 270.5,284.3 265.9,287.8 261.4,297.2 256.8,378.8 252.3,382.6 247.7,383.0 243.2,385.9 238.6,387.1 234.1,387.8 229.5,396.5 224.9,401.1 220.4,402.3 215.8,403.7 211.3,404.7 206.7,405.3 202.2,409.4 197.6,410.6 193.0,414.6 188.5,415.6 183.9,416.8 179.4,417.8 174.8,420.4 170.3,424.0 165.7,430.0 161.1,438.1 156.6,438.1 152.0,440.3 147.5,440.3 142.9,442.7 138.4,444.7 133.8,445.6 129.2,451.7 124.7,451.7 120.1,453.5 115.6,451.7 111.0,452.4 106.5,452.6 101.9,456.4 97.3,456.4 92.8,459.4 88.2,462.1 83.7,463.3 79.1,464.3 74.6,464.9 70.0,464.9" fill="#86bcb6" fill-opacity="0.92" stroke="#86bcb6" stroke-width="0.6"/>
<line x1="70" y1="468" x2="790" y2="468" stroke="#b9b3a7"/>
<line x1="70" y1="58" x2="70" y2="468" stroke="#b9b3a7"/>
<line x1="70.0" y1="468" x2="70.0" y2="472" stroke="#b9b3a7"/>
<text x="70.0" y="485" font-size="10" fill="#8a857c" text-anchor="middle">09-05</text>
<line x1="161.1" y1="468" x2="161.1" y2="472" stroke="#b9b3a7"/>
<text x="161.1" y="485" font-size="10" fill="#8a857c" text-anchor="middle">09-05</text>
<line x1="252.3" y1="468" x2="252.3" y2="472" stroke="#b9b3a7"/>
<text x="252.3" y="485" font-size="10" fill="#8a857c" text-anchor="middle">09-05</text>
<line x1="343.4" y1="468" x2="343.4" y2="472" stroke="#b9b3a7"/>
<text x="343.4" y="485" font-size="10" fill="#8a857c" text-anchor="middle">09-05</text>
<line x1="434.6" y1="468" x2="434.6" y2="472" stroke="#b9b3a7"/>
<text x="434.6" y="485" font-size="10" fill="#8a857c" text-anchor="middle">09-06</text>
<line x1="525.7" y1="468" x2="525.7" y2="472" stroke="#b9b3a7"/>
<text x="525.7" y="485" font-size="10" fill="#8a857c" text-anchor="middle">09-06</text>
<line x1="616.8" y1="468" x2="616.8" y2="472" stroke="#b9b3a7"/>
<text x="616.8" y="485" font-size="10" fill="#8a857c" text-anchor="middle">09-06</text>
<line x1="708.0" y1="468" x2="708.0" y2="472" stroke="#b9b3a7"/>
<text x="708.0" y="485" font-size="10" fill="#8a857c" text-anchor="middle">09-06</text>
<text x="430.0" y="504" font-size="10" fill="#8a857c" text-anchor="middle">date</text>
<text x="836" y="64" font-size="10" fill="#8a857c" letter-spacing="0.5">TARGET   MATCHED  OF IT  FUNCTIONS</text>
<rect x="836" y="71" width="11" height="11" fill="#4e79a7" rx="2"/>
<text x="853" y="80" font-size="11" fill="#3d3a35">main</text>
<text x="927" y="80" font-size="11" fill="#3d3a35" text-anchor="end">3,700</text>
<text x="970" y="80" font-size="11" fill="#8a857c" text-anchor="end">40.43%</text>
<text x="1040" y="80" font-size="11" fill="#8a857c" text-anchor="end">21/41</text>
<rect x="836" y="88" width="11" height="11" fill="#f28e2b" rx="2"/>
<text x="853" y="97" font-size="11" fill="#3d3a35">atlus</text>
<text x="927" y="97" font-size="11" fill="#3d3a35" text-anchor="end">180</text>
<text x="970" y="97" font-size="11" fill="#8a857c" text-anchor="end">7.99%</text>
<text x="1040" y="97" font-size="11" fill="#8a857c" text-anchor="end">1/7</text>
<rect x="836" y="105" width="11" height="11" fill="#e15759" rx="2"/>
<text x="853" y="114" font-size="11" fill="#3d3a35">open</text>
<text x="927" y="114" font-size="11" fill="#3d3a35" text-anchor="end">180</text>
<text x="970" y="114" font-size="11" fill="#8a857c" text-anchor="end">0.57%</text>
<text x="1040" y="114" font-size="11" fill="#8a857c" text-anchor="end">1/44</text>
<rect x="836" y="122" width="11" height="11" fill="#76b7b2" rx="2"/>
<text x="853" y="131" font-size="11" fill="#3d3a35">movie</text>
<text x="927" y="131" font-size="11" fill="#3d3a35" text-anchor="end">136</text>
<text x="970" y="131" font-size="11" fill="#8a857c" text-anchor="end">9.12%</text>
<text x="1040" y="131" font-size="11" fill="#8a857c" text-anchor="end">1/3</text>
<rect x="836" y="139" width="11" height="11" fill="#59a14f" rx="2"/>
<text x="853" y="148" font-size="11" fill="#3d3a35">end</text>
<text x="927" y="148" font-size="11" fill="#3d3a35" text-anchor="end">136</text>
<text x="970" y="148" font-size="11" fill="#8a857c" text-anchor="end">1.93%</text>
<text x="1040" y="148" font-size="11" fill="#8a857c" text-anchor="end">1/8</text>
<rect x="836" y="156" width="11" height="11" fill="#edc948" rx="2"/>
<text x="853" y="165" font-size="11" fill="#3d3a35">dng</text>
<text x="927" y="165" font-size="11" fill="#3d3a35" text-anchor="end">20,708</text>
<text x="970" y="165" font-size="11" fill="#8a857c" text-anchor="end">10.42%</text>
<text x="1040" y="165" font-size="11" fill="#8a857c" text-anchor="end">117/376</text>
<rect x="836" y="173" width="11" height="11" fill="#b07aa1" rx="2"/>
<text x="853" y="182" font-size="11" fill="#3d3a35">btlp</text>
<text x="927" y="182" font-size="11" fill="#3d3a35" text-anchor="end">19,236</text>
<text x="970" y="182" font-size="11" fill="#8a857c" text-anchor="end">13.36%</text>
<text x="1040" y="182" font-size="11" fill="#8a857c" text-anchor="end">157/315</text>
<rect x="836" y="190" width="11" height="11" fill="#ff9da7" rx="2"/>
<text x="853" y="199" font-size="11" fill="#3d3a35">s2d</text>
<text x="927" y="199" font-size="11" fill="#3d3a35" text-anchor="end">23,324</text>
<text x="970" y="199" font-size="11" fill="#8a857c" text-anchor="end">11.14%</text>
<text x="1040" y="199" font-size="11" fill="#8a857c" text-anchor="end">124/449</text>
<rect x="836" y="207" width="11" height="11" fill="#9c755f" rx="2"/>
<text x="853" y="216" font-size="11" fill="#3d3a35">adv</text>
<text x="927" y="216" font-size="11" fill="#3d3a35" text-anchor="end">38,768</text>
<text x="970" y="216" font-size="11" fill="#8a857c" text-anchor="end">17.44%</text>
<text x="1040" y="216" font-size="11" fill="#8a857c" text-anchor="end">204/410</text>
<rect x="836" y="224" width="11" height="11" fill="#8cd17d" rx="2"/>
<text x="853" y="233" font-size="11" fill="#3d3a35">casino</text>
<text x="927" y="233" font-size="11" fill="#3d3a35" text-anchor="end">184</text>
<text x="970" y="233" font-size="11" fill="#8a857c" text-anchor="end">0.10%</text>
<text x="1040" y="233" font-size="11" fill="#8a857c" text-anchor="end">1/453</text>
<rect x="836" y="241" width="11" height="11" fill="#86bcb6" rx="2"/>
<text x="853" y="250" font-size="11" fill="#3d3a35">name</text>
<text x="927" y="250" font-size="11" fill="#3d3a35" text-anchor="end">1,148</text>
<text x="970" y="250" font-size="11" fill="#8a857c" text-anchor="end">7.43%</text>
<text x="1040" y="250" font-size="11" fill="#8a857c" text-anchor="end">7/26</text>
<text x="70" y="512" font-size="9.5" fill="#a49e93">The first 58 samples predate per-target recording and are reconstructed from the order functions were added; their grand totals are as measured.</text>
</svg>